Lora-MediumItalic.ufo
<glyph name="exclam" format="2">
  <advance width="266.3333333333333"/>
  <unicode hex="0021"/>
  <outline>
    <contour>
      <point x="157.0" y="716.0" type="curve" smooth="yes"/>
      <point x="113.0" y="716.0"/>
      <point x="90.66666666666667" y="674.6666666666666"/>
      <point x="92.0" y="637.0" type="curve" smooth="yes"/>
      <point x="107.33333333333333" y="224.33333333333334" type="line"/>
      <point x="154.33333333333334" y="224.33333333333334" type="line"/>
      <point x="213.0" y="637.0" type="line" smooth="yes"/>
      <point x="218.33333333333334" y="674.6666666666666"/>
      <point x="203.66666666666666" y="716.0"/>
    </contour>
    <contour>
      <point x="125.66666666666667" y="122.0" type="curve" smooth="yes"/>
      <point x="92.33333333333333" y="122.0"/>
      <point x="61.0" y="91.0"/>
      <point x="59.0" y="52.666666666666664" type="curve" smooth="yes"/>
      <point x="57.0" y="14.333333333333332"/>
      <point x="83.66666666666667" y="-16.0"/>
      <point x="117.33333333333333" y="-16.0" type="curve" smooth="yes"/>
      <point x="150.66666666666666" y="-16.0"/>
      <point x="182.66666666666666" y="14.333333333333332"/>
      <point x="185.0" y="52.666666666666664" type="curve" smooth="yes"/>
      <point x="186.66666666666666" y="91.0"/>
      <point x="161.66666666666666" y="122.0"/>
    </contour>
  </outline>
</glyph>
<glyph name="quotedbl" format="2">
  <advance width="345.3333333333333"/>
  <unicode hex="0022"/>
  <outline>
    <contour>
      <point x="319.6666666666667" y="716.0" type="line"/>
      <point x="236.0" y="716.0" type="line"/>
      <point x="230.66666666666666" y="491.0" type="line"/>
      <point x="298.3333333333333" y="491.0" type="line"/>
    </contour>
    <contour>
      <point x="163.33333333333334" y="716.0" type="line"/>
      <point x="79.0" y="716.0" type="line"/>
      <point x="74.33333333333333" y="491.0" type="line"/>
      <point x="142.0" y="491.0" type="line"/>
    </contour>
  </outline>
</glyph>
<glyph name="numbersign" format="2">
  <advance width="819.3333333333334"/>
  <unicode hex="0023"/>
  <outline>
    <contour>
      <point x="679.0" y="705.3333333333334" type="line"/>
      <point x="602.6666666666666" y="705.3333333333334" type="line"/>
      <point x="557.0" y="528.3333333333334" type="line"/>
      <point x="358.0" y="528.3333333333334" type="line"/>
      <point x="401.6666666666667" y="705.3333333333334" type="line"/>
      <point x="325.0" y="705.3333333333334" type="line"/>
      <point x="279.6666666666667" y="528.3333333333334" type="line"/>
      <point x="113.66666666666667" y="528.3333333333334" type="line"/>
      <point x="94.33333333333333" y="459.6666666666667" type="line"/>
      <point x="262.3333333333333" y="459.6666666666667" type="line"/>
      <point x="206.33333333333334" y="239.0" type="line"/>
      <point x="42.333333333333336" y="239.0" type="line"/>
      <point x="23.333333333333332" y="170.33333333333334" type="line"/>
      <point x="189.33333333333334" y="170.33333333333334" type="line"/>
      <point x="144.66666666666666" y="-5.333333333333333" type="line"/>
      <point x="227.33333333333334" y="-5.333333333333333" type="line"/>
      <point x="270.0" y="170.33333333333334" type="line"/>
      <point x="466.6666666666667" y="170.33333333333334" type="line"/>
      <point x="422.3333333333333" y="-5.333333333333333" type="line"/>
      <point x="505.0" y="-5.333333333333333" type="line"/>
      <point x="547.6666666666666" y="170.33333333333334" type="line"/>
      <point x="712.3333333333334" y="170.33333333333334" type="line"/>
      <point x="731.6666666666666" y="239.0" type="line"/>
      <point x="564.6666666666666" y="239.0" type="line"/>
      <point x="618.3333333333334" y="459.6666666666667" type="line"/>
      <point x="784.3333333333334" y="459.6666666666667" type="line"/>
      <point x="802.6666666666666" y="527.3333333333334" type="line"/>
      <point x="802.6666666666666" y="528.3333333333334" type="line"/>
      <point x="635.6666666666666" y="528.3333333333334" type="line"/>
    </contour>
    <contour>
      <point x="540.0" y="459.6666666666667" type="line"/>
      <point x="483.6666666666667" y="239.0" type="line"/>
      <point x="286.3333333333333" y="239.0" type="line"/>
      <point x="341.0" y="459.6666666666667" type="line"/>
    </contour>
  </outline>
</glyph>
<glyph name="dollar" format="2">
  <advance width="542.6666666666666"/>
  <unicode hex="0024"/>
  <outline>
    <contour>
      <point x="224.0" y="-153.33333333333334" type="line"/>
      <point x="289.0" y="-153.33333333333334" type="line"/>
      <point x="297.0" y="-15.0" type="line"/>
      <point x="425.6666666666667" y="-3.3333333333333335"/>
      <point x="495.0" y="78.33333333333333"/>
      <point x="500.3333333333333" y="175.33333333333334" type="curve" smooth="yes"/>
      <point x="506.6666666666667" y="298.6666666666667"/>
      <point x="399.3333333333333" y="351.6666666666667"/>
      <point x="303.0" y="400.6666666666667" type="curve" smooth="yes"/>
      <point x="214.33333333333334" y="446.6666666666667"/>
      <point x="155.0" y="484.0"/>
      <point x="157.0" y="558.0" type="curve" smooth="yes"/>
      <point x="158.33333333333334" y="614.0"/>
      <point x="201.0" y="667.0"/>
      <point x="275.6666666666667" y="667.3333333333334" type="curve" smooth="yes"/>
      <point x="384.6666666666667" y="667.6666666666666"/>
      <point x="420.3333333333333" y="591.6666666666666"/>
      <point x="425.0" y="490.6666666666667" type="curve"/>
      <point x="471.6666666666667" y="490.6666666666667" type="line"/>
      <point x="483.6666666666667" y="713.6666666666666" type="line"/>
      <point x="424.6666666666667" y="713.6666666666666" type="line"/>
      <point x="425.6666666666667" y="670.0" type="line"/>
      <point x="394.3333333333333" y="692.6666666666666"/>
      <point x="361.3333333333333" y="706.0"/>
      <point x="327.0" y="712.0" type="curve"/>
      <point x="334.3333333333333" y="834.3333333333334" type="line"/>
      <point x="267.3333333333333" y="834.3333333333334" type="line"/>
      <point x="261.0" y="716.0" type="line"/>
      <point x="109.66666666666667" y="708.6666666666666"/>
      <point x="62.333333333333336" y="604.0"/>
      <point x="59.0" y="535.6666666666666" type="curve" smooth="yes"/>
      <point x="53.333333333333336" y="412.0"/>
      <point x="152.0" y="357.0"/>
      <point x="250.66666666666666" y="307.6666666666667" type="curve" smooth="yes"/>
      <point x="329.6666666666667" y="268.6666666666667"/>
      <point x="402.3333333333333" y="232.0"/>
      <point x="398.6666666666667" y="150.66666666666666" type="curve" smooth="yes"/>
      <point x="395.6666666666667" y="83.0"/>
      <point x="342.3333333333333" y="34.33333333333333"/>
      <point x="266.6666666666667" y="34.33333333333333" type="curve" smooth="yes"/>
      <point x="165.0" y="34.33333333333333"/>
      <point x="99.66666666666667" y="89.0"/>
      <point x="95.0" y="208.33333333333334" type="curve"/>
      <point x="50.0" y="208.33333333333334" type="line"/>
      <point x="38.666666666666664" y="-11.666666666666666" type="line"/>
      <point x="100.33333333333333" y="-11.666666666666666" type="line"/>
      <point x="98.0" y="23.666666666666664" type="line"/>
      <point x="138.33333333333334" y="0.33333333333333304"/>
      <point x="189.0" y="-11.333333333333334"/>
      <point x="230.0" y="-15.0" type="curve"/>
    </contour>
  </outline>
</glyph>
<glyph name="percent" format="2">
  <advance width="877.0"/>
  <unicode hex="0025"/>
  <outline>
    <contour>
      <point x="157.66666666666666" y="-16.333333333333332" type="line"/>
      <point x="762.0" y="666.0" type="line"/>
      <point x="709.3333333333334" y="716.0" type="line"/>
      <point x="111.0" y="29.333333333333332" type="line"/>
    </contour>
    <contour>
      <point x="222.33333333333334" y="331.6666666666667" type="curve" smooth="yes"/>
      <point x="325.3333333333333" y="331.6666666666667"/>
      <point x="411.6666666666667" y="426.0"/>
      <point x="416.6666666666667" y="530.0" type="curve" smooth="yes"/>
      <point x="421.6666666666667" y="622.0"/>
      <point x="365.0" y="718.6666666666666"/>
      <point x="241.66666666666666" y="716.0" type="curve" smooth="yes"/>
      <point x="123.66666666666667" y="713.6666666666666"/>
      <point x="53.666666666666664" y="614.3333333333334"/>
      <point x="48.666666666666664" y="520.3333333333334" type="curve" smooth="yes"/>
      <point x="44.0" y="423.3333333333333"/>
      <point x="102.0" y="331.6666666666667"/>
    </contour>
    <contour>
      <point x="227.0" y="379.6666666666667" type="curve" smooth="yes"/>
      <point x="157.66666666666666" y="379.6666666666667"/>
      <point x="143.33333333333334" y="471.3333333333333"/>
      <point x="146.66666666666666" y="530.6666666666666" type="curve" smooth="yes"/>
      <point x="148.0" y="577.0"/>
      <point x="169.0" y="668.6666666666666"/>
      <point x="239.66666666666666" y="668.6666666666666" type="curve" smooth="yes"/>
      <point x="305.3333333333333" y="668.6666666666666"/>
      <point x="321.3333333333333" y="582.0"/>
      <point x="318.6666666666667" y="517.6666666666666" type="curve" smooth="yes"/>
      <point x="316.6666666666667" y="461.0"/>
      <point x="294.0" y="379.6666666666667"/>
    </contour>
    <contour>
      <point x="641.6666666666666" y="-16.0" type="curve" smooth="yes"/>
      <point x="746.3333333333334" y="-16.0"/>
      <point x="831.3333333333334" y="78.0"/>
      <point x="836.6666666666666" y="181.66666666666666" type="curve" smooth="yes"/>
      <point x="841.0" y="273.6666666666667"/>
      <point x="784.6666666666666" y="370.6666666666667"/>
      <point x="661.0" y="368.3333333333333" type="curve" smooth="yes"/>
      <point x="543.3333333333334" y="366.3333333333333"/>
      <point x="473.6666666666667" y="266.0"/>
      <point x="468.6666666666667" y="172.66666666666666" type="curve" smooth="yes"/>
      <point x="463.3333333333333" y="75.66666666666667"/>
      <point x="521.3333333333334" y="-16.0"/>
    </contour>
    <contour>
      <point x="646.6666666666666" y="31.333333333333332" type="curve" smooth="yes"/>
      <point x="577.3333333333334" y="31.333333333333332"/>
      <point x="563.6666666666666" y="123.0"/>
      <point x="566.3333333333334" y="182.33333333333334" type="curve" smooth="yes"/>
      <point x="568.3333333333334" y="228.0"/>
      <point x="588.6666666666666" y="320.3333333333333"/>
      <point x="659.6666666666666" y="320.3333333333333" type="curve" smooth="yes"/>
      <point x="725.0" y="320.3333333333333"/>
      <point x="741.3333333333334" y="234.0"/>
      <point x="738.6666666666666" y="169.66666666666666" type="curve" smooth="yes"/>
      <point x="736.6666666666666" y="112.66666666666667"/>
      <point x="713.6666666666666" y="31.333333333333332"/>
    </contour>
  </outline>
</glyph>
<glyph name="ampersand" format="2">
  <advance width="683.6666666666666"/>
  <unicode hex="0026"/>
  <outline>
    <contour>
      <point x="286.3333333333333" y="-16.0" type="curve" smooth="yes"/>
      <point x="497.3333333333333" y="-16.0"/>
      <point x="561.0" y="134.0"/>
      <point x="563.0" y="241.33333333333334" type="curve"/>
      <point x="639.3333333333334" y="249.33333333333334"/>
      <point x="662.0" y="281.3333333333333"/>
      <point x="694.6666666666666" y="334.0" type="curve"/>
      <point x="667.3333333333334" y="356.3333333333333" type="line"/>
      <point x="623.3333333333334" y="314.3333333333333"/>
      <point x="582.6666666666666" y="312.3333333333333"/>
      <point x="533.3333333333334" y="312.3333333333333" type="curve" smooth="yes"/>
      <point x="448.0" y="312.3333333333333"/>
      <point x="408.6666666666667" y="298.6666666666667"/>
      <point x="359.3333333333333" y="225.66666666666666" type="curve"/>
      <point x="384.0" y="200.33333333333334" type="line"/>
      <point x="435.0" y="239.66666666666666"/>
      <point x="470.6666666666667" y="238.66666666666666"/>
      <point x="514.0" y="238.66666666666666" type="curve"/>
      <point x="509.6666666666667" y="133.0"/>
      <point x="450.6666666666667" y="38.333333333333336"/>
      <point x="304.3333333333333" y="38.333333333333336" type="curve" smooth="yes"/>
      <point x="226.0" y="38.333333333333336"/>
      <point x="138.0" y="92.0"/>
      <point x="144.33333333333334" y="204.66666666666666" type="curve" smooth="yes"/>
      <point x="148.33333333333334" y="268.6666666666667"/>
      <point x="194.33333333333334" y="355.0"/>
      <point x="310.3333333333333" y="354.3333333333333" type="curve" smooth="yes"/>
      <point x="347.3333333333333" y="353.3333333333333" type="line"/>
      <point x="350.0" y="406.0" type="line"/>
      <point x="336.0" y="405.3333333333333"/>
      <point x="334.0" y="405.0"/>
      <point x="312.0" y="405.0" type="curve" smooth="yes"/>
      <point x="205.33333333333334" y="405.0"/>
      <point x="186.66666666666666" y="491.0"/>
      <point x="189.33333333333334" y="539.3333333333334" type="curve"/>
      <point x="193.33333333333334" y="612.6666666666666"/>
      <point x="241.33333333333334" y="669.6666666666666"/>
      <point x="314.0" y="670.0" type="curve" smooth="yes"/>
      <point x="359.0" y="670.0"/>
      <point x="391.6666666666667" y="650.0"/>
      <point x="400.3333333333333" y="626.0" type="curve"/>
      <point x="393.3333333333333" y="616.0"/>
      <point x="390.0" y="600.0"/>
      <point x="390.6666666666667" y="589.0" type="curve" smooth="yes"/>
      <point x="391.3333333333333" y="561.3333333333334"/>
      <point x="413.3333333333333" y="544.3333333333334"/>
      <point x="439.6666666666667" y="545.0" type="curve" smooth="yes"/>
      <point x="471.0" y="545.6666666666666"/>
      <point x="489.0" y="571.3333333333334"/>
      <point x="489.0" y="599.6666666666666" type="curve" smooth="yes"/>
      <point x="489.0" y="661.3333333333334"/>
      <point x="420.3333333333333" y="715.6666666666666"/>
      <point x="308.3333333333333" y="716.0" type="curve" smooth="yes"/>
      <point x="185.66666666666666" y="716.6666666666666"/>
      <point x="87.33333333333333" y="647.3333333333334"/>
      <point x="82.0" y="530.0" type="curve"/>
      <point x="78.66666666666667" y="462.3333333333333"/>
      <point x="115.66666666666667" y="406.6666666666667"/>
      <point x="217.66666666666666" y="385.3333333333333" type="curve"/>
      <point x="101.0" y="365.6666666666667"/>
      <point x="33.333333333333336" y="279.3333333333333"/>
      <point x="30.0" y="185.0" type="curve" smooth="yes"/>
      <point x="25.333333333333332" y="48.333333333333336"/>
      <point x="139.66666666666666" y="-16.0"/>
    </contour>
  </outline>
</glyph>
<glyph name="quotesingle" format="2">
  <advance width="195.33333333333334"/>
  <unicode hex="0027"/>
  <outline>
    <contour>
      <point x="169.0" y="716.0" type="line"/>
      <point x="79.0" y="716.0" type="line"/>
      <point x="74.66666666666667" y="491.0" type="line"/>
      <point x="147.33333333333334" y="491.0" type="line"/>
    </contour>
  </outline>
</glyph>
<glyph name="parenright" format="2">
  <advance width="297.3333333333333"/>
  <unicode hex="0029"/>
  <outline>
    <contour>
      <point x="63.333333333333336" y="760.0" type="curve"/>
      <point x="33.333333333333336" y="733.0" type="line"/>
      <point x="129.0" y="596.0"/>
      <point x="164.0" y="405.3333333333333"/>
      <point x="155.66666666666666" y="250.0" type="curve" smooth="yes"/>
      <point x="147.33333333333334" y="94.66666666666666"/>
      <point x="92.66666666666667" y="-107.0"/>
      <point x="-16.666666666666668" y="-244.0" type="curve"/>
      <point x="10.0" y="-271.0" type="line"/>
      <point x="113.33333333333333" y="-180.0"/>
      <point x="251.66666666666666" y="28.0"/>
      <point x="263.6666666666667" y="250.0" type="curve" smooth="yes"/>
      <point x="274.0" y="472.0"/>
      <point x="158.0" y="669.0"/>
    </contour>
  </outline>
</glyph>
<glyph name="asterisk" format="2">
  <advance width="512.6666666666666"/>
  <unicode hex="002A"/>
  <outline>
    <contour>
      <point x="281.3333333333333" y="716.0" type="curve" smooth="yes"/>
      <point x="244.0" y="716.0"/>
      <point x="237.0" y="676.3333333333334"/>
      <point x="238.0" y="644.3333333333334" type="curve" smooth="yes"/>
      <point x="239.66666666666666" y="605.0"/>
      <point x="242.66666666666666" y="557.0"/>
      <point x="253.0" y="511.3333333333333" type="curve"/>
      <point x="215.0" y="535.3333333333334"/>
      <point x="173.33333333333334" y="556.6666666666666"/>
      <point x="138.0" y="572.3333333333334" type="curve" smooth="yes"/>
      <point x="107.66666666666667" y="586.0"/>
      <point x="68.66666666666667" y="593.0"/>
      <point x="54.666666666666664" y="559.0" type="curve"/>
      <point x="40.333333333333336" y="523.3333333333334"/>
      <point x="74.66666666666667" y="505.6666666666667"/>
      <point x="107.0" y="497.3333333333333" type="curve"/>
      <point x="143.66666666666666" y="490.0"/>
      <point x="191.66666666666666" y="482.3333333333333"/>
      <point x="239.66666666666666" y="477.0" type="curve"/>
      <point x="199.66666666666666" y="446.6666666666667"/>
      <point x="167.33333333333334" y="414.6666666666667"/>
      <point x="139.66666666666666" y="385.0" type="curve" smooth="yes"/>
      <point x="117.33333333333333" y="359.6666666666667"/>
      <point x="96.66666666666667" y="321.3333333333333"/>
      <point x="124.33333333333333" y="300.6666666666667" type="curve" smooth="yes"/>
      <point x="152.33333333333334" y="281.0"/>
      <point x="182.33333333333334" y="306.6666666666667"/>
      <point x="200.66666666666666" y="334.0" type="curve"/>
      <point x="222.33333333333334" y="367.3333333333333"/>
      <point x="247.66666666666666" y="411.3333333333333"/>
      <point x="268.6666666666667" y="456.3333333333333" type="curve"/>
      <point x="283.6666666666667" y="411.3333333333333"/>
      <point x="305.3333333333333" y="367.0"/>
      <point x="323.0" y="333.0" type="curve"/>
      <point x="339.6666666666667" y="306.0"/>
      <point x="364.0" y="279.0"/>
      <point x="394.6666666666667" y="300.0" type="curve" smooth="yes"/>
      <point x="425.3333333333333" y="321.3333333333333"/>
      <point x="407.6666666666667" y="360.6666666666667"/>
      <point x="388.0" y="385.6666666666667" type="curve" smooth="yes"/>
      <point x="363.0" y="415.0"/>
      <point x="332.0" y="448.3333333333333"/>
      <point x="297.3333333333333" y="477.0" type="curve"/>
      <point x="346.0" y="480.3333333333333"/>
      <point x="394.0" y="489.3333333333333"/>
      <point x="432.6666666666667" y="497.3333333333333" type="curve" smooth="yes"/>
      <point x="465.6666666666667" y="505.3333333333333"/>
      <point x="501.0" y="523.0"/>
      <point x="491.3333333333333" y="558.6666666666666" type="curve" smooth="yes"/>
      <point x="481.3333333333333" y="592.6666666666666"/>
      <point x="440.0" y="586.0"/>
      <point x="408.6666666666667" y="572.3333333333334" type="curve" smooth="yes"/>
      <point x="372.0" y="556.0"/>
      <point x="329.0" y="536.6666666666666"/>
      <point x="287.6666666666667" y="511.3333333333333" type="curve"/>
      <point x="302.6666666666667" y="557.0"/>
      <point x="311.0" y="605.0"/>
      <point x="316.6666666666667" y="644.3333333333334" type="curve" smooth="yes"/>
      <point x="320.6666666666667" y="676.3333333333334"/>
      <point x="318.3333333333333" y="716.0"/>
    </contour>
  </outline>
</glyph>
<glyph name="plus" format="2">
  <advance width="530.0"/>
  <unicode hex="002B"/>
  <outline>
    <contour>
      <point x="49.333333333333336" y="393.0" type="line"/>
      <point x="46.0" y="333.6666666666667" type="line"/>
      <point x="492.0" y="333.6666666666667" type="line"/>
      <point x="495.3333333333333" y="393.0" type="line"/>
    </contour>
    <contour>
      <point x="312.0" y="583.0" type="line"/>
      <point x="252.66666666666666" y="583.0" type="line"/>
      <point x="228.66666666666666" y="137.0" type="line"/>
      <point x="288.0" y="137.0" type="line"/>
    </contour>
  </outline>
</glyph>
<glyph name="comma" format="2">
  <advance width="241.0"/>
  <unicode hex="002C"/>
  <outline>
    <contour>
      <point x="100.33333333333333" y="111.0" type="curve" smooth="yes"/>
      <point x="65.33333333333333" y="111.0"/>
      <point x="38.333333333333336" y="86.0"/>
      <point x="37.666666666666664" y="48.666666666666664" type="curve" smooth="yes"/>
      <point x="37.0" y="17.333333333333332"/>
      <point x="60.333333333333336" y="-4.0"/>
      <point x="89.0" y="-4.0" type="curve" smooth="yes"/>
      <point x="98.0" y="-4.0"/>
      <point x="104.66666666666667" y="-2.6666666666666665"/>
      <point x="112.66666666666667" y="-0.3333333333333333" type="curve"/>
      <point x="112.33333333333333" y="-55.0"/>
      <point x="83.66666666666667" y="-123.33333333333333"/>
      <point x="53.666666666666664" y="-159.0" type="curve"/>
      <point x="82.66666666666667" y="-181.66666666666666" type="line"/>
      <point x="141.33333333333334" y="-114.66666666666667"/>
      <point x="170.66666666666666" y="-30.666666666666668"/>
      <point x="171.66666666666666" y="24.0" type="curve" smooth="yes"/>
      <point x="172.66666666666666" y="74.0"/>
      <point x="147.66666666666666" y="111.33333333333333"/>
    </contour>
  </outline>
</glyph>
<glyph name="hyphen" format="2">
  <advance width="479.6666666666667"/>
  <unicode hex="002D"/>
  <outline>
    <contour>
      <point x="422.0" y="357.3333333333333" type="line"/>
      <point x="62.666666666666664" y="357.3333333333333" type="line"/>
      <point x="58.666666666666664" y="278.3333333333333" type="line"/>
      <point x="418.0" y="282.3333333333333" type="line"/>
    </contour>
  </outline>
</glyph>
<glyph name="period" format="2">
  <advance width="232.33333333333334"/>
  <unicode hex="002E"/>
  <outline>
    <contour>
      <point x="105.0" y="120.0" type="curve" smooth="yes"/>
      <point x="71.33333333333333" y="120.0"/>
      <point x="40.0" y="89.66666666666667"/>
      <point x="38.0" y="52.0" type="curve" smooth="yes"/>
      <point x="36.666666666666664" y="13.666666666666666"/>
      <point x="62.0" y="-16.0"/>
      <point x="97.33333333333333" y="-16.0" type="curve" smooth="yes"/>
      <point x="131.66666666666666" y="-16.0"/>
      <point x="161.0" y="13.666666666666666"/>
      <point x="162.33333333333334" y="52.0" type="curve" smooth="yes"/>
      <point x="164.33333333333334" y="89.66666666666667"/>
      <point x="140.0" y="120.0"/>
    </contour>
  </outline>
</glyph>
<glyph name="slash" format="2">
  <advance width="657.6666666666666"/>
  <unicode hex="002F"/>
  <outline>
    <contour>
      <point x="602.0" y="758.3333333333334" type="line"/>
      <point x="-18.666666666666668" y="-232.0" type="line"/>
      <point x="36.333333333333336" y="-271.0" type="line"/>
      <point x="667.0" y="714.3333333333334" type="line"/>
    </contour>
  </outline>
</glyph>
<glyph name="zero" format="2">
  <advance width="606.3333333333334"/>
  <unicode hex="0030"/>
  <outline>
    <contour>
      <point x="326.3333333333333" y="716.0" type="curve" smooth="yes"/>
      <point x="143.66666666666666" y="716.0"/>
      <point x="58.666666666666664" y="517.0"/>
      <point x="50.333333333333336" y="349.0" type="curve" smooth="yes"/>
      <point x="41.333333333333336" y="182.0"/>
      <point x="89.66666666666667" y="-16.0"/>
      <point x="290.0" y="-16.0" type="curve" smooth="yes"/>
      <point x="472.6666666666667" y="-16.0"/>
      <point x="554.6666666666666" y="184.66666666666666"/>
      <point x="563.3333333333334" y="350.6666666666667" type="curve" smooth="yes"/>
      <point x="571.6666666666666" y="517.6666666666666"/>
      <point x="517.0" y="716.0"/>
    </contour>
    <contour>
      <point x="325.6666666666667" y="668.0" type="curve" smooth="yes"/>
      <point x="439.0" y="668.0"/>
      <point x="457.0" y="493.0"/>
      <point x="448.6666666666667" y="331.0" type="curve" smooth="yes"/>
      <point x="441.0" y="184.0"/>
      <point x="403.6666666666667" y="32.666666666666664"/>
      <point x="296.0" y="32.666666666666664" type="curve" smooth="yes"/>
      <point x="172.0" y="32.666666666666664"/>
      <point x="157.33333333333334" y="229.0"/>
      <point x="164.33333333333334" y="368.0" type="curve" smooth="yes"/>
      <point x="172.33333333333334" y="517.0"/>
      <point x="217.66666666666666" y="668.0"/>
    </contour>
  </outline>
</glyph>
<glyph name="one" format="2">
  <advance width="368.3333333333333"/>
  <unicode hex="0031"/>
  <outline>
    <contour>
      <point x="277.6666666666667" y="716.0" type="line"/>
      <point x="234.66666666666666" y="716.0" type="line"/>
      <point x="26.333333333333336" y="564.3333333333334" type="line"/>
      <point x="49.0" y="524.3333333333334" type="line"/>
      <point x="168.0" y="597.3333333333334" type="line"/>
      <point x="147.66666666666666" y="149.0" type="line" smooth="yes"/>
      <point x="144.33333333333334" y="76.0"/>
      <point x="121.33333333333333" y="46.666666666666664"/>
      <point x="60.333333333333336" y="44.0" type="curve"/>
      <point x="58.666666666666664" y="0.0" type="line"/>
      <point x="318.6666666666667" y="0.0" type="line"/>
      <point x="321.3333333333333" y="55.0" type="line"/>
      <point x="298.0" y="54.33333333333333"/>
      <point x="266.0" y="52.666666666666664"/>
      <point x="240.33333333333334" y="51.33333333333333" type="curve"/>
      <point x="244.0" y="69.66666666666667"/>
      <point x="246.0" y="98.0"/>
      <point x="247.33333333333334" y="127.33333333333333" type="curve" smooth="yes"/>
    </contour>
  </outline>
</glyph>
<glyph name="two" format="2">
  <advance width="524.0"/>
  <unicode hex="0032"/>
  <outline>
    <contour>
      <point x="276.3333333333333" y="716.0" type="curve" smooth="yes"/>
      <point x="137.33333333333334" y="716.0"/>
      <point x="57.333333333333336" y="626.6666666666666"/>
      <point x="56.333333333333336" y="564.0" type="curve" smooth="yes"/>
      <point x="55.666666666666664" y="531.0"/>
      <point x="75.66666666666667" y="506.6666666666667"/>
      <point x="107.33333333333333" y="506.3333333333333" type="curve" smooth="yes"/>
      <point x="143.33333333333334" y="506.0"/>
      <point x="162.33333333333334" y="533.6666666666666"/>
      <point x="163.0" y="558.3333333333334" type="curve" smooth="yes"/>
      <point x="163.33333333333334" y="571.6666666666666"/>
      <point x="159.66666666666666" y="591.3333333333334"/>
      <point x="147.33333333333334" y="605.0" type="curve"/>
      <point x="163.66666666666666" y="639.0"/>
      <point x="206.0" y="666.3333333333334"/>
      <point x="254.66666666666666" y="666.3333333333334" type="curve" smooth="yes"/>
      <point x="343.3333333333333" y="666.6666666666666"/>
      <point x="367.6666666666667" y="595.3333333333334"/>
      <point x="364.0" y="519.6666666666666" type="curve" smooth="yes"/>
      <point x="360.6666666666667" y="452.3333333333333"/>
      <point x="308.6666666666667" y="374.3333333333333"/>
      <point x="223.0" y="297.6666666666667" type="curve" smooth="yes"/>
      <point x="125.66666666666667" y="211.33333333333334"/>
      <point x="31.333333333333332" y="140.33333333333334"/>
      <point x="24.333333333333332" y="0.0" type="curve"/>
      <point x="458.3333333333333" y="0.0" type="line"/>
      <point x="473.0" y="146.33333333333334" type="line"/>
      <point x="431.3333333333333" y="146.33333333333334" type="line"/>
      <point x="427.6666666666667" y="75.66666666666667"/>
      <point x="371.0" y="76.0"/>
      <point x="291.0" y="78.66666666666667" type="curve" smooth="yes"/>
      <point x="109.66666666666667" y="83.66666666666667" type="line"/>
      <point x="121.66666666666667" y="131.0"/>
      <point x="174.66666666666666" y="190.0"/>
      <point x="263.3333333333333" y="258.0" type="curve" smooth="yes"/>
      <point x="425.6666666666667" y="384.0"/>
      <point x="475.3333333333333" y="464.3333333333333"/>
      <point x="479.3333333333333" y="532.3333333333334" type="curve" smooth="yes"/>
      <point x="486.3333333333333" y="669.0"/>
      <point x="382.6666666666667" y="716.0"/>
    </contour>
  </outline>
</glyph>
<glyph name="three" format="2">
  <advance width="545.3333333333334"/>
  <unicode hex="0033"/>
  <outline>
    <contour>
      <point x="233.66666666666666" y="-16.0" type="curve" smooth="yes"/>
      <point x="370.0" y="-16.0"/>
      <point x="491.0" y="59.0"/>
      <point x="498.0" y="195.33333333333334" type="curve" smooth="yes"/>
      <point x="502.6666666666667" y="286.3333333333333"/>
      <point x="442.0" y="362.6666666666667"/>
      <point x="314.6666666666667" y="378.0" type="curve"/>
      <point x="428.3333333333333" y="404.6666666666667"/>
      <point x="477.0" y="481.3333333333333"/>
      <point x="480.0" y="541.6666666666666" type="curve" smooth="yes"/>
      <point x="487.0" y="669.0"/>
      <point x="392.3333333333333" y="716.0"/>
      <point x="280.3333333333333" y="716.0" type="curve" smooth="yes"/>
      <point x="141.33333333333334" y="716.0"/>
      <point x="66.66666666666667" y="625.0"/>
      <point x="65.66666666666667" y="565.0" type="curve" smooth="yes"/>
      <point x="65.0" y="533.3333333333334"/>
      <point x="84.66666666666667" y="510.6666666666667"/>
      <point x="115.0" y="510.3333333333333" type="curve" smooth="yes"/>
      <point x="148.0" y="509.6666666666667"/>
      <point x="166.66666666666666" y="537.0"/>
      <point x="167.0" y="560.3333333333334" type="curve" smooth="yes"/>
      <point x="167.33333333333334" y="571.6666666666666"/>
      <point x="165.33333333333334" y="589.0"/>
      <point x="154.66666666666666" y="602.6666666666666" type="curve"/>
      <point x="164.0" y="631.6666666666666"/>
      <point x="209.66666666666666" y="666.6666666666666"/>
      <point x="263.0" y="666.6666666666666" type="curve" smooth="yes"/>
      <point x="350.0" y="666.6666666666666"/>
      <point x="373.6666666666667" y="608.3333333333334"/>
      <point x="369.3333333333333" y="530.6666666666666" type="curve" smooth="yes"/>
      <point x="365.6666666666667" y="470.0"/>
      <point x="322.0" y="395.6666666666667"/>
      <point x="222.66666666666666" y="395.6666666666667" type="curve" smooth="yes"/>
      <point x="209.66666666666666" y="395.6666666666667"/>
      <point x="198.33333333333334" y="395.6666666666667"/>
      <point x="185.33333333333334" y="396.0" type="curve"/>
      <point x="183.0" y="342.0" type="line"/>
      <point x="201.0" y="343.0"/>
      <point x="223.33333333333334" y="344.3333333333333"/>
      <point x="244.33333333333334" y="344.3333333333333" type="curve" smooth="yes"/>
      <point x="365.3333333333333" y="345.0"/>
      <point x="385.6666666666667" y="249.66666666666666"/>
      <point x="382.3333333333333" y="188.33333333333334" type="curve" smooth="yes"/>
      <point x="377.6666666666667" y="97.33333333333333"/>
      <point x="322.3333333333333" y="37.0"/>
      <point x="228.0" y="37.0" type="curve" smooth="yes"/>
      <point x="181.0" y="37.0"/>
      <point x="131.33333333333334" y="55.33333333333333"/>
      <point x="119.33333333333333" y="93.66666666666667" type="curve"/>
      <point x="130.33333333333334" y="106.33333333333333"/>
      <point x="134.33333333333334" y="123.33333333333333"/>
      <point x="134.66666666666666" y="135.66666666666666" type="curve" smooth="yes"/>
      <point x="135.0" y="159.66666666666666"/>
      <point x="118.66666666666667" y="187.33333333333334"/>
      <point x="84.0" y="187.0" type="curve" smooth="yes"/>
      <point x="52.333333333333336" y="186.66666666666666"/>
      <point x="29.333333333333332" y="162.33333333333334"/>
      <point x="27.666666666666668" y="129.0" type="curve" smooth="yes"/>
      <point x="23.0" y="63.333333333333336"/>
      <point x="87.66666666666667" y="-16.0"/>
    </contour>
  </outline>
</glyph>
<glyph name="four" format="2">
  <advance width="529.0"/>
  <unicode hex="0034"/>
  <outline>
    <contour>
      <point x="200.66666666666666" y="0.0" type="line"/>
      <point x="456.6666666666667" y="0.0" type="line"/>
      <point x="460.0" y="53.0" type="line"/>
      <point x="382.3333333333333" y="50.0" type="line"/>
      <point x="388.3333333333333" y="69.0"/>
      <point x="389.6666666666667" y="89.66666666666667"/>
      <point x="390.6666666666667" y="116.33333333333333" type="curve"/>
      <point x="394.0" y="189.0" type="line"/>
      <point x="492.6666666666667" y="189.0" type="line"/>
      <point x="496.3333333333333" y="256.3333333333333" type="line"/>
      <point x="397.0" y="257.0" type="line"/>
      <point x="418.3333333333333" y="716.0" type="line"/>
      <point x="375.3333333333333" y="716.0" type="line"/>
      <point x="5.0" y="253.0" type="line"/>
      <point x="2.0" y="189.0" type="line"/>
      <point x="292.6666666666667" y="189.0" type="line"/>
      <point x="291.0" y="157.0" type="line" smooth="yes"/>
      <point x="287.0" y="68.0"/>
      <point x="262.0" y="47.33333333333333"/>
      <point x="203.0" y="44.0" type="curve"/>
    </contour>
    <contour>
      <point x="296.3333333333333" y="258.3333333333333" type="line"/>
      <point x="77.66666666666667" y="261.3333333333333" type="line"/>
      <point x="310.3333333333333" y="549.3333333333334" type="line"/>
      <point x="312.0" y="549.3333333333334" type="line"/>
    </contour>
  </outline>
</glyph>
<glyph name="five" format="2">
  <advance width="525.0"/>
  <unicode hex="0035"/>
  <outline>
    <contour>
      <point x="484.0" y="765.0" type="line"/>
      <point x="445.6666666666667" y="765.0" type="line"/>
      <point x="443.3333333333333" y="716.3333333333334"/>
      <point x="414.3333333333333" y="700.0"/>
      <point x="349.3333333333333" y="700.0" type="curve" smooth="yes"/>
      <point x="103.66666666666667" y="700.0" type="line"/>
      <point x="78.33333333333333" y="375.3333333333333" type="line"/>
      <point x="110.0" y="347.6666666666667" type="line"/>
      <point x="152.66666666666666" y="373.6666666666667"/>
      <point x="199.33333333333334" y="382.6666666666667"/>
      <point x="230.66666666666666" y="382.6666666666667" type="curve" smooth="yes"/>
      <point x="363.0" y="382.6666666666667"/>
      <point x="370.3333333333333" y="263.0"/>
      <point x="366.3333333333333" y="193.0" type="curve" smooth="yes"/>
      <point x="364.0" y="113.33333333333333"/>
      <point x="318.3333333333333" y="37.0"/>
      <point x="227.0" y="33.666666666666664" type="curve" smooth="yes"/>
      <point x="186.33333333333334" y="32.33333333333333"/>
      <point x="130.33333333333334" y="51.0"/>
      <point x="127.0" y="92.0" type="curve"/>
      <point x="136.66666666666666" y="104.33333333333333"/>
      <point x="140.66666666666666" y="121.33333333333333"/>
      <point x="141.0" y="133.0" type="curve" smooth="yes"/>
      <point x="141.33333333333334" y="157.33333333333334"/>
      <point x="125.33333333333333" y="184.33333333333334"/>
      <point x="90.0" y="183.66666666666666" type="curve" smooth="yes"/>
      <point x="59.0" y="183.33333333333334"/>
      <point x="35.666666666666664" y="158.66666666666666"/>
      <point x="33.666666666666664" y="125.66666666666667" type="curve" smooth="yes"/>
      <point x="28.666666666666668" y="59.0"/>
      <point x="95.33333333333333" y="-16.0"/>
      <point x="224.33333333333334" y="-16.0" type="curve" smooth="yes"/>
      <point x="354.3333333333333" y="-16.0"/>
      <point x="475.3333333333333" y="61.666666666666664"/>
      <point x="483.6666666666667" y="212.0" type="curve" smooth="yes"/>
      <point x="488.6666666666667" y="323.6666666666667"/>
      <point x="429.6666666666667" y="437.0"/>
      <point x="265.3333333333333" y="437.0" type="curve" smooth="yes"/>
      <point x="213.33333333333334" y="437.0"/>
      <point x="164.0" y="424.6666666666667"/>
      <point x="133.0" y="411.6666666666667" type="curve"/>
      <point x="154.66666666666666" y="618.3333333333334" type="line"/>
      <point x="468.6666666666667" y="625.0" type="line"/>
    </contour>
  </outline>
</glyph>
<glyph name="six" format="2">
  <advance width="556.0"/>
  <unicode hex="0036"/>
  <outline>
    <contour>
      <point x="334.3333333333333" y="716.0" type="curve" smooth="yes"/>
      <point x="107.0" y="713.3333333333334"/>
      <point x="57.666666666666664" y="445.3333333333333"/>
      <point x="50.666666666666664" y="327.3333333333333" type="curve" smooth="yes"/>
      <point x="37.333333333333336" y="117.0"/>
      <point x="91.0" y="-16.0"/>
      <point x="264.0" y="-16.0" type="curve" smooth="yes"/>
      <point x="400.6666666666667" y="-16.0"/>
      <point x="502.0" y="88.33333333333333"/>
      <point x="508.3333333333333" y="213.66666666666666" type="curve"/>
      <point x="514.6666666666666" y="326.6666666666667"/>
      <point x="468.6666666666667" y="441.3333333333333"/>
      <point x="313.0" y="440.0" type="curve" smooth="yes"/>
      <point x="246.33333333333334" y="439.3333333333333"/>
      <point x="189.33333333333334" y="403.6666666666667"/>
      <point x="158.66666666666666" y="366.0" type="curve"/>
      <point x="166.66666666666666" y="465.3333333333333"/>
      <point x="199.33333333333334" y="663.3333333333334"/>
      <point x="333.0" y="667.3333333333334" type="curve" smooth="yes"/>
      <point x="380.0" y="669.3333333333334"/>
      <point x="408.6666666666667" y="643.3333333333334"/>
      <point x="416.0" y="622.6666666666666" type="curve"/>
      <point x="406.0" y="611.0"/>
      <point x="402.0" y="593.6666666666666"/>
      <point x="401.6666666666667" y="582.6666666666666" type="curve" smooth="yes"/>
      <point x="401.3333333333333" y="558.3333333333334"/>
      <point x="416.6666666666667" y="533.0"/>
      <point x="452.0" y="533.0" type="curve" smooth="yes"/>
      <point x="482.3333333333333" y="533.0"/>
      <point x="503.0" y="557.3333333333334"/>
      <point x="505.0" y="588.0" type="curve" smooth="yes"/>
      <point x="508.6666666666667" y="642.3333333333334"/>
      <point x="455.6666666666667" y="717.3333333333334"/>
    </contour>
    <contour>
      <point x="290.0" y="384.0" type="curve" smooth="yes"/>
      <point x="392.3333333333333" y="384.0"/>
      <point x="399.3333333333333" y="260.6666666666667"/>
      <point x="395.6666666666667" y="190.66666666666666" type="curve"/>
      <point x="391.6666666666667" y="109.0"/>
      <point x="353.6666666666667" y="33.33333333333333"/>
      <point x="267.6666666666667" y="33.33333333333333" type="curve" smooth="yes"/>
      <point x="172.33333333333334" y="33.33333333333333"/>
      <point x="150.66666666666666" y="172.33333333333334"/>
      <point x="153.66666666666666" y="287.3333333333333" type="curve"/>
      <point x="175.0" y="338.0"/>
      <point x="234.0" y="384.0"/>
    </contour>
  </outline>
</glyph>
<glyph name="seven" format="2">
  <advance width="454.6666666666667"/>
  <unicode hex="0037"/>
  <outline>
    <contour>
      <point x="178.33333333333334" y="-16.0" type="curve" smooth="yes"/>
      <point x="214.33333333333334" y="-17.333333333333332"/>
      <point x="231.0" y="16.333333333333332"/>
      <point x="241.33333333333334" y="50.666666666666664" type="curve" smooth="yes"/>
      <point x="310.6666666666667" y="278.0"/>
      <point x="352.3333333333333" y="431.6666666666667"/>
      <point x="457.3333333333333" y="625.6666666666666" type="curve"/>
      <point x="461.0" y="700.0" type="line"/>
      <point x="40.0" y="700.0" type="line"/>
      <point x="29.666666666666668" y="548.6666666666666" type="line"/>
      <point x="66.66666666666667" y="548.6666666666666" type="line"/>
      <point x="69.66666666666667" y="604.0"/>
      <point x="101.33333333333333" y="621.3333333333334"/>
      <point x="152.33333333333334" y="621.6666666666666" type="curve" smooth="yes"/>
      <point x="398.6666666666667" y="621.6666666666666" type="line"/>
      <point x="323.6666666666667" y="472.3333333333333"/>
      <point x="255.66666666666666" y="321.0"/>
      <point x="214.33333333333334" y="232.0" type="curve" smooth="yes"/>
      <point x="172.66666666666666" y="142.33333333333334"/>
      <point x="138.33333333333334" y="70.33333333333333"/>
      <point x="137.0" y="32.333333333333336" type="curve" smooth="yes"/>
      <point x="136.33333333333334" y="7.0"/>
      <point x="147.33333333333334" y="-14.666666666666666"/>
    </contour>
  </outline>
</glyph>
<glyph name="eight" format="2">
  <advance width="563.3333333333334"/>
  <unicode hex="0038"/>
  <outline>
    <contour>
      <point x="267.6666666666667" y="-16.0" type="curve" smooth="yes"/>
      <point x="389.6666666666667" y="-16.0"/>
      <point x="501.3333333333333" y="41.333333333333336"/>
      <point x="507.6666666666667" y="168.66666666666666" type="curve" smooth="yes"/>
      <point x="512.0" y="260.0"/>
      <point x="451.6666666666667" y="312.6666666666667"/>
      <point x="361.0" y="379.3333333333333" type="curve"/>
      <point x="428.0" y="415.0"/>
      <point x="495.0" y="480.3333333333333"/>
      <point x="499.0" y="553.3333333333334" type="curve" smooth="yes"/>
      <point x="504.0" y="659.3333333333334"/>
      <point x="408.3333333333333" y="716.0"/>
      <point x="306.3333333333333" y="716.0" type="curve" smooth="yes"/>
      <point x="204.66666666666666" y="716.0"/>
      <point x="89.0" y="658.6666666666666"/>
      <point x="82.0" y="531.0" type="curve" smooth="yes"/>
      <point x="79.0" y="474.3333333333333"/>
      <point x="118.0" y="410.3333333333333"/>
      <point x="206.0" y="355.6666666666667" type="curve"/>
      <point x="128.0" y="310.3333333333333"/>
      <point x="57.333333333333336" y="237.33333333333334"/>
      <point x="52.666666666666664" y="154.0" type="curve"/>
      <point x="46.333333333333336" y="26.0"/>
      <point x="161.0" y="-16.0"/>
    </contour>
    <contour>
      <point x="272.0" y="34.0" type="curve" smooth="yes"/>
      <point x="191.0" y="34.33333333333333"/>
      <point x="143.33333333333334" y="85.0"/>
      <point x="149.0" y="166.66666666666666" type="curve" smooth="yes"/>
      <point x="152.0" y="212.66666666666666"/>
      <point x="179.66666666666666" y="281.6666666666667"/>
      <point x="250.66666666666666" y="331.0" type="curve"/>
      <point x="358.3333333333333" y="264.3333333333333"/>
      <point x="404.0" y="232.33333333333334"/>
      <point x="398.0" y="149.0" type="curve" smooth="yes"/>
      <point x="393.0" y="82.66666666666667"/>
      <point x="344.0" y="33.666666666666664"/>
    </contour>
    <contour>
      <point x="316.0" y="405.3333333333333" type="curve"/>
      <point x="231.33333333333334" y="440.3333333333333"/>
      <point x="184.0" y="495.6666666666667"/>
      <point x="187.66666666666666" y="555.0" type="curve" smooth="yes"/>
      <point x="190.66666666666666" y="613.3333333333334"/>
      <point x="235.66666666666666" y="666.6666666666666"/>
      <point x="307.6666666666667" y="666.6666666666666" type="curve" smooth="yes"/>
      <point x="372.0" y="666.6666666666666"/>
      <point x="417.3333333333333" y="623.6666666666666"/>
      <point x="412.0" y="544.6666666666666" type="curve" smooth="yes"/>
      <point x="409.3333333333333" y="501.6666666666667"/>
      <point x="373.3333333333333" y="443.6666666666667"/>
    </contour>
  </outline>
</glyph>
<glyph name="nine" format="2">
  <advance width="555.0"/>
  <unicode hex="0039"/>
  <outline>
    <contour>
      <point x="295.0" y="716.0" type="curve"/>
      <point x="151.33333333333334" y="718.0"/>
      <point x="62.666666666666664" y="615.6666666666666"/>
      <point x="55.333333333333336" y="487.6666666666667" type="curve"/>
      <point x="49.666666666666664" y="375.0"/>
      <point x="92.66666666666667" y="259.3333333333333"/>
      <point x="248.33333333333334" y="260.6666666666667" type="curve" smooth="yes"/>
      <point x="317.0" y="261.3333333333333"/>
      <point x="373.0" y="298.0"/>
      <point x="404.0" y="335.6666666666667" type="curve"/>
      <point x="400.3333333333333" y="218.66666666666666"/>
      <point x="365.6666666666667" y="35.0"/>
      <point x="234.0" y="33.0" type="curve" smooth="yes"/>
      <point x="179.0" y="32.33333333333333"/>
      <point x="156.33333333333334" y="60.333333333333336"/>
      <point x="147.66666666666666" y="83.0" type="curve"/>
      <point x="158.66666666666666" y="92.66666666666667"/>
      <point x="164.33333333333334" y="112.33333333333333"/>
      <point x="164.66666666666666" y="124.0" type="curve" smooth="yes"/>
      <point x="165.0" y="147.66666666666666"/>
      <point x="150.33333333333334" y="173.66666666666666"/>
      <point x="115.66666666666667" y="173.66666666666666" type="curve" smooth="yes"/>
      <point x="84.66666666666667" y="173.66666666666666"/>
      <point x="62.666666666666664" y="148.33333333333334"/>
      <point x="60.666666666666664" y="117.66666666666667" type="curve" smooth="yes"/>
      <point x="56.0" y="53.333333333333336"/>
      <point x="108.0" y="-16.0"/>
      <point x="233.0" y="-16.0" type="curve" smooth="yes"/>
      <point x="460.3333333333333" y="-16.0"/>
      <point x="504.0" y="220.33333333333334"/>
      <point x="510.3333333333333" y="367.3333333333333" type="curve" smooth="yes"/>
      <point x="519.0" y="559.6666666666666"/>
      <point x="472.3333333333333" y="714.6666666666666"/>
    </contour>
    <contour>
      <point x="287.3333333333333" y="667.3333333333334" type="curve" smooth="yes"/>
      <point x="386.3333333333333" y="667.3333333333334"/>
      <point x="408.0" y="542.0"/>
      <point x="406.0" y="410.6666666666667" type="curve"/>
      <point x="385.0" y="360.6666666666667"/>
      <point x="329.0" y="317.3333333333333"/>
      <point x="274.3333333333333" y="317.3333333333333" type="curve" smooth="yes"/>
      <point x="172.0" y="317.3333333333333"/>
      <point x="162.33333333333334" y="440.0"/>
      <point x="166.33333333333334" y="510.0" type="curve" smooth="yes"/>
      <point x="170.0" y="591.6666666666666"/>
      <point x="210.0" y="667.3333333333334"/>
    </contour>
  </outline>
</glyph>
<glyph name="equal" format="2">
  <advance width="530.0"/>
  <unicode hex="003D"/>
  <outline>
    <contour>
      <point x="53.666666666666664" y="474.3333333333333" type="line"/>
      <point x="51.0" y="415.0" type="line"/>
      <point x="497.0" y="415.0" type="line"/>
      <point x="499.6666666666667" y="474.3333333333333" type="line"/>
    </contour>
    <contour>
      <point x="45.0" y="315.0" type="line"/>
      <point x="42.333333333333336" y="255.66666666666666" type="line"/>
      <point x="488.3333333333333" y="255.66666666666666" type="line"/>
      <point x="491.0" y="315.0" type="line"/>
    </contour>
  </outline>
</glyph>
<glyph name="question" format="2">
  <advance width="477.0"/>
  <unicode hex="003F"/>
  <outline>
    <contour>
      <point x="223.0" y="185.66666666666666" type="curve" smooth="yes"/>
      <point x="250.66666666666666" y="185.66666666666666"/>
      <point x="283.6666666666667" y="190.66666666666666"/>
      <point x="309.6666666666667" y="205.0" type="curve"/>
      <point x="298.6666666666667" y="245.33333333333334" type="line"/>
      <point x="286.0" y="241.0"/>
      <point x="272.0" y="239.33333333333334"/>
      <point x="262.6666666666667" y="239.33333333333334" type="curve" smooth="yes"/>
      <point x="232.66666666666666" y="239.33333333333334"/>
      <point x="222.66666666666666" y="255.0"/>
      <point x="223.66666666666666" y="271.3333333333333" type="curve" smooth="yes"/>
      <point x="227.66666666666666" y="337.3333333333333"/>
      <point x="440.6666666666667" y="409.3333333333333"/>
      <point x="453.3333333333333" y="547.0" type="curve" smooth="yes"/>
      <point x="461.3333333333333" y="629.0"/>
      <point x="416.0" y="716.0"/>
      <point x="260.6666666666667" y="716.0" type="curve" smooth="yes"/>
      <point x="136.66666666666666" y="716.0"/>
      <point x="50.333333333333336" y="634.3333333333334"/>
      <point x="49.0" y="570.6666666666666" type="curve" smooth="yes"/>
      <point x="48.333333333333336" y="538.0"/>
      <point x="68.33333333333333" y="515.0"/>
      <point x="100.0" y="514.3333333333334" type="curve" smooth="yes"/>
      <point x="133.66666666666666" y="513.3333333333334"/>
      <point x="153.33333333333334" y="540.3333333333334"/>
      <point x="154.33333333333334" y="565.3333333333334" type="curve" smooth="yes"/>
      <point x="155.0" y="578.0"/>
      <point x="151.33333333333334" y="598.3333333333334"/>
      <point x="139.0" y="609.3333333333334" type="curve"/>
      <point x="148.0" y="635.0"/>
      <point x="192.0" y="666.6666666666666"/>
      <point x="241.66666666666666" y="666.6666666666666" type="curve" smooth="yes"/>
      <point x="326.0" y="666.6666666666666"/>
      <point x="350.0" y="611.0"/>
      <point x="345.0" y="541.6666666666666" type="curve" smooth="yes"/>
      <point x="339.6666666666667" y="463.0"/>
      <point x="289.0" y="415.0"/>
      <point x="237.33333333333334" y="371.0" type="curve" smooth="yes"/>
      <point x="182.33333333333334" y="322.6666666666667"/>
      <point x="147.33333333333334" y="293.0"/>
      <point x="144.66666666666666" y="253.33333333333334" type="curve" smooth="yes"/>
      <point x="143.0" y="204.0"/>
      <point x="192.0" y="185.66666666666666"/>
    </contour>
    <contour>
      <point x="218.33333333333334" y="-16.0" type="curve" smooth="yes"/>
      <point x="251.66666666666666" y="-16.0"/>
      <point x="280.6666666666667" y="13.0"/>
      <point x="282.0" y="49.333333333333336" type="curve" smooth="yes"/>
      <point x="284.0" y="85.0"/>
      <point x="259.6666666666667" y="114.66666666666667"/>
      <point x="226.0" y="114.66666666666667" type="curve" smooth="yes"/>
      <point x="194.33333333333334" y="114.66666666666667"/>
      <point x="163.66666666666666" y="85.0"/>
      <point x="161.66666666666666" y="49.333333333333336" type="curve" smooth="yes"/>
      <point x="160.33333333333334" y="10.333333333333332"/>
      <point x="186.66666666666666" y="-16.0"/>
    </contour>
  </outline>
</glyph>
<glyph name="at" format="2">
  <advance width="783.6666666666666"/>
  <unicode hex="0040"/>
  <outline>
    <contour>
      <point x="414.0" y="636.3333333333334" type="curve" smooth="yes"/>
      <point x="174.66666666666666" y="627.6666666666666"/>
      <point x="47.666666666666664" y="425.3333333333333"/>
      <point x="39.0" y="256.6666666666667" type="curve" smooth="yes"/>
      <point x="29.0" y="65.0"/>
      <point x="142.66666666666666" y="-101.33333333333333"/>
      <point x="388.6666666666667" y="-96.33333333333333" type="curve" smooth="yes"/>
      <point x="493.3333333333333" y="-94.33333333333333"/>
      <point x="588.3333333333334" y="-57.0"/>
      <point x="660.0" y="20.0" type="curve"/>
      <point x="637.6666666666666" y="45.666666666666664" type="line"/>
      <point x="566.3333333333334" y="-33.333333333333336"/>
      <point x="467.0" y="-54.0"/>
      <point x="394.6666666666667" y="-52.666666666666664" type="curve" smooth="yes"/>
      <point x="241.0" y="-50.0"/>
      <point x="102.33333333333333" y="50.666666666666664"/>
      <point x="113.33333333333333" y="262.6666666666667" type="curve" smooth="yes"/>
      <point x="122.33333333333333" y="432.0"/>
      <point x="238.0" y="586.6666666666666"/>
      <point x="405.0" y="595.3333333333334" type="curve" smooth="yes"/>
      <point x="564.6666666666666" y="604.0"/>
      <point x="690.0" y="510.0"/>
      <point x="675.0" y="288.6666666666667" type="curve" smooth="yes"/>
      <point x="667.0" y="187.0"/>
      <point x="614.3333333333334" y="98.33333333333333"/>
      <point x="550.6666666666666" y="106.33333333333333" type="curve" smooth="yes"/>
      <point x="516.3333333333334" y="111.66666666666667"/>
      <point x="511.3333333333333" y="157.66666666666666"/>
      <point x="516.3333333333334" y="202.0" type="curve" smooth="yes"/>
      <point x="522.6666666666666" y="263.0"/>
      <point x="544.6666666666666" y="376.6666666666667"/>
      <point x="561.6666666666666" y="467.3333333333333" type="curve"/>
      <point x="524.3333333333334" y="478.0"/>
      <point x="483.3333333333333" y="483.0"/>
      <point x="453.0" y="483.0" type="curve" smooth="yes"/>
      <point x="301.0" y="483.0"/>
      <point x="216.66666666666666" y="353.6666666666667"/>
      <point x="209.33333333333334" y="213.0" type="curve" smooth="yes"/>
      <point x="204.0" y="113.66666666666667"/>
      <point x="248.66666666666666" y="72.0"/>
      <point x="305.3333333333333" y="72.0" type="curve" smooth="yes"/>
      <point x="361.6666666666667" y="72.0"/>
      <point x="414.0" y="118.0"/>
      <point x="458.3333333333333" y="228.66666666666666" type="curve"/>
      <point x="442.3333333333333" y="143.33333333333334"/>
      <point x="447.3333333333333" y="79.33333333333333"/>
      <point x="524.0" y="67.66666666666667" type="curve" smooth="yes"/>
      <point x="595.6666666666666" y="58.0"/>
      <point x="732.6666666666666" y="118.33333333333333"/>
      <point x="744.0" y="313.0" type="curve" smooth="yes"/>
      <point x="754.0" y="474.6666666666667"/>
      <point x="645.3333333333334" y="645.0"/>
    </contour>
    <contour>
      <point x="428.0" y="446.3333333333333" type="curve" smooth="yes"/>
      <point x="448.6666666666667" y="446.6666666666667"/>
      <point x="468.3333333333333" y="444.3333333333333"/>
      <point x="480.3333333333333" y="439.3333333333333" type="curve"/>
      <point x="471.3333333333333" y="308.0"/>
      <point x="392.3333333333333" y="120.33333333333333"/>
      <point x="327.6666666666667" y="120.33333333333333" type="curve" smooth="yes"/>
      <point x="298.0" y="120.33333333333333"/>
      <point x="282.6666666666667" y="157.66666666666666"/>
      <point x="286.0" y="218.0" type="curve" smooth="yes"/>
      <point x="291.0" y="319.0"/>
      <point x="341.6666666666667" y="444.3333333333333"/>
    </contour>
  </outline>
</glyph>
<glyph name="A" format="2">
  <advance width="643.0"/>
  <unicode hex="0041"/>
  <anchor x="288.0" y="0.0" name="bottom"/>
  <anchor x="570.0" y="0.0" name="ogonek"/>
  <anchor x="330.0" y="701.3333333333334" name="top"/>
  <outline>
    <contour>
      <point x="355.3333333333333" y="718.6666666666666" type="line"/>
      <point x="318.3333333333333" y="718.6666666666666" type="line"/>
      <point x="93.33333333333333" y="166.33333333333334" type="line" smooth="yes"/>
      <point x="64.66666666666667" y="96.33333333333333"/>
      <point x="40.333333333333336" y="45.666666666666664"/>
      <point x="-11.333333333333334" y="45.0" type="curve"/>
      <point x="-13.333333333333334" y="0.0" type="line"/>
      <point x="180.0" y="0.0" type="line"/>
      <point x="183.0" y="56.0" type="line"/>
      <point x="108.33333333333333" y="52.33333333333333" type="line"/>
      <point x="120.66666666666667" y="74.66666666666667"/>
      <point x="130.66666666666666" y="98.0"/>
      <point x="141.0" y="125.33333333333333" type="curve"/>
      <point x="174.0" y="212.33333333333334" type="line"/>
      <point x="417.6666666666667" y="217.66666666666666" type="line"/>
      <point x="442.6666666666667" y="136.66666666666666" type="line" smooth="yes"/>
      <point x="455.3333333333333" y="95.33333333333333"/>
      <point x="462.6666666666667" y="45.33333333333333"/>
      <point x="394.0" y="44.0" type="curve"/>
      <point x="392.0" y="0.0" type="line"/>
      <point x="626.0" y="0.0" type="line"/>
      <point x="628.3333333333334" y="55.0" type="line"/>
      <point x="566.0" y="51.33333333333333" type="line"/>
      <point x="567.3333333333334" y="81.33333333333333"/>
      <point x="553.0" y="132.33333333333334"/>
      <point x="544.3333333333334" y="157.66666666666666" type="curve" smooth="yes"/>
    </contour>
    <contour>
      <point x="309.6666666666667" y="567.3333333333334" type="curve"/>
      <point x="320.3333333333333" y="527.6666666666666"/>
      <point x="333.3333333333333" y="483.6666666666667"/>
      <point x="346.6666666666667" y="441.0" type="curve" smooth="yes"/>
      <point x="403.0" y="266.0" type="line"/>
      <point x="194.33333333333334" y="266.0" type="line"/>
      <point x="264.6666666666667" y="448.6666666666667" type="line"/>
      <point x="283.0" y="494.0"/>
      <point x="297.6666666666667" y="535.0"/>
    </contour>
  </outline>
</glyph>
<glyph name="B" format="2">
  <advance width="632.3333333333334"/>
  <unicode hex="0042"/>
  <outline>
    <contour>
      <point x="315.6666666666667" y="702.0" type="curve" smooth="yes"/>
      <point x="231.66666666666666" y="701.6666666666666"/>
      <point x="154.66666666666666" y="700.3333333333334"/>
      <point x="75.33333333333333" y="700.0" type="curve"/>
      <point x="72.0" y="645.0" type="line"/>
      <point x="92.66666666666667" y="646.0"/>
      <point x="122.66666666666667" y="647.6666666666666"/>
      <point x="145.66666666666666" y="648.6666666666666" type="curve"/>
      <point x="142.66666666666666" y="631.6666666666666"/>
      <point x="139.33333333333334" y="602.0"/>
      <point x="138.0" y="566.0" type="curve" smooth="yes"/>
      <point x="116.66666666666667" y="158.33333333333334" type="line"/>
      <point x="112.66666666666667" y="81.33333333333333"/>
      <point x="105.66666666666667" y="46.0"/>
      <point x="41.0" y="44.0" type="curve"/>
      <point x="38.333333333333336" y="0.0" type="line"/>
      <point x="343.6666666666667" y="0.0" type="line" smooth="yes"/>
      <point x="480.3333333333333" y="0.0"/>
      <point x="583.0" y="71.66666666666667"/>
      <point x="589.3333333333334" y="197.0" type="curve" smooth="yes"/>
      <point x="594.6666666666666" y="293.3333333333333"/>
      <point x="531.0" y="368.3333333333333"/>
      <point x="389.3333333333333" y="375.3333333333333" type="curve"/>
      <point x="389.3333333333333" y="377.0" type="line"/>
      <point x="495.0" y="398.6666666666667"/>
      <point x="547.0" y="464.6666666666667"/>
      <point x="552.0" y="527.3333333333334" type="curve" smooth="yes"/>
      <point x="562.0" y="646.6666666666666"/>
      <point x="472.0" y="702.3333333333334"/>
    </contour>
    <contour>
      <point x="324.6666666666667" y="339.0" type="curve" smooth="yes"/>
      <point x="407.0" y="339.0"/>
      <point x="480.6666666666667" y="303.3333333333333"/>
      <point x="475.0" y="194.0" type="curve" smooth="yes"/>
      <point x="470.3333333333333" y="102.66666666666667"/>
      <point x="409.6666666666667" y="51.33333333333333"/>
      <point x="314.0" y="50.0" type="curve" smooth="yes"/>
      <point x="294.6666666666667" y="49.666666666666664"/>
      <point x="243.0" y="49.0"/>
      <point x="210.66666666666666" y="51.0" type="curve"/>
      <point x="213.66666666666666" y="68.0"/>
      <point x="216.33333333333334" y="96.33333333333333"/>
      <point x="218.33333333333334" y="132.33333333333334" type="curve" smooth="yes"/>
      <point x="229.0" y="336.6666666666667" type="line"/>
      <point x="259.0" y="338.3333333333333"/>
      <point x="287.0" y="339.0"/>
    </contour>
    <contour>
      <point x="315.3333333333333" y="654.6666666666666" type="curve" smooth="yes"/>
      <point x="376.3333333333333" y="655.0"/>
      <point x="447.6666666666667" y="631.6666666666666"/>
      <point x="443.3333333333333" y="533.3333333333334" type="curve" smooth="yes"/>
      <point x="440.3333333333333" y="459.6666666666667"/>
      <point x="402.0" y="392.0"/>
      <point x="297.6666666666667" y="388.0" type="curve" smooth="yes"/>
      <point x="277.3333333333333" y="387.3333333333333"/>
      <point x="254.0" y="386.3333333333333"/>
      <point x="231.66666666666666" y="386.3333333333333" type="curve"/>
      <point x="241.0" y="562.0" type="line" smooth="yes"/>
      <point x="245.0" y="636.3333333333334"/>
      <point x="261.0" y="654.3333333333334"/>
    </contour>
  </outline>
</glyph>
<glyph name="C" format="2">
  <advance width="687.3333333333334"/>
  <unicode hex="0043"/>
  <anchor x="390.6666666666667" y="0.0" name="bottom"/>
  <anchor x="427.0" y="701.3333333333334" name="top"/>
  <outline>
    <contour>
      <point x="410.6666666666667" y="716.0" type="curve" smooth="yes"/>
      <point x="177.66666666666666" y="716.0"/>
      <point x="56.0" y="525.3333333333334"/>
      <point x="46.0" y="339.3333333333333" type="curve"/>
      <point x="36.0" y="140.33333333333334"/>
      <point x="162.0" y="-16.0"/>
      <point x="364.6666666666667" y="-16.0" type="curve" smooth="yes"/>
      <point x="446.3333333333333" y="-16.0"/>
      <point x="565.0" y="10.333333333333334"/>
      <point x="661.0" y="132.66666666666666" type="curve"/>
      <point x="631.3333333333334" y="160.0" type="line"/>
      <point x="570.0" y="81.33333333333333"/>
      <point x="477.6666666666667" y="43.666666666666664"/>
      <point x="393.6666666666667" y="44.0" type="curve" smooth="yes"/>
      <point x="250.0" y="44.33333333333333"/>
      <point x="151.0" y="172.66666666666666"/>
      <point x="160.66666666666666" y="356.0" type="curve"/>
      <point x="170.0" y="534.6666666666666"/>
      <point x="275.0" y="666.3333333333334"/>
      <point x="416.3333333333333" y="666.0" type="curve" smooth="yes"/>
      <point x="524.6666666666666" y="666.0"/>
      <point x="592.6666666666666" y="598.3333333333334"/>
      <point x="601.3333333333334" y="478.0" type="curve"/>
      <point x="647.3333333333334" y="478.0" type="line"/>
      <point x="659.3333333333334" y="709.6666666666666" type="line"/>
      <point x="597.6666666666666" y="709.6666666666666" type="line"/>
      <point x="599.3333333333334" y="659.6666666666666" type="line"/>
      <point x="598.3333333333334" y="659.6666666666666" type="line"/>
      <point x="541.6666666666666" y="697.0"/>
      <point x="478.0" y="716.0"/>
    </contour>
  </outline>
</glyph>
<glyph name="D" format="2">
  <advance width="743.6666666666666"/>
  <unicode hex="0044"/>
  <anchor x="377.0" y="350.6666666666667" name="center"/>
  <anchor x="394.3333333333333" y="701.3333333333334" name="top"/>
  <outline>
    <contour>
      <point x="326.3333333333333" y="701.0" type="curve" smooth="yes"/>
      <point x="75.33333333333333" y="700.0" type="line"/>
      <point x="72.0" y="645.0" type="line"/>
      <point x="93.33333333333333" y="646.0"/>
      <point x="122.66666666666667" y="647.6666666666666"/>
      <point x="146.33333333333334" y="648.6666666666666" type="curve"/>
      <point x="143.33333333333334" y="629.6666666666666"/>
      <point x="140.66666666666666" y="600.6666666666666"/>
      <point x="138.66666666666666" y="570.6666666666666" type="curve" smooth="yes"/>
      <point x="116.0" y="155.0" type="line"/>
      <point x="112.66666666666667" y="80.66666666666667"/>
      <point x="105.66666666666667" y="46.666666666666664"/>
      <point x="41.0" y="44.0" type="curve"/>
      <point x="38.333333333333336" y="0.0" type="line"/>
      <point x="305.6666666666667" y="0.0" type="line" smooth="yes"/>
      <point x="575.6666666666666" y="0.0"/>
      <point x="701.3333333333334" y="185.33333333333334"/>
      <point x="704.3333333333334" y="369.6666666666667" type="curve" smooth="yes"/>
      <point x="707.0" y="573.6666666666666"/>
      <point x="569.0" y="702.0"/>
    </contour>
    <contour>
      <point x="320.3333333333333" y="654.0" type="curve" smooth="yes"/>
      <point x="502.6666666666667" y="652.6666666666666"/>
      <point x="593.6666666666666" y="548.0"/>
      <point x="590.0" y="365.3333333333333" type="curve" smooth="yes"/>
      <point x="588.0" y="193.0"/>
      <point x="482.6666666666667" y="49.666666666666664"/>
      <point x="313.3333333333333" y="49.666666666666664" type="curve" smooth="yes"/>
      <point x="283.3333333333333" y="49.666666666666664"/>
      <point x="246.0" y="50.666666666666664"/>
      <point x="210.33333333333334" y="51.33333333333333" type="curve"/>
      <point x="213.33333333333334" y="68.33333333333333"/>
      <point x="215.66666666666666" y="97.33333333333333"/>
      <point x="217.66666666666666" y="133.33333333333334" type="curve" smooth="yes"/>
      <point x="239.66666666666666" y="550.3333333333334" type="line"/>
      <point x="243.66666666666666" y="628.0"/>
      <point x="253.33333333333334" y="654.6666666666666"/>
    </contour>
  </outline>
</glyph>
<glyph name="E" format="2">
  <advance width="620.3333333333334"/>
  <unicode hex="0045"/>
  <anchor x="335.6666666666667" y="0.0" name="bottom"/>
  <anchor x="549.6666666666666" y="5.0" name="ogonek"/>
  <anchor x="356.3333333333333" y="701.3333333333334" name="top"/>
  <anchor x="33.0" y="700.0" name="topleft"/>
  <outline>
    <contour>
      <point x="560.0" y="700.0" type="line"/>
      <point x="76.0" y="700.0" type="line"/>
      <point x="73.33333333333333" y="645.0" type="line"/>
      <point x="94.0" y="646.0"/>
      <point x="124.0" y="647.6666666666666"/>
      <point x="147.0" y="648.6666666666666" type="curve"/>
      <point x="144.0" y="629.6666666666666"/>
      <point x="140.66666666666666" y="600.6666666666666"/>
      <point x="139.33333333333334" y="570.6666666666666" type="curve" smooth="yes"/>
      <point x="116.66666666666667" y="155.0" type="line" smooth="yes"/>
      <point x="113.33333333333333" y="80.66666666666667"/>
      <point x="106.33333333333333" y="46.666666666666664"/>
      <point x="41.666666666666664" y="44.0" type="curve"/>
      <point x="39.0" y="0.0" type="line"/>
      <point x="555.6666666666666" y="0.0" type="line"/>
      <point x="572.0" y="203.33333333333334" type="line"/>
      <point x="527.3333333333334" y="203.33333333333334" type="line"/>
      <point x="521.3333333333334" y="88.0"/>
      <point x="460.6666666666667" y="52.666666666666664"/>
      <point x="383.0" y="52.0" type="curve" smooth="yes"/>
      <point x="211.0" y="50.0" type="line"/>
      <point x="214.0" y="67.0"/>
      <point x="216.33333333333334" y="95.33333333333333"/>
      <point x="218.33333333333334" y="131.33333333333334" type="curve" smooth="yes"/>
      <point x="229.33333333333334" y="338.6666666666667" type="line"/>
      <point x="286.6666666666667" y="341.0" type="line" smooth="yes"/>
      <point x="362.0" y="343.3333333333333"/>
      <point x="398.6666666666667" y="339.6666666666667"/>
      <point x="394.6666666666667" y="253.0" type="curve"/>
      <point x="438.6666666666667" y="253.0" type="line"/>
      <point x="450.0" y="479.3333333333333" type="line"/>
      <point x="402.3333333333333" y="479.3333333333333" type="line"/>
      <point x="399.6666666666667" y="412.3333333333333"/>
      <point x="375.0" y="396.3333333333333"/>
      <point x="319.0" y="387.6666666666667" type="curve" smooth="yes"/>
      <point x="232.0" y="388.3333333333333" type="line"/>
      <point x="240.33333333333334" y="545.0" type="line" smooth="yes"/>
      <point x="245.0" y="625.0"/>
      <point x="255.0" y="651.6666666666666"/>
      <point x="319.0" y="653.3333333333334" type="curve" smooth="yes"/>
      <point x="388.3333333333333" y="655.0" type="line" smooth="yes"/>
      <point x="456.3333333333333" y="657.0"/>
      <point x="517.6666666666666" y="633.6666666666666"/>
      <point x="512.0" y="518.6666666666666" type="curve"/>
      <point x="555.6666666666666" y="518.6666666666666" type="line"/>
    </contour>
  </outline>
</glyph>
<glyph name="F" format="2">
  <advance width="549.3333333333334"/>
  <unicode hex="0046"/>
  <outline>
    <contour>
      <point x="548.6666666666666" y="700.0" type="line"/>
      <point x="76.0" y="700.0" type="line"/>
      <point x="73.33333333333333" y="645.0" type="line"/>
      <point x="94.0" y="646.0"/>
      <point x="124.0" y="647.6666666666666"/>
      <point x="147.0" y="648.6666666666666" type="curve"/>
      <point x="144.0" y="629.6666666666666"/>
      <point x="140.66666666666666" y="600.6666666666666"/>
      <point x="139.33333333333334" y="570.6666666666666" type="curve" smooth="yes"/>
      <point x="116.66666666666667" y="155.0" type="line" smooth="yes"/>
      <point x="113.33333333333333" y="80.66666666666667"/>
      <point x="106.33333333333333" y="46.666666666666664"/>
      <point x="41.666666666666664" y="44.0" type="curve"/>
      <point x="39.0" y="0.0" type="line"/>
      <point x="305.6666666666667" y="0.0" type="line"/>
      <point x="308.3333333333333" y="55.0" type="line"/>
      <point x="281.0" y="54.33333333333333"/>
      <point x="240.66666666666666" y="52.666666666666664"/>
      <point x="211.0" y="51.33333333333333" type="curve"/>
      <point x="214.0" y="68.33333333333333"/>
      <point x="217.0" y="98.0"/>
      <point x="218.33333333333334" y="134.0" type="curve" smooth="yes"/>
      <point x="228.33333333333334" y="320.0" type="line"/>
      <point x="247.0" y="321.3333333333333"/>
      <point x="265.6666666666667" y="322.0"/>
      <point x="284.3333333333333" y="322.0" type="curve" smooth="yes"/>
      <point x="349.6666666666667" y="322.6666666666667"/>
      <point x="383.6666666666667" y="316.6666666666667"/>
      <point x="379.3333333333333" y="234.0" type="curve"/>
      <point x="423.3333333333333" y="234.0" type="line"/>
      <point x="435.0" y="461.0" type="line"/>
      <point x="387.3333333333333" y="461.0" type="line"/>
      <point x="384.6666666666667" y="398.3333333333333"/>
      <point x="364.3333333333333" y="379.3333333333333"/>
      <point x="317.3333333333333" y="369.6666666666667" type="curve" smooth="yes"/>
      <point x="230.66666666666666" y="369.6666666666667" type="line"/>
      <point x="240.33333333333334" y="550.3333333333334" type="line" smooth="yes"/>
      <point x="243.66666666666666" y="623.0"/>
      <point x="255.0" y="651.6666666666666"/>
      <point x="314.3333333333333" y="653.3333333333334" type="curve" smooth="yes"/>
      <point x="375.0" y="655.0" type="line" smooth="yes"/>
      <point x="443.0" y="657.0"/>
      <point x="506.3333333333333" y="633.6666666666666"/>
      <point x="500.6666666666667" y="518.6666666666666" type="curve"/>
      <point x="544.3333333333334" y="518.6666666666666" type="line"/>
    </contour>
  </outline>
</glyph>
<glyph name="G" format="2">
  <advance width="754.0"/>
  <unicode hex="0047"/>
  <anchor x="361.3333333333333" y="0.0" name="bottom"/>
  <anchor x="429.0" y="701.3333333333334" name="top"/>
  <outline>
    <contour>
      <point x="364.3333333333333" y="-16.0" type="curve" smooth="yes"/>
      <point x="415.6666666666667" y="-16.0"/>
      <point x="474.3333333333333" y="-4.333333333333334"/>
      <point x="517.6666666666666" y="10.666666666666666" type="curve" smooth="yes"/>
      <point x="563.0" y="27.333333333333332"/>
      <point x="600.0" y="35.333333333333336"/>
      <point x="626.3333333333334" y="35.333333333333336" type="curve" smooth="yes"/>
      <point x="650.6666666666666" y="35.333333333333336" type="line"/>
      <point x="658.6666666666666" y="190.0" type="line" smooth="yes"/>
      <point x="661.3333333333334" y="233.33333333333334"/>
      <point x="669.3333333333334" y="297.6666666666667"/>
      <point x="734.3333333333334" y="298.3333333333333" type="curve"/>
      <point x="736.6666666666666" y="342.3333333333333" type="line"/>
      <point x="500.3333333333333" y="342.3333333333333" type="line"/>
      <point x="497.6666666666667" y="287.3333333333333" type="line"/>
      <point x="517.6666666666666" y="288.3333333333333"/>
      <point x="547.0" y="289.6666666666667"/>
      <point x="569.3333333333334" y="291.0" type="curve"/>
      <point x="567.0" y="262.6666666666667"/>
      <point x="565.3333333333334" y="228.33333333333334"/>
      <point x="563.3333333333334" y="193.66666666666666" type="curve"/>
      <point x="557.6666666666666" y="84.66666666666667" type="line"/>
      <point x="509.0" y="55.33333333333333"/>
      <point x="441.3333333333333" y="42.33333333333333"/>
      <point x="393.3333333333333" y="42.33333333333333" type="curve" smooth="yes"/>
      <point x="242.33333333333334" y="42.33333333333333"/>
      <point x="151.0" y="175.33333333333334"/>
      <point x="160.66666666666666" y="358.6666666666667" type="curve" smooth="yes"/>
      <point x="170.0" y="530.6666666666666"/>
      <point x="275.3333333333333" y="665.3333333333334"/>
      <point x="416.6666666666667" y="665.3333333333334" type="curve" smooth="yes"/>
      <point x="525.0" y="665.0"/>
      <point x="606.6666666666666" y="599.0"/>
      <point x="612.0" y="478.6666666666667" type="curve"/>
      <point x="658.0" y="478.6666666666667" type="line"/>
      <point x="670.0" y="709.0" type="line"/>
      <point x="607.6666666666666" y="709.0" type="line"/>
      <point x="609.0" y="663.6666666666666" type="line"/>
      <point x="555.3333333333334" y="696.3333333333334"/>
      <point x="476.0" y="716.0"/>
      <point x="410.6666666666667" y="716.0" type="curve" smooth="yes"/>
      <point x="177.66666666666666" y="716.0"/>
      <point x="56.0" y="522.6666666666666"/>
      <point x="46.333333333333336" y="336.6666666666667" type="curve" smooth="yes"/>
      <point x="34.666666666666664" y="124.33333333333333"/>
      <point x="158.0" y="-16.0"/>
    </contour>
  </outline>
</glyph>
<glyph name="H" format="2">
  <advance width="782.6666666666666"/>
  <unicode hex="0048"/>
  <anchor x="397.0" y="350.6666666666667" name="center"/>
  <anchor x="416.3333333333333" y="701.3333333333334" name="top"/>
  <outline>
    <contour>
      <point x="751.3333333333334" y="700.0" type="line"/>
      <point x="509.0" y="700.0" type="line"/>
      <point x="506.3333333333333" y="645.0" type="line"/>
      <point x="527.3333333333334" y="646.0"/>
      <point x="556.3333333333334" y="647.6666666666666"/>
      <point x="579.6666666666666" y="648.6666666666666" type="curve"/>
      <point x="576.3333333333334" y="629.6666666666666"/>
      <point x="573.3333333333334" y="600.6666666666666"/>
      <point x="572.0" y="570.6666666666666" type="curve" smooth="yes"/>
      <point x="562.0" y="382.3333333333333" type="line"/>
      <point x="231.0" y="382.3333333333333" type="line"/>
      <point x="240.33333333333334" y="553.0" type="line" smooth="yes"/>
      <point x="244.33333333333334" y="627.3333333333334"/>
      <point x="257.3333333333333" y="653.3333333333334"/>
      <point x="315.6666666666667" y="656.0" type="curve"/>
      <point x="318.0" y="700.0" type="line"/>
      <point x="76.0" y="700.0" type="line"/>
      <point x="73.33333333333333" y="645.0" type="line"/>
      <point x="94.0" y="646.0"/>
      <point x="123.33333333333333" y="647.6666666666666"/>
      <point x="146.33333333333334" y="648.6666666666666" type="curve"/>
      <point x="143.33333333333334" y="629.6666666666666"/>
      <point x="140.66666666666666" y="600.6666666666666"/>
      <point x="138.66666666666666" y="570.6666666666666" type="curve" smooth="yes"/>
      <point x="116.66666666666667" y="155.0" type="line" smooth="yes"/>
      <point x="112.66666666666667" y="80.66666666666667"/>
      <point x="106.33333333333333" y="46.666666666666664"/>
      <point x="41.666666666666664" y="44.0" type="curve"/>
      <point x="39.0" y="0.0" type="line"/>
      <point x="281.3333333333333" y="0.0" type="line"/>
      <point x="284.0" y="55.0" type="line"/>
      <point x="263.3333333333333" y="54.33333333333333"/>
      <point x="234.0" y="52.666666666666664"/>
      <point x="211.0" y="51.33333333333333" type="curve"/>
      <point x="214.0" y="68.33333333333333"/>
      <point x="216.33333333333334" y="98.0"/>
      <point x="218.33333333333334" y="134.0" type="curve" smooth="yes"/>
      <point x="228.33333333333334" y="326.6666666666667" type="line"/>
      <point x="559.6666666666666" y="330.3333333333333" type="line"/>
      <point x="550.0" y="155.0" type="line"/>
      <point x="546.6666666666666" y="80.66666666666667"/>
      <point x="539.6666666666666" y="46.666666666666664"/>
      <point x="474.6666666666667" y="44.0" type="curve"/>
      <point x="472.3333333333333" y="0.0" type="line"/>
      <point x="714.3333333333334" y="0.0" type="line"/>
      <point x="717.0" y="55.0" type="line"/>
      <point x="696.3333333333334" y="54.33333333333333"/>
      <point x="667.3333333333334" y="52.666666666666664"/>
      <point x="644.0" y="51.33333333333333" type="curve"/>
      <point x="647.0" y="68.33333333333333"/>
      <point x="649.6666666666666" y="98.0"/>
      <point x="651.6666666666666" y="134.0" type="curve" smooth="yes"/>
      <point x="673.6666666666666" y="553.6666666666666" type="line" smooth="yes"/>
      <point x="677.6666666666666" y="628.0"/>
      <point x="690.6666666666666" y="653.3333333333334"/>
      <point x="749.0" y="656.0" type="curve"/>
    </contour>
  </outline>
</glyph>
<glyph name="I" format="2">
  <advance width="350.0"/>
  <unicode hex="0049"/>
  <anchor x="161.66666666666666" y="0.0" name="bottom"/>
  <anchor x="280.6666666666667" y="0.0" name="ogonek"/>
  <anchor x="206.66666666666666" y="701.3333333333334" name="top"/>
  <anchor x="33.0" y="700.0" name="topleft"/>
  <outline>
    <contour>
      <point x="318.0" y="700.0" type="line"/>
      <point x="76.0" y="700.0" type="line"/>
      <point x="73.33333333333333" y="645.0" type="line"/>
      <point x="94.0" y="646.0"/>
      <point x="123.33333333333333" y="647.6666666666666"/>
      <point x="146.33333333333334" y="648.6666666666666" type="curve"/>
      <point x="143.33333333333334" y="629.6666666666666"/>
      <point x="140.0" y="600.6666666666666"/>
      <point x="138.66666666666666" y="570.6666666666666" type="curve" smooth="yes"/>
      <point x="116.66666666666667" y="155.0" type="line"/>
      <point x="113.33333333333333" y="80.66666666666667"/>
      <point x="106.33333333333333" y="46.666666666666664"/>
      <point x="41.666666666666664" y="44.0" type="curve"/>
      <point x="39.0" y="0.0" type="line"/>
      <point x="281.3333333333333" y="0.0" type="line"/>
      <point x="284.0" y="55.0" type="line"/>
      <point x="263.3333333333333" y="54.33333333333333"/>
      <point x="234.0" y="52.666666666666664"/>
      <point x="211.0" y="51.33333333333333" type="curve"/>
      <point x="214.0" y="68.33333333333333"/>
      <point x="217.0" y="98.0"/>
      <point x="218.33333333333334" y="134.0" type="curve" smooth="yes"/>
      <point x="240.33333333333334" y="551.6666666666666" type="line" smooth="yes"/>
      <point x="243.66666666666666" y="626.0"/>
      <point x="254.0" y="653.3333333333334"/>
      <point x="315.6666666666667" y="656.0" type="curve"/>
    </contour>
  </outline>
</glyph>
<glyph name="J" format="2">
  <advance width="393.0"/>
  <unicode hex="004A"/>
  <anchor x="261.3333333333333" y="701.3333333333334" name="top"/>
  <outline>
    <contour>
      <point x="387.3333333333333" y="700.0" type="line"/>
      <point x="116.33333333333333" y="700.0" type="line"/>
      <point x="113.66666666666666" y="645.0" type="line"/>
      <point x="141.0" y="646.0"/>
      <point x="178.66666666666666" y="647.6666666666666"/>
      <point x="208.33333333333334" y="648.6666666666666" type="curve"/>
      <point x="206.0" y="618.3333333333334"/>
      <point x="203.33333333333334" y="582.0"/>
      <point x="201.33333333333334" y="545.3333333333334" type="curve"/>
      <point x="181.0" y="147.0" type="line" smooth="yes"/>
      <point x="176.0" y="49.0"/>
      <point x="145.33333333333334" y="35.33333333333333"/>
      <point x="120.33333333333333" y="34.666666666666664" type="curve" smooth="yes"/>
      <point x="110.66666666666667" y="34.666666666666664"/>
      <point x="94.33333333333333" y="39.0"/>
      <point x="88.66666666666667" y="50.666666666666664" type="curve"/>
      <point x="92.66666666666666" y="58.666666666666664"/>
      <point x="94.66666666666666" y="70.0"/>
      <point x="94.66666666666666" y="78.33333333333333" type="curve" smooth="yes"/>
      <point x="94.66666666666666" y="103.0"/>
      <point x="79.33333333333333" y="131.66666666666666"/>
      <point x="40.666666666666664" y="129.33333333333334" type="curve" smooth="yes"/>
      <point x="7.0" y="127.33333333333333"/>
      <point x="-12.333333333333334" y="99.0"/>
      <point x="-13.0" y="67.0" type="curve" smooth="yes"/>
      <point x="-14.333333333333334" y="11.0"/>
      <point x="41.666666666666664" y="-16.0"/>
      <point x="99.66666666666667" y="-16.0" type="curve" smooth="yes"/>
      <point x="222.0" y="-16.0"/>
      <point x="278.3333333333333" y="58.0"/>
      <point x="288.6666666666667" y="247.33333333333334" type="curve" smooth="yes"/>
      <point x="304.3333333333333" y="561.0" type="line" smooth="yes"/>
      <point x="307.6666666666667" y="625.3333333333334"/>
      <point x="325.3333333333333" y="655.3333333333334"/>
      <point x="384.3333333333333" y="656.0" type="curve"/>
    </contour>
  </outline>
</glyph>
<glyph name="K" format="2">
  <advance width="681.6666666666666"/>
  <unicode hex="004B"/>
  <anchor x="331.6666666666667" y="0.0" name="bottom"/>
  <anchor x="376.3333333333333" y="701.3333333333334" name="top"/>
  <outline>
    <contour>
      <point x="39.0" y="0.0" type="line"/>
      <point x="281.3333333333333" y="0.0" type="line"/>
      <point x="284.0" y="55.0" type="line"/>
      <point x="263.3333333333333" y="54.33333333333333"/>
      <point x="234.0" y="52.666666666666664"/>
      <point x="211.0" y="51.33333333333333" type="curve"/>
      <point x="214.0" y="68.33333333333333"/>
      <point x="216.33333333333334" y="98.0"/>
      <point x="218.33333333333334" y="134.0" type="curve" smooth="yes"/>
      <point x="229.0" y="331.6666666666667" type="line"/>
      <point x="245.0" y="331.6666666666667"/>
      <point x="263.6666666666667" y="332.3333333333333"/>
      <point x="276.3333333333333" y="332.3333333333333" type="curve"/>
      <point x="297.3333333333333" y="318.0"/>
      <point x="321.6666666666667" y="285.6666666666667"/>
      <point x="342.0" y="255.33333333333334" type="curve" smooth="yes"/>
      <point x="446.3333333333333" y="99.33333333333333" type="line"/>
      <point x="479.3333333333333" y="52.333333333333336"/>
      <point x="522.3333333333334" y="0.3333333333333333"/>
      <point x="541.3333333333334" y="0.0" type="curve" smooth="yes"/>
      <point x="670.6666666666666" y="0.0" type="line"/>
      <point x="673.3333333333334" y="44.0" type="line"/>
      <point x="629.6666666666666" y="44.666666666666664"/>
      <point x="596.6666666666666" y="66.33333333333333"/>
      <point x="537.3333333333334" y="152.66666666666666" type="curve"/>
      <point x="436.0" y="300.3333333333333" type="line" smooth="yes"/>
      <point x="416.6666666666667" y="328.3333333333333"/>
      <point x="397.3333333333333" y="355.6666666666667"/>
      <point x="364.3333333333333" y="376.6666666666667" type="curve"/>
      <point x="469.6666666666667" y="532.0" type="line" smooth="yes"/>
      <point x="539.0" y="634.3333333333334"/>
      <point x="591.3333333333334" y="650.6666666666666"/>
      <point x="662.3333333333334" y="656.0" type="curve"/>
      <point x="664.6666666666666" y="700.0" type="line"/>
      <point x="439.6666666666667" y="700.0" type="line"/>
      <point x="437.3333333333333" y="647.0" type="line"/>
      <point x="456.0" y="648.0"/>
      <point x="479.3333333333333" y="648.3333333333334"/>
      <point x="500.3333333333333" y="649.6666666666666" type="curve"/>
      <point x="473.0" y="629.3333333333334"/>
      <point x="445.0" y="591.3333333333334"/>
      <point x="424.3333333333333" y="560.0" type="curve" smooth="yes"/>
      <point x="308.0" y="385.0" type="line"/>
      <point x="231.66666666666666" y="385.0" type="line"/>
      <point x="240.33333333333334" y="551.6666666666666" type="line" smooth="yes"/>
      <point x="244.33333333333334" y="626.0"/>
      <point x="257.3333333333333" y="653.3333333333334"/>
      <point x="315.6666666666667" y="656.0" type="curve"/>
      <point x="318.0" y="700.0" type="line"/>
      <point x="76.0" y="700.0" type="line"/>
      <point x="73.33333333333333" y="645.0" type="line"/>
      <point x="94.0" y="646.0"/>
      <point x="123.33333333333333" y="647.6666666666666"/>
      <point x="146.33333333333334" y="648.6666666666666" type="curve"/>
      <point x="143.33333333333334" y="629.6666666666666"/>
      <point x="140.66666666666666" y="600.6666666666666"/>
      <point x="138.66666666666666" y="570.6666666666666" type="curve" smooth="yes"/>
      <point x="116.66666666666667" y="155.0" type="line"/>
      <point x="113.33333333333333" y="80.66666666666667"/>
      <point x="106.33333333333333" y="46.666666666666664"/>
      <point x="41.666666666666664" y="44.0" type="curve"/>
    </contour>
  </outline>
</glyph>
<glyph name="L" format="2">
  <advance width="586.6666666666666"/>
  <unicode hex="004C"/>
  <anchor x="284.3333333333333" y="0.0" name="bottom"/>
  <anchor x="198.33333333333334" y="701.3333333333334" name="top"/>
  <outline>
    <contour>
      <point x="317.3333333333333" y="700.0" type="line"/>
      <point x="75.33333333333333" y="700.0" type="line"/>
      <point x="74.0" y="645.0" type="line"/>
      <point x="94.66666666666667" y="646.0"/>
      <point x="123.33333333333333" y="647.6666666666666"/>
      <point x="146.33333333333334" y="648.6666666666666" type="curve"/>
      <point x="142.66666666666666" y="629.6666666666666"/>
      <point x="140.66666666666666" y="600.6666666666666"/>
      <point x="138.66666666666666" y="570.6666666666666" type="curve" smooth="yes"/>
      <point x="116.0" y="155.0" type="line" smooth="yes"/>
      <point x="112.0" y="80.66666666666667"/>
      <point x="105.66666666666667" y="46.666666666666664"/>
      <point x="41.0" y="44.0" type="curve"/>
      <point x="38.333333333333336" y="0.0" type="line"/>
      <point x="543.3333333333334" y="0.0" type="line"/>
      <point x="560.6666666666666" y="218.0" type="line"/>
      <point x="516.0" y="218.0" type="line"/>
      <point x="510.0" y="102.33333333333333"/>
      <point x="461.6666666666667" y="53.666666666666664"/>
      <point x="379.6666666666667" y="52.0" type="curve" smooth="yes"/>
      <point x="210.33333333333334" y="50.0" type="line"/>
      <point x="213.33333333333334" y="67.0"/>
      <point x="215.66666666666666" y="95.33333333333333"/>
      <point x="217.66666666666666" y="131.33333333333334" type="curve" smooth="yes"/>
      <point x="239.66666666666666" y="545.0" type="line"/>
      <point x="243.0" y="619.3333333333334"/>
      <point x="253.33333333333334" y="653.3333333333334"/>
      <point x="315.0" y="656.0" type="curve"/>
    </contour>
  </outline>
</glyph>
<glyph name="M" format="2">
  <advance width="934.6666666666666"/>
  <unicode hex="004D"/>
  <outline>
    <contour>
      <point x="409.0" y="-10.0" type="line"/>
      <point x="458.3333333333333" y="-10.0" type="line"/>
      <point x="677.6666666666666" y="478.0" type="line"/>
      <point x="716.6666666666666" y="567.3333333333334" type="line"/>
      <point x="718.3333333333334" y="567.3333333333334" type="line"/>
      <point x="717.6666666666666" y="527.6666666666666"/>
      <point x="717.6666666666666" y="478.3333333333333"/>
      <point x="717.3333333333334" y="451.0" type="curve" smooth="yes"/>
      <point x="716.3333333333334" y="152.33333333333334" type="line" smooth="yes"/>
      <point x="716.0" y="64.0"/>
      <point x="697.0" y="47.33333333333333"/>
      <point x="644.6666666666666" y="44.0" type="curve"/>
      <point x="642.0" y="0.0" type="line"/>
      <point x="882.0" y="0.0" type="line"/>
      <point x="885.3333333333334" y="55.0" type="line"/>
      <point x="864.0" y="54.33333333333333"/>
      <point x="834.6666666666666" y="52.666666666666664"/>
      <point x="810.6666666666666" y="51.33333333333333" type="curve"/>
      <point x="812.6666666666666" y="69.0"/>
      <point x="815.0" y="95.33333333333333"/>
      <point x="815.0" y="123.33333333333333" type="curve" smooth="yes"/>
      <point x="814.6666666666666" y="554.3333333333334" type="line"/>
      <point x="814.3333333333334" y="636.0"/>
      <point x="841.0" y="656.0"/>
      <point x="889.3333333333334" y="656.0" type="curve"/>
      <point x="892.0" y="700.0" type="line"/>
      <point x="718.3333333333334" y="700.0" type="line"/>
      <point x="657.0" y="559.3333333333334"/>
      <point x="582.0" y="405.0"/>
      <point x="520.0" y="263.0" type="curve" smooth="yes"/>
      <point x="503.3333333333333" y="224.66666666666666"/>
      <point x="480.6666666666667" y="170.66666666666666"/>
      <point x="463.0" y="131.33333333333334" type="curve"/>
      <point x="461.3333333333333" y="131.33333333333334" type="line"/>
      <point x="442.0" y="185.33333333333334"/>
      <point x="424.0" y="240.0"/>
      <point x="403.3333333333333" y="297.3333333333333" type="curve"/>
      <point x="255.0" y="700.0" type="line"/>
      <point x="84.33333333333333" y="700.0" type="line"/>
      <point x="81.33333333333333" y="645.6666666666666" type="line"/>
      <point x="102.0" y="646.6666666666666"/>
      <point x="131.66666666666666" y="647.6666666666666"/>
      <point x="154.66666666666666" y="648.6666666666666" type="curve"/>
      <point x="151.66666666666666" y="624.3333333333334"/>
      <point x="148.66666666666666" y="592.6666666666666"/>
      <point x="145.66666666666666" y="562.0" type="curve"/>
      <point x="107.0" y="134.33333333333334" type="line"/>
      <point x="101.66666666666667" y="74.66666666666667"/>
      <point x="89.66666666666667" y="45.33333333333333"/>
      <point x="33.333333333333336" y="44.0" type="curve"/>
      <point x="30.666666666666668" y="0.0" type="line"/>
      <point x="233.33333333333334" y="0.0" type="line"/>
      <point x="236.66666666666666" y="55.0" type="line"/>
      <point x="215.33333333333334" y="54.33333333333333"/>
      <point x="184.66666666666666" y="52.666666666666664"/>
      <point x="160.66666666666666" y="51.33333333333333" type="curve"/>
      <point x="164.33333333333334" y="73.66666666666667"/>
      <point x="167.66666666666666" y="106.0"/>
      <point x="170.33333333333334" y="138.0" type="curve" smooth="yes"/>
      <point x="191.33333333333334" y="378.3333333333333" type="line" smooth="yes"/>
      <point x="196.0" y="437.0"/>
      <point x="199.66666666666666" y="501.0"/>
      <point x="202.33333333333334" y="573.6666666666666" type="curve"/>
      <point x="204.0" y="573.6666666666666" type="line"/>
      <point x="221.0" y="505.6666666666667"/>
      <point x="235.66666666666666" y="461.3333333333333"/>
      <point x="253.0" y="414.3333333333333" type="curve"/>
    </contour>
  </outline>
</glyph>
<glyph name="N" format="2">
  <advance width="765.3333333333334"/>
  <unicode hex="004E"/>
  <anchor x="374.0" y="0.0" name="bottom"/>
  <anchor x="406.6666666666667" y="701.3333333333334" name="top"/>
  <outline>
    <contour>
      <point x="583.3333333333334" y="-10.666666666666666" type="line"/>
      <point x="643.6666666666666" y="-10.666666666666666" type="line"/>
      <point x="672.3333333333334" y="545.0" type="line" smooth="yes"/>
      <point x="676.3333333333334" y="619.3333333333334"/>
      <point x="681.0" y="653.3333333333334"/>
      <point x="746.3333333333334" y="656.0" type="curve"/>
      <point x="748.6666666666666" y="700.0" type="line"/>
      <point x="550.3333333333334" y="700.0" type="line"/>
      <point x="547.3333333333334" y="645.0" type="line"/>
      <point x="568.0" y="646.0"/>
      <point x="597.3333333333334" y="647.6666666666666"/>
      <point x="620.6666666666666" y="648.6666666666666" type="curve"/>
      <point x="617.6666666666666" y="630.3333333333334"/>
      <point x="615.0" y="602.0"/>
      <point x="613.0" y="570.6666666666666" type="curve" smooth="yes"/>
      <point x="593.6666666666666" y="157.66666666666666" type="line"/>
      <point x="592.0" y="157.66666666666666" type="line"/>
      <point x="568.3333333333334" y="192.0"/>
      <point x="543.3333333333334" y="228.66666666666666"/>
      <point x="514.3333333333334" y="269.6666666666667" type="curve"/>
      <point x="207.33333333333334" y="700.0" type="line"/>
      <point x="75.66666666666667" y="700.0" type="line"/>
      <point x="72.66666666666667" y="645.0" type="line"/>
      <point x="92.33333333333333" y="646.0"/>
      <point x="120.66666666666667" y="647.6666666666666"/>
      <point x="142.66666666666666" y="648.6666666666666" type="curve"/>
      <point x="140.33333333333334" y="620.3333333333334"/>
      <point x="138.33333333333334" y="586.0"/>
      <point x="136.33333333333334" y="551.3333333333334" type="curve"/>
      <point x="116.0" y="125.66666666666667" type="line" smooth="yes"/>
      <point x="113.66666666666667" y="78.0"/>
      <point x="99.66666666666667" y="44.666666666666664"/>
      <point x="44.0" y="44.0" type="curve"/>
      <point x="42.0" y="0.0" type="line"/>
      <point x="240.0" y="0.0" type="line"/>
      <point x="243.0" y="55.0" type="line"/>
      <point x="222.0" y="54.33333333333333"/>
      <point x="193.0" y="52.666666666666664"/>
      <point x="169.66666666666666" y="51.33333333333333" type="curve"/>
      <point x="174.0" y="77.66666666666667"/>
      <point x="175.33333333333334" y="112.66666666666667"/>
      <point x="177.33333333333334" y="147.33333333333334" type="curve" smooth="yes"/>
      <point x="192.66666666666666" y="540.6666666666666" type="line"/>
      <point x="194.33333333333334" y="540.6666666666666" type="line"/>
      <point x="215.33333333333334" y="509.6666666666667"/>
      <point x="236.66666666666666" y="479.6666666666667"/>
      <point x="257.3333333333333" y="450.3333333333333" type="curve"/>
    </contour>
  </outline>
</glyph>
<glyph name="O" format="2">
  <advance width="779.3333333333334"/>
  <unicode hex="004F"/>
  <anchor x="376.6666666666667" y="0.0" name="bottom"/>
  <anchor x="394.6666666666667" y="350.0" name="center"/>
  <anchor x="688.0" y="5.0" name="ogonek"/>
  <anchor x="411.0" y="701.3333333333334" name="top"/>
  <anchor x="33.0" y="700.0" name="topleft"/>
  <anchor x="609.3333333333334" y="700.0" name="topright"/>
  <outline>
    <contour>
      <point x="410.6666666666667" y="716.0" type="curve" smooth="yes"/>
      <point x="183.66666666666666" y="716.0"/>
      <point x="48.666666666666664" y="528.0"/>
      <point x="46.0" y="334.6666666666667" type="curve" smooth="yes"/>
      <point x="42.666666666666664" y="168.66666666666666"/>
      <point x="135.0" y="-16.0"/>
      <point x="376.3333333333333" y="-16.0" type="curve" smooth="yes"/>
      <point x="618.3333333333334" y="-16.0"/>
      <point x="737.6666666666666" y="194.33333333333334"/>
      <point x="740.6666666666666" y="362.6666666666667" type="curve" smooth="yes"/>
      <point x="743.3333333333334" y="527.0"/>
      <point x="648.3333333333334" y="716.0"/>
    </contour>
    <contour>
      <point x="401.6666666666667" y="666.6666666666666" type="curve" smooth="yes"/>
      <point x="554.0" y="667.6666666666666"/>
      <point x="628.3333333333334" y="512.0"/>
      <point x="625.3333333333334" y="346.3333333333333" type="curve" smooth="yes"/>
      <point x="623.3333333333334" y="203.33333333333334"/>
      <point x="545.0" y="34.33333333333333"/>
      <point x="384.3333333333333" y="34.0" type="curve" smooth="yes"/>
      <point x="214.66666666666666" y="33.666666666666664"/>
      <point x="157.66666666666666" y="221.0"/>
      <point x="161.33333333333334" y="353.3333333333333" type="curve" smooth="yes"/>
      <point x="164.0" y="497.0"/>
      <point x="244.66666666666666" y="665.6666666666666"/>
    </contour>
  </outline>
</glyph>
<glyph name="Q" format="2">
  <advance width="780.0"/>
  <unicode hex="0051"/>
  <outline>
    <contour>
      <point x="411.0" y="716.0" type="curve" smooth="yes"/>
      <point x="184.0" y="716.0"/>
      <point x="48.666666666666664" y="528.0"/>
      <point x="45.666666666666664" y="334.6666666666667" type="curve" smooth="yes"/>
      <point x="42.666666666666664" y="169.33333333333334"/>
      <point x="134.33333333333334" y="-16.0"/>
      <point x="373.0" y="-16.0" type="curve" smooth="yes"/>
      <point x="453.3333333333333" y="-16.0"/>
      <point x="480.3333333333333" y="-77.66666666666667"/>
      <point x="574.0" y="-162.66666666666666" type="curve" smooth="yes"/>
      <point x="633.3333333333334" y="-216.33333333333334"/>
      <point x="660.3333333333334" y="-218.0"/>
      <point x="739.3333333333334" y="-218.0" type="curve" smooth="yes"/>
      <point x="774.3333333333334" y="-218.0" type="line"/>
      <point x="775.6666666666666" y="-173.66666666666666" type="line"/>
      <point x="737.3333333333334" y="-173.66666666666666"/>
      <point x="728.3333333333334" y="-162.33333333333334"/>
      <point x="623.3333333333334" y="-64.33333333333333" type="curve" smooth="yes"/>
      <point x="564.3333333333334" y="-8.666666666666668"/>
      <point x="528.6666666666666" y="-3.666666666666667"/>
      <point x="472.3333333333333" y="-3.666666666666667" type="curve"/>
      <point x="472.3333333333333" y="-2.666666666666667" type="line"/>
      <point x="650.3333333333334" y="43.666666666666664"/>
      <point x="739.0" y="218.33333333333334"/>
      <point x="741.3333333333334" y="362.6666666666667" type="curve" smooth="yes"/>
      <point x="744.3333333333334" y="527.0"/>
      <point x="648.6666666666666" y="716.0"/>
    </contour>
    <contour>
      <point x="402.0" y="665.0" type="curve" smooth="yes"/>
      <point x="554.3333333333334" y="666.0"/>
      <point x="628.6666666666666" y="512.0"/>
      <point x="625.3333333333334" y="346.3333333333333" type="curve" smooth="yes"/>
      <point x="623.3333333333334" y="203.33333333333334"/>
      <point x="545.3333333333334" y="36.0"/>
      <point x="384.3333333333333" y="35.666666666666664" type="curve" smooth="yes"/>
      <point x="214.66666666666666" y="35.33333333333333"/>
      <point x="158.0" y="221.0"/>
      <point x="161.33333333333334" y="353.3333333333333" type="curve" smooth="yes"/>
      <point x="164.33333333333334" y="497.0"/>
      <point x="244.66666666666666" y="664.0"/>
    </contour>
  </outline>
</glyph>
<glyph name="R" format="2">
  <advance width="643.6666666666666"/>
  <unicode hex="0052"/>
  <anchor x="321.3333333333333" y="0.0" name="bottom"/>
  <anchor x="333.0" y="702.6666666666666" name="top"/>
  <outline>
    <contour>
      <point x="320.0" y="702.0" type="curve" smooth="yes"/>
      <point x="237.33333333333334" y="702.3333333333334"/>
      <point x="157.33333333333334" y="701.0"/>
      <point x="76.0" y="700.0" type="curve"/>
      <point x="72.66666666666667" y="645.0" type="line"/>
      <point x="93.33333333333333" y="646.0"/>
      <point x="123.33333333333333" y="647.6666666666666"/>
      <point x="146.33333333333334" y="648.6666666666666" type="curve"/>
      <point x="143.33333333333334" y="629.6666666666666"/>
      <point x="140.0" y="600.6666666666666"/>
      <point x="138.66666666666666" y="570.6666666666666" type="curve"/>
      <point x="116.66666666666667" y="155.0" type="line"/>
      <point x="113.33333333333333" y="80.66666666666667"/>
      <point x="106.33333333333333" y="46.666666666666664"/>
      <point x="41.666666666666664" y="44.0" type="curve"/>
      <point x="39.0" y="0.0" type="line"/>
      <point x="284.6666666666667" y="0.0" type="line"/>
      <point x="287.0" y="55.0" type="line"/>
      <point x="266.3333333333333" y="54.33333333333333"/>
      <point x="234.0" y="52.666666666666664"/>
      <point x="211.0" y="51.33333333333333" type="curve"/>
      <point x="214.0" y="68.33333333333333"/>
      <point x="216.33333333333334" y="98.0"/>
      <point x="218.33333333333334" y="134.33333333333334" type="curve" smooth="yes"/>
      <point x="227.0" y="299.3333333333333" type="line"/>
      <point x="237.33333333333334" y="299.3333333333333"/>
      <point x="273.3333333333333" y="298.0"/>
      <point x="293.0" y="299.3333333333333" type="curve"/>
      <point x="314.3333333333333" y="277.3333333333333"/>
      <point x="331.6666666666667" y="245.0"/>
      <point x="347.3333333333333" y="216.66666666666666" type="curve" smooth="yes"/>
      <point x="410.3333333333333" y="105.33333333333333" type="line"/>
      <point x="435.6666666666667" y="61.666666666666664"/>
      <point x="461.0" y="22.333333333333332"/>
      <point x="488.6666666666667" y="0.0" type="curve"/>
      <point x="624.0" y="0.0" type="line"/>
      <point x="626.6666666666666" y="44.0" type="line"/>
      <point x="569.6666666666666" y="44.666666666666664"/>
      <point x="547.3333333333334" y="80.0"/>
      <point x="513.0" y="138.66666666666666" type="curve" smooth="yes"/>
      <point x="457.3333333333333" y="233.33333333333334" type="line" smooth="yes"/>
      <point x="429.6666666666667" y="279.6666666666667"/>
      <point x="428.0" y="277.0"/>
      <point x="391.3333333333333" y="312.6666666666667" type="curve"/>
      <point x="532.6666666666666" y="344.3333333333333"/>
      <point x="577.6666666666666" y="429.3333333333333"/>
      <point x="582.3333333333334" y="508.3333333333333" type="curve"/>
      <point x="590.6666666666666" y="632.0"/>
      <point x="507.0" y="700.3333333333334"/>
    </contour>
    <contour>
      <point x="314.3333333333333" y="653.3333333333334" type="curve" smooth="yes"/>
      <point x="410.0" y="653.3333333333334"/>
      <point x="477.0" y="615.6666666666666"/>
      <point x="471.3333333333333" y="505.6666666666667" type="curve" smooth="yes"/>
      <point x="465.6666666666667" y="395.0"/>
      <point x="397.3333333333333" y="350.6666666666667"/>
      <point x="287.0" y="348.0" type="curve" smooth="yes"/>
      <point x="266.0" y="347.3333333333333"/>
      <point x="248.66666666666666" y="348.6666666666667"/>
      <point x="229.66666666666666" y="350.6666666666667" type="curve"/>
      <point x="240.33333333333334" y="550.3333333333334" type="line"/>
      <point x="243.66666666666666" y="621.0"/>
      <point x="253.66666666666666" y="653.3333333333334"/>
    </contour>
  </outline>
</glyph>
<glyph name="S" format="2">
  <advance width="577.3333333333334"/>
  <unicode hex="0053"/>
  <anchor x="305.3333333333333" y="0.0" name="bottom"/>
  <anchor x="321.6666666666667" y="701.3333333333334" name="top"/>
  <outline>
    <contour>
      <point x="277.6666666666667" y="-16.0" type="curve" smooth="yes"/>
      <point x="428.6666666666667" y="-16.0"/>
      <point x="524.0" y="63.666666666666664"/>
      <point x="529.6666666666666" y="177.33333333333334" type="curve"/>
      <point x="536.3333333333334" y="311.3333333333333"/>
      <point x="412.6666666666667" y="362.0"/>
      <point x="310.0" y="409.0" type="curve" smooth="yes"/>
      <point x="222.0" y="447.6666666666667"/>
      <point x="160.33333333333334" y="485.3333333333333"/>
      <point x="164.0" y="558.0" type="curve" smooth="yes"/>
      <point x="166.66666666666666" y="616.6666666666666"/>
      <point x="217.66666666666666" y="665.3333333333334"/>
      <point x="292.0" y="665.3333333333334" type="curve" smooth="yes"/>
      <point x="401.0" y="665.6666666666666"/>
      <point x="454.6666666666667" y="585.0"/>
      <point x="459.3333333333333" y="484.0" type="curve"/>
      <point x="505.3333333333333" y="484.0" type="line"/>
      <point x="516.6666666666666" y="708.3333333333334" type="line"/>
      <point x="457.0" y="708.3333333333334" type="line"/>
      <point x="458.3333333333333" y="666.0" type="line"/>
      <point x="409.0" y="703.3333333333334"/>
      <point x="341.0" y="716.0"/>
      <point x="289.3333333333333" y="716.0" type="curve" smooth="yes"/>
      <point x="122.33333333333333" y="716.0"/>
      <point x="71.0" y="607.3333333333334"/>
      <point x="66.66666666666667" y="534.3333333333334" type="curve" smooth="yes"/>
      <point x="60.333333333333336" y="414.0"/>
      <point x="152.33333333333334" y="361.3333333333333"/>
      <point x="256.6666666666667" y="315.3333333333333" type="curve" smooth="yes"/>
      <point x="343.0" y="276.0"/>
      <point x="433.0" y="240.0"/>
      <point x="428.3333333333333" y="150.0" type="curve" smooth="yes"/>
      <point x="425.0" y="79.0"/>
      <point x="360.3333333333333" y="36.0"/>
      <point x="284.6666666666667" y="36.0" type="curve" smooth="yes"/>
      <point x="183.0" y="36.0"/>
      <point x="106.0" y="92.33333333333333"/>
      <point x="101.33333333333333" y="211.66666666666666" type="curve"/>
      <point x="53.333333333333336" y="211.66666666666666" type="line"/>
      <point x="46.0" y="-8.333333333333334" type="line"/>
      <point x="106.33333333333333" y="-8.333333333333334" type="line"/>
      <point x="104.33333333333333" y="29.0" type="line"/>
      <point x="154.66666666666666" y="-4.333333333333334"/>
      <point x="226.33333333333334" y="-16.0"/>
    </contour>
  </outline>
</glyph>
<glyph name="T" format="2">
  <advance width="640.0"/>
  <unicode hex="0054"/>
  <anchor x="327.3333333333333" y="0.0" name="bottom"/>
  <anchor x="326.0" y="350.6666666666667" name="center"/>
  <anchor x="352.6666666666667" y="701.3333333333334" name="top"/>
  <outline>
    <contour>
      <point x="638.0" y="700.0" type="line"/>
      <point x="50.666666666666664" y="700.0" type="line"/>
      <point x="33.666666666666664" y="484.0" type="line"/>
      <point x="80.33333333333333" y="484.0" type="line"/>
      <point x="86.0" y="598.6666666666666"/>
      <point x="125.66666666666667" y="651.6666666666666"/>
      <point x="207.0" y="652.0" type="curve" smooth="yes"/>
      <point x="291.0" y="652.6666666666666" type="line"/>
      <point x="262.0" y="155.0" type="line" smooth="yes"/>
      <point x="258.0" y="82.66666666666667"/>
      <point x="245.66666666666666" y="46.666666666666664"/>
      <point x="187.33333333333334" y="44.0" type="curve"/>
      <point x="184.66666666666666" y="0.0" type="line"/>
      <point x="435.3333333333333" y="0.0" type="line"/>
      <point x="438.0" y="55.0" type="line"/>
      <point x="414.6666666666667" y="54.33333333333333"/>
      <point x="381.6666666666667" y="52.666666666666664"/>
      <point x="356.0" y="51.33333333333333" type="curve"/>
      <point x="359.0" y="68.33333333333333"/>
      <point x="361.6666666666667" y="98.0"/>
      <point x="363.6666666666667" y="134.0" type="curve" smooth="yes"/>
      <point x="393.6666666666667" y="653.0" type="line"/>
      <point x="466.3333333333333" y="653.6666666666666" type="line" smooth="yes"/>
      <point x="560.3333333333334" y="654.6666666666666"/>
      <point x="589.6666666666666" y="598.6666666666666"/>
      <point x="585.3333333333334" y="484.0" type="curve"/>
      <point x="632.6666666666666" y="484.0" type="line"/>
    </contour>
  </outline>
</glyph>
<glyph name="U" format="2">
  <advance width="747.6666666666666"/>
  <unicode hex="0055"/>
  <anchor x="361.0" y="0.0" name="bottom"/>
  <anchor x="484.0" y="5.0" name="ogonek"/>
  <anchor x="412.6666666666667" y="701.3333333333334" name="top"/>
  <anchor x="749.0" y="700.0" name="topright"/>
  <outline>
    <contour>
      <point x="747.3333333333334" y="700.0" type="line"/>
      <point x="545.3333333333334" y="700.0" type="line"/>
      <point x="543.0" y="645.0" type="line"/>
      <point x="563.6666666666666" y="646.0"/>
      <point x="592.6666666666666" y="647.6666666666666"/>
      <point x="616.0" y="648.6666666666666" type="curve"/>
      <point x="612.6666666666666" y="629.6666666666666"/>
      <point x="610.3333333333334" y="600.6666666666666"/>
      <point x="608.3333333333334" y="570.6666666666666" type="curve" smooth="yes"/>
      <point x="591.6666666666666" y="295.3333333333333" type="line" smooth="yes"/>
      <point x="581.6666666666666" y="142.0"/>
      <point x="515.6666666666666" y="46.0"/>
      <point x="383.0" y="47.333333333333336" type="curve" smooth="yes"/>
      <point x="236.66666666666666" y="48.333333333333336"/>
      <point x="197.33333333333334" y="159.0"/>
      <point x="205.66666666666666" y="314.0" type="curve" smooth="yes"/>
      <point x="219.0" y="574.3333333333334" type="line" smooth="yes"/>
      <point x="221.66666666666666" y="619.3333333333334"/>
      <point x="233.33333333333334" y="655.3333333333334"/>
      <point x="293.6666666666667" y="656.0" type="curve"/>
      <point x="296.3333333333333" y="700.0" type="line"/>
      <point x="53.0" y="700.0" type="line"/>
      <point x="50.333333333333336" y="645.6666666666666" type="line"/>
      <point x="71.33333333333333" y="646.6666666666666"/>
      <point x="100.33333333333333" y="647.6666666666666"/>
      <point x="123.66666666666667" y="648.6666666666666" type="curve"/>
      <point x="119.66666666666667" y="625.6666666666666"/>
      <point x="117.33333333333333" y="600.0"/>
      <point x="115.33333333333333" y="564.6666666666666" type="curve" smooth="yes"/>
      <point x="102.33333333333333" y="324.6666666666667" type="line" smooth="yes"/>
      <point x="90.66666666666667" y="103.0"/>
      <point x="148.66666666666666" y="-16.0"/>
      <point x="366.3333333333333" y="-16.0" type="curve" smooth="yes"/>
      <point x="553.0" y="-16.0"/>
      <point x="645.0" y="113.66666666666667"/>
      <point x="656.0" y="306.3333333333333" type="curve" smooth="yes"/>
      <point x="669.6666666666666" y="545.0" type="line"/>
      <point x="673.6666666666666" y="619.3333333333334"/>
      <point x="680.0" y="653.3333333333334"/>
      <point x="745.3333333333334" y="656.0" type="curve"/>
    </contour>
  </outline>
</glyph>
<glyph name="V" format="2">
  <advance width="677.3333333333334"/>
  <unicode hex="0056"/>
  <outline>
    <contour>
      <point x="706.0" y="700.0" type="line"/>
      <point x="495.3333333333333" y="700.0" type="line"/>
      <point x="493.0" y="645.0" type="line"/>
      <point x="515.0" y="646.0"/>
      <point x="545.3333333333334" y="647.6666666666666"/>
      <point x="570.0" y="649.0" type="curve"/>
      <point x="560.0" y="633.6666666666666"/>
      <point x="549.6666666666666" y="610.0"/>
      <point x="532.6666666666666" y="569.0" type="curve" smooth="yes"/>
      <point x="507.0" y="506.3333333333333"/>
      <point x="473.3333333333333" y="426.6666666666667"/>
      <point x="418.3333333333333" y="292.0" type="curve" smooth="yes"/>
      <point x="396.0" y="237.33333333333334"/>
      <point x="378.6666666666667" y="194.0"/>
      <point x="361.0" y="150.33333333333334" type="curve"/>
      <point x="359.3333333333333" y="150.33333333333334" type="line"/>
      <point x="343.3333333333333" y="197.0"/>
      <point x="321.6666666666667" y="258.3333333333333"/>
      <point x="295.6666666666667" y="327.0" type="curve"/>
      <point x="214.33333333333334" y="557.6666666666666" type="line"/>
      <point x="191.33333333333334" y="621.3333333333334"/>
      <point x="211.0" y="653.0"/>
      <point x="273.0" y="655.3333333333334" type="curve"/>
      <point x="275.3333333333333" y="700.0" type="line"/>
      <point x="26.333333333333332" y="700.0" type="line"/>
      <point x="23.666666666666668" y="645.0" type="line"/>
      <point x="41.333333333333336" y="646.0"/>
      <point x="59.0" y="646.3333333333334"/>
      <point x="79.0" y="647.3333333333334" type="curve"/>
      <point x="80.0" y="620.0"/>
      <point x="89.33333333333333" y="581.3333333333334"/>
      <point x="110.66666666666667" y="525.0" type="curve" smooth="yes"/>
      <point x="309.0" y="-9.333333333333334" type="line"/>
      <point x="352.3333333333333" y="-9.333333333333334" type="line"/>
      <point x="527.6666666666666" y="407.33333333333337"/>
      <point x="558.3333333333334" y="481.0"/>
      <point x="589.6666666666666" y="555.0" type="curve" smooth="yes"/>
      <point x="620.6666666666666" y="628.6666666666666"/>
      <point x="649.0" y="653.3333333333334"/>
      <point x="703.3333333333334" y="656.0" type="curve"/>
    </contour>
  </outline>
</glyph>
<glyph name="W" format="2">
  <advance width="999.3333333333334"/>
  <unicode hex="0057"/>
  <anchor x="544.3333333333334" y="703.3333333333334" name="top"/>
  <outline>
    <contour>
      <point x="265.3333333333333" y="-9.333333333333334" type="line"/>
      <point x="310.6666666666667" y="-9.333333333333334" type="line"/>
      <point x="458.6666666666667" y="389.0" type="line"/>
      <point x="475.3333333333333" y="433.3333333333333"/>
      <point x="489.3333333333333" y="476.0"/>
      <point x="504.0" y="520.6666666666666" type="curve"/>
      <point x="507.0" y="520.6666666666666" type="line"/>
      <point x="516.0" y="478.6666666666667"/>
      <point x="525.0" y="436.0"/>
      <point x="543.3333333333334" y="372.6666666666667" type="curve" smooth="yes"/>
      <point x="652.6666666666666" y="-9.333333333333334" type="line"/>
      <point x="699.0" y="-9.333333333333334" type="line"/>
      <point x="901.3333333333334" y="521.6666666666666" type="line"/>
      <point x="943.3333333333334" y="629.6666666666666"/>
      <point x="965.6666666666666" y="650.0"/>
      <point x="1026.0" y="656.0" type="curve"/>
      <point x="1028.3333333333333" y="700.0" type="line"/>
      <point x="818.0" y="700.0" type="line"/>
      <point x="815.3333333333334" y="645.0" type="line"/>
      <point x="838.0" y="646.0"/>
      <point x="869.0" y="647.0"/>
      <point x="894.3333333333334" y="648.3333333333334" type="curve"/>
      <point x="878.0" y="625.3333333333334"/>
      <point x="865.3333333333334" y="594.3333333333334"/>
      <point x="856.3333333333334" y="569.0" type="curve" smooth="yes"/>
      <point x="833.0" y="504.3333333333333"/>
      <point x="811.6666666666666" y="448.0"/>
      <point x="755.6666666666666" y="291.3333333333333" type="curve" smooth="yes"/>
      <point x="738.3333333333334" y="243.66666666666666"/>
      <point x="721.0" y="197.66666666666666"/>
      <point x="706.3333333333334" y="158.0" type="curve"/>
      <point x="704.6666666666666" y="158.0" type="line"/>
      <point x="691.3333333333334" y="216.33333333333334"/>
      <point x="677.3333333333334" y="272.0"/>
      <point x="662.0" y="327.3333333333333" type="curve"/>
      <point x="561.3333333333334" y="701.3333333333334" type="line"/>
      <point x="513.3333333333334" y="701.3333333333334" type="line"/>
      <point x="375.6666666666667" y="324.0" type="line"/>
      <point x="365.6666666666667" y="296.3333333333333"/>
      <point x="333.6666666666667" y="206.66666666666666"/>
      <point x="319.3333333333333" y="164.33333333333334" type="curve"/>
      <point x="317.6666666666667" y="164.33333333333334" type="line"/>
      <point x="302.6666666666667" y="227.66666666666666"/>
      <point x="290.0" y="271.6666666666667"/>
      <point x="276.3333333333333" y="327.0" type="curve"/>
      <point x="217.33333333333334" y="558.3333333333334" type="line"/>
      <point x="201.0" y="632.0"/>
      <point x="217.0" y="653.6666666666666"/>
      <point x="285.6666666666667" y="656.0" type="curve"/>
      <point x="288.3333333333333" y="700.0" type="line"/>
      <point x="31.0" y="700.0" type="line"/>
      <point x="28.333333333333332" y="645.0" type="line"/>
      <point x="45.666666666666664" y="646.0"/>
      <point x="63.666666666666664" y="646.3333333333334"/>
      <point x="83.33333333333333" y="647.3333333333334" type="curve"/>
      <point x="85.66666666666667" y="620.0"/>
      <point x="97.0" y="583.3333333333334"/>
      <point x="114.33333333333333" y="525.6666666666666" type="curve" smooth="yes"/>
    </contour>
  </outline>
</glyph>
<glyph name="X" format="2">
  <advance width="668.0"/>
  <unicode hex="0058"/>
  <outline>
    <contour>
      <point x="7.0" y="0.0" type="line"/>
      <point x="211.33333333333334" y="0.0" type="line"/>
      <point x="214.0" y="55.0" type="line"/>
      <point x="190.33333333333334" y="53.666666666666664"/>
      <point x="160.66666666666666" y="52.33333333333333"/>
      <point x="134.66666666666666" y="50.33333333333333" type="curve"/>
      <point x="163.0" y="81.33333333333333"/>
      <point x="185.0" y="112.66666666666667"/>
      <point x="212.33333333333334" y="149.33333333333334" type="curve"/>
      <point x="315.6666666666667" y="288.3333333333333" type="line"/>
      <point x="436.6666666666667" y="115.33333333333333" type="line"/>
      <point x="461.0" y="80.0"/>
      <point x="466.3333333333333" y="42.666666666666664"/>
      <point x="394.6666666666667" y="44.0" type="curve"/>
      <point x="392.0" y="0.0" type="line"/>
      <point x="655.0" y="0.0" type="line"/>
      <point x="657.6666666666666" y="55.0" type="line"/>
      <point x="640.0" y="54.33333333333333"/>
      <point x="626.0" y="54.0"/>
      <point x="606.0" y="52.666666666666664" type="curve"/>
      <point x="588.6666666666666" y="82.33333333333333"/>
      <point x="567.6666666666666" y="110.66666666666667"/>
      <point x="546.6666666666666" y="140.0" type="curve"/>
      <point x="378.6666666666667" y="375.3333333333333" type="line"/>
      <point x="494.3333333333333" y="525.6666666666666" type="line" smooth="yes"/>
      <point x="544.0" y="590.0"/>
      <point x="594.6666666666666" y="648.0"/>
      <point x="652.6666666666666" y="656.0" type="curve"/>
      <point x="655.3333333333334" y="700.0" type="line"/>
      <point x="448.0" y="700.0" type="line"/>
      <point x="445.3333333333333" y="645.0" type="line"/>
      <point x="469.0" y="646.0"/>
      <point x="500.6666666666667" y="647.6666666666666"/>
      <point x="526.3333333333334" y="649.0" type="curve"/>
      <point x="505.6666666666667" y="630.6666666666666"/>
      <point x="477.0" y="593.3333333333334"/>
      <point x="443.0" y="548.6666666666666" type="curve" smooth="yes"/>
      <point x="346.3333333333333" y="421.0" type="line"/>
      <point x="242.33333333333334" y="578.0" type="line"/>
      <point x="205.66666666666666" y="639.3333333333334"/>
      <point x="215.33333333333334" y="653.3333333333334"/>
      <point x="305.0" y="656.0" type="curve"/>
      <point x="307.6666666666667" y="700.0" type="line"/>
      <point x="33.666666666666664" y="700.0" type="line"/>
      <point x="31.0" y="645.0" type="line"/>
      <point x="48.333333333333336" y="646.0"/>
      <point x="62.0" y="646.3333333333334"/>
      <point x="81.66666666666667" y="647.3333333333334" type="curve"/>
      <point x="93.33333333333333" y="616.0"/>
      <point x="105.66666666666667" y="591.3333333333334"/>
      <point x="136.0" y="546.0" type="curve" smooth="yes"/>
      <point x="170.66666666666666" y="494.6666666666667"/>
      <point x="217.0" y="429.3333333333333"/>
      <point x="282.3333333333333" y="334.6666666666667" type="curve"/>
      <point x="148.0" y="159.66666666666666" type="line" smooth="yes"/>
      <point x="98.0" y="93.66666666666667"/>
      <point x="65.0" y="55.666666666666664"/>
      <point x="9.666666666666666" y="44.0" type="curve"/>
    </contour>
  </outline>
</glyph>
<glyph name="Y" format="2">
  <advance width="649.0"/>
  <unicode hex="0059"/>
  <anchor x="311.6666666666667" y="0.0" name="bottom"/>
  <anchor x="365.0" y="701.3333333333334" name="top"/>
  <anchor x="33.0" y="700.0" name="topleft"/>
  <outline>
    <contour>
      <point x="201.33333333333334" y="0.0" type="line"/>
      <point x="452.0" y="0.0" type="line"/>
      <point x="454.6666666666667" y="55.0" type="line"/>
      <point x="431.3333333333333" y="54.33333333333333"/>
      <point x="398.3333333333333" y="52.666666666666664"/>
      <point x="372.6666666666667" y="51.33333333333333" type="curve"/>
      <point x="375.6666666666667" y="68.33333333333333"/>
      <point x="379.0" y="98.0"/>
      <point x="380.3333333333333" y="134.0" type="curve"/>
      <point x="388.6666666666667" y="292.3333333333333" type="line"/>
      <point x="529.3333333333334" y="534.3333333333334" type="line"/>
      <point x="577.3333333333334" y="615.3333333333334"/>
      <point x="612.0" y="651.0"/>
      <point x="671.6666666666666" y="656.0" type="curve"/>
      <point x="674.0" y="700.0" type="line"/>
      <point x="464.3333333333333" y="700.0" type="line"/>
      <point x="461.6666666666667" y="645.0" type="line"/>
      <point x="484.0" y="646.0"/>
      <point x="515.6666666666666" y="647.0"/>
      <point x="540.0" y="648.0" type="curve"/>
      <point x="520.6666666666666" y="627.0"/>
      <point x="497.3333333333333" y="586.6666666666666"/>
      <point x="486.3333333333333" y="567.0" type="curve" smooth="yes"/>
      <point x="459.3333333333333" y="520.3333333333334"/>
      <point x="433.3333333333333" y="477.0"/>
      <point x="406.3333333333333" y="430.3333333333333" type="curve" smooth="yes"/>
      <point x="387.0" y="395.3333333333333"/>
      <point x="369.6666666666667" y="365.6666666666667"/>
      <point x="355.3333333333333" y="339.0" type="curve"/>
      <point x="354.0" y="339.0" type="line"/>
      <point x="340.3333333333333" y="366.0"/>
      <point x="319.6666666666667" y="401.3333333333333"/>
      <point x="306.3333333333333" y="424.0" type="curve"/>
      <point x="280.6666666666667" y="467.3333333333333"/>
      <point x="250.66666666666666" y="518.3333333333334"/>
      <point x="228.33333333333334" y="557.6666666666666" type="curve" smooth="yes"/>
      <point x="194.66666666666666" y="618.6666666666666"/>
      <point x="208.0" y="657.3333333333334"/>
      <point x="288.6666666666667" y="656.0" type="curve"/>
      <point x="291.0" y="700.0" type="line"/>
      <point x="24.333333333333332" y="700.0" type="line"/>
      <point x="21.666666666666668" y="645.0" type="line"/>
      <point x="40.666666666666664" y="646.0"/>
      <point x="58.0" y="646.3333333333334"/>
      <point x="79.33333333333333" y="647.3333333333334" type="curve"/>
      <point x="81.0" y="623.3333333333334"/>
      <point x="95.0" y="586.0"/>
      <point x="122.33333333333333" y="540.3333333333334" type="curve" smooth="yes"/>
      <point x="284.0" y="260.0" type="line"/>
      <point x="278.6666666666667" y="155.0" type="line" smooth="yes"/>
      <point x="275.3333333333333" y="82.66666666666667"/>
      <point x="269.0" y="46.666666666666664"/>
      <point x="204.0" y="44.0" type="curve"/>
    </contour>
  </outline>
</glyph>
<glyph name="Z" format="2">
  <advance width="609.0"/>
  <unicode hex="005A"/>
  <anchor x="341.3333333333333" y="701.3333333333334" name="top"/>
  <outline>
    <contour>
      <point x="27.0" y="0.0" type="line"/>
      <point x="540.0" y="0.0" type="line"/>
      <point x="557.0" y="208.0" type="line"/>
      <point x="512.3333333333334" y="208.0" type="line"/>
      <point x="506.3333333333333" y="97.0"/>
      <point x="441.6666666666667" y="49.666666666666664"/>
      <point x="358.3333333333333" y="49.33333333333333" type="curve" smooth="yes"/>
      <point x="133.0" y="48.33333333333333" type="line"/>
      <point x="158.0" y="72.66666666666666"/>
      <point x="181.0" y="100.33333333333333"/>
      <point x="211.66666666666666" y="143.0" type="curve" smooth="yes"/>
      <point x="576.6666666666666" y="651.6666666666666" type="line"/>
      <point x="579.3333333333334" y="700.0" type="line"/>
      <point x="79.66666666666667" y="700.0" type="line"/>
      <point x="62.666666666666664" y="491.0" type="line"/>
      <point x="107.33333333333333" y="491.0" type="line"/>
      <point x="113.33333333333333" y="603.0"/>
      <point x="159.33333333333334" y="649.6666666666666"/>
      <point x="236.66666666666666" y="651.0" type="curve" smooth="yes"/>
      <point x="466.0" y="652.0" type="line"/>
      <point x="439.6666666666667" y="623.3333333333334"/>
      <point x="419.0" y="593.6666666666666"/>
      <point x="395.0" y="559.0" type="curve"/>
      <point x="30.333333333333332" y="55.666666666666664" type="line"/>
    </contour>
  </outline>
</glyph>
<glyph name="bracketleft" format="2">
  <advance width="370.0"/>
  <unicode hex="005B"/>
  <outline>
    <contour>
      <point x="390.0" y="755.0" type="line"/>
      <point x="106.66666666666667" y="755.0" type="line"/>
      <point x="41.333333333333336" y="-255.0" type="line"/>
      <point x="327.0" y="-255.0" type="line"/>
      <point x="331.6666666666667" y="-194.0" type="line"/>
      <point x="131.33333333333334" y="-191.0" type="line"/>
      <point x="191.66666666666666" y="691.0" type="line"/>
      <point x="386.0" y="694.0" type="line"/>
    </contour>
  </outline>
</glyph>
<glyph name="backslash" format="2">
  <advance width="787.3333333333334"/>
  <unicode hex="005C"/>
  <outline>
    <contour>
      <point x="677.0" y="-271.0" type="line"/>
      <point x="732.0" y="-232.0" type="line"/>
      <point x="111.33333333333333" y="758.3333333333334" type="line"/>
      <point x="46.666666666666664" y="714.3333333333334" type="line"/>
    </contour>
  </outline>
</glyph>
<glyph name="underscore" format="2">
  <advance width="751.6666666666666"/>
  <unicode hex="005F"/>
  <outline>
    <contour>
      <point x="45.33333333333333" y="-50.0" type="line"/>
      <point x="43.33333333333333" y="-121.0" type="line"/>
      <point x="658.0" y="-121.0" type="line"/>
      <point x="660.0" y="-54.0" type="line"/>
    </contour>
  </outline>
</glyph>
<glyph name="grave" format="2">
  <advance width="252.33333333333334"/>
  <unicode hex="0060"/>
  <anchor x="137.0" y="508.0" name="_top"/>
  <outline>
    <contour>
      <point x="175.33333333333334" y="574.3333333333334" type="line"/>
      <point x="207.33333333333334" y="601.3333333333334" type="line"/>
      <point x="129.33333333333334" y="736.0" type="line" smooth="yes"/>
      <point x="105.0" y="777.6666666666666"/>
      <point x="73.33333333333333" y="772.3333333333334"/>
      <point x="58.0" y="760.0" type="curve" smooth="yes"/>
      <point x="42.0" y="745.0"/>
      <point x="37.0" y="714.6666666666666"/>
      <point x="68.66666666666667" y="681.3333333333334" type="curve" smooth="yes"/>
    </contour>
  </outline>
</glyph>
<glyph name="a" format="2">
  <advance width="548.3333333333334"/>
  <unicode hex="0061"/>
  <anchor x="261.3333333333333" y="0.0" name="bottom"/>
  <anchor x="468.6666666666667" y="5.0" name="ogonek"/>
  <anchor x="314.0" y="508.0" name="top"/>
  <outline>
    <contour>
      <point x="328.3333333333333" y="511.0" type="curve" smooth="yes"/>
      <point x="134.33333333333334" y="511.0"/>
      <point x="33.0" y="351.3333333333333"/>
      <point x="33.0" y="165.66666666666666" type="curve" smooth="yes"/>
      <point x="33.0" y="40.333333333333336"/>
      <point x="89.66666666666667" y="-11.0"/>
      <point x="162.0" y="-11.0" type="curve" smooth="yes"/>
      <point x="219.0" y="-11.0"/>
      <point x="290.3333333333333" y="18.0"/>
      <point x="348.6666666666667" y="188.0" type="curve"/>
      <point x="351.0" y="188.0" type="line"/>
      <point x="343.3333333333333" y="149.0"/>
      <point x="337.6666666666667" y="110.33333333333333"/>
      <point x="337.6666666666667" y="79.33333333333333" type="curve" smooth="yes"/>
      <point x="337.6666666666667" y="19.666666666666668"/>
      <point x="363.3333333333333" y="-11.0"/>
      <point x="413.6666666666667" y="-11.0" type="curve" smooth="yes"/>
      <point x="496.3333333333333" y="-11.0"/>
      <point x="537.0" y="84.66666666666667"/>
      <point x="546.6666666666666" y="135.0" type="curve"/>
      <point x="510.0" y="144.33333333333334" type="line"/>
      <point x="491.0" y="77.0"/>
      <point x="464.3333333333333" y="53.33333333333333"/>
      <point x="444.3333333333333" y="53.33333333333333" type="curve" smooth="yes"/>
      <point x="422.6666666666667" y="53.33333333333333"/>
      <point x="421.0" y="77.0"/>
      <point x="421.0" y="103.0" type="curve" smooth="yes"/>
      <point x="421.0" y="169.0"/>
      <point x="447.0" y="353.3333333333333"/>
      <point x="465.6666666666667" y="492.6666666666667" type="curve"/>
      <point x="418.6666666666667" y="504.3333333333333"/>
      <point x="367.3333333333333" y="511.0"/>
    </contour>
    <contour>
      <point x="295.3333333333333" y="465.0" type="curve" smooth="yes"/>
      <point x="321.0" y="465.0"/>
      <point x="345.3333333333333" y="461.0"/>
      <point x="361.0" y="455.0" type="curve"/>
      <point x="357.6666666666667" y="285.6666666666667"/>
      <point x="275.6666666666667" y="48.0"/>
      <point x="190.66666666666666" y="48.0" type="curve" smooth="yes"/>
      <point x="150.0" y="48.0"/>
      <point x="134.66666666666666" y="100.33333333333333"/>
      <point x="134.66666666666666" y="175.33333333333334" type="curve" smooth="yes"/>
      <point x="134.66666666666666" y="334.3333333333333"/>
      <point x="189.33333333333334" y="465.0"/>
    </contour>
  </outline>
</glyph>
<glyph name="b" format="2">
  <advance width="511.6666666666667"/>
  <unicode hex="0062"/>
  <outline>
    <contour>
      <point x="205.0" y="755.0" type="curve"/>
      <point x="167.66666666666666" y="755.0" type="line"/>
      <point x="152.0" y="741.3333333333334"/>
      <point x="121.66666666666667" y="727.0"/>
      <point x="32.333333333333336" y="727.0" type="curve"/>
      <point x="28.333333333333336" y="675.0" type="line"/>
      <point x="49.0" y="676.0"/>
      <point x="76.33333333333333" y="677.6666666666666"/>
      <point x="99.33333333333333" y="678.6666666666666" type="curve"/>
      <point x="96.0" y="657.0"/>
      <point x="95.0" y="643.0"/>
      <point x="92.66666666666667" y="612.6666666666666" type="curve" smooth="yes"/>
      <point x="75.0" y="388.0"/>
      <point x="68.33333333333333" y="256.0"/>
      <point x="53.666666666666664" y="12.0" type="curve"/>
      <point x="98.33333333333333" y="-5.333333333333333"/>
      <point x="161.66666666666666" y="-11.0"/>
      <point x="194.33333333333334" y="-11.0" type="curve" smooth="yes"/>
      <point x="391.6666666666667" y="-11.0"/>
      <point x="469.3333333333333" y="142.0"/>
      <point x="469.3333333333333" y="324.6666666666667" type="curve" smooth="yes"/>
      <point x="469.3333333333333" y="422.6666666666667"/>
      <point x="433.3333333333333" y="511.0"/>
      <point x="338.3333333333333" y="511.0" type="curve" smooth="yes"/>
      <point x="284.3333333333333" y="511.0"/>
      <point x="210.66666666666666" y="487.3333333333333"/>
      <point x="160.33333333333334" y="329.6666666666667" type="curve"/>
      <point x="158.0" y="329.6666666666667" type="line"/>
      <point x="167.66666666666666" y="418.3333333333333"/>
      <point x="176.33333333333334" y="508.3333333333333"/>
      <point x="183.33333333333334" y="574.3333333333334" type="curve" smooth="yes"/>
      <point x="188.0" y="617.6666666666666"/>
      <point x="196.33333333333334" y="698.3333333333334"/>
    </contour>
    <contour>
      <point x="305.6666666666667" y="449.0" type="curve" smooth="yes"/>
      <point x="344.6666666666667" y="450.3333333333333"/>
      <point x="365.0" y="405.6666666666667"/>
      <point x="366.3333333333333" y="321.0" type="curve" smooth="yes"/>
      <point x="367.6666666666667" y="208.33333333333334"/>
      <point x="344.0" y="35.666666666666664"/>
      <point x="210.33333333333334" y="34.33333333333333" type="curve" smooth="yes"/>
      <point x="188.66666666666666" y="34.33333333333333"/>
      <point x="159.0" y="40.33333333333333"/>
      <point x="144.66666666666666" y="52.666666666666664" type="curve"/>
      <point x="148.66666666666666" y="227.33333333333334"/>
      <point x="220.66666666666666" y="446.3333333333333"/>
    </contour>
  </outline>
</glyph>
<glyph name="c" format="2">
  <advance width="471.0"/>
  <unicode hex="0063"/>
  <anchor x="208.33333333333334" y="0.0" name="bottom"/>
  <anchor x="282.6666666666667" y="506.6666666666667" name="top"/>
  <outline>
    <contour>
      <point x="276.3333333333333" y="511.0" type="curve" smooth="yes"/>
      <point x="110.0" y="511.0"/>
      <point x="35.0" y="338.0"/>
      <point x="35.0" y="207.66666666666666" type="curve" smooth="yes"/>
      <point x="35.0" y="58.333333333333336"/>
      <point x="111.33333333333333" y="-10.666666666666666"/>
      <point x="229.0" y="-11.0" type="curve" smooth="yes"/>
      <point x="308.6666666666667" y="-10.666666666666666"/>
      <point x="385.3333333333333" y="29.333333333333332"/>
      <point x="438.3333333333333" y="150.33333333333334" type="curve"/>
      <point x="396.0" y="171.0" type="line"/>
      <point x="356.3333333333333" y="75.66666666666667"/>
      <point x="295.3333333333333" y="51.33333333333333"/>
      <point x="248.33333333333334" y="52.33333333333333" type="curve" smooth="yes"/>
      <point x="187.0" y="53.666666666666664"/>
      <point x="138.0" y="102.0"/>
      <point x="139.33333333333334" y="231.66666666666666" type="curve" smooth="yes"/>
      <point x="140.0" y="329.0"/>
      <point x="169.33333333333334" y="465.6666666666667"/>
      <point x="275.0" y="465.6666666666667" type="curve" smooth="yes"/>
      <point x="309.0" y="465.6666666666667"/>
      <point x="337.0" y="451.6666666666667"/>
      <point x="343.6666666666667" y="423.0" type="curve"/>
      <point x="334.0" y="410.6666666666667"/>
      <point x="331.6666666666667" y="395.6666666666667"/>
      <point x="331.6666666666667" y="383.6666666666667" type="curve" smooth="yes"/>
      <point x="331.6666666666667" y="366.0"/>
      <point x="344.3333333333333" y="336.3333333333333"/>
      <point x="381.0" y="337.3333333333333" type="curve" smooth="yes"/>
      <point x="411.3333333333333" y="337.6666666666667"/>
      <point x="430.3333333333333" y="360.3333333333333"/>
      <point x="430.3333333333333" y="393.0" type="curve" smooth="yes"/>
      <point x="430.3333333333333" y="461.3333333333333"/>
      <point x="364.3333333333333" y="511.0"/>
    </contour>
  </outline>
</glyph>
<glyph name="d" format="2">
  <advance width="558.0"/>
  <unicode hex="0064"/>
  <anchor x="288.0" y="254.0" name="center"/>
  <anchor x="557.3333333333334" y="508.0" name="topright"/>
  <outline>
    <contour>
      <point x="174.0" y="-11.0" type="curve" smooth="yes"/>
      <point x="231.0" y="-11.0"/>
      <point x="302.3333333333333" y="24.0"/>
      <point x="355.0" y="185.33333333333334" type="curve"/>
      <point x="357.3333333333333" y="185.33333333333334" type="line"/>
      <point x="349.6666666666667" y="144.33333333333334"/>
      <point x="346.0" y="113.33333333333333"/>
      <point x="346.0" y="79.33333333333333" type="curve" smooth="yes"/>
      <point x="346.0" y="19.666666666666668"/>
      <point x="373.6666666666667" y="-11.0"/>
      <point x="424.0" y="-11.0" type="curve" smooth="yes"/>
      <point x="506.3333333333333" y="-11.0"/>
      <point x="546.0" y="84.66666666666667"/>
      <point x="556.0" y="135.0" type="curve"/>
      <point x="518.3333333333334" y="144.33333333333334" type="line"/>
      <point x="499.3333333333333" y="77.0"/>
      <point x="474.0" y="53.33333333333333"/>
      <point x="454.3333333333333" y="53.33333333333333" type="curve" smooth="yes"/>
      <point x="434.6666666666667" y="53.33333333333333"/>
      <point x="431.3333333333333" y="73.0"/>
      <point x="431.3333333333333" y="98.33333333333333" type="curve" smooth="yes"/>
      <point x="431.3333333333333" y="166.33333333333334"/>
      <point x="447.3333333333333" y="298.6666666666667"/>
      <point x="461.6666666666667" y="429.6666666666667" type="curve"/>
      <point x="477.6666666666667" y="570.6666666666666"/>
      <point x="490.0" y="671.3333333333334"/>
      <point x="502.0" y="755.0" type="curve"/>
      <point x="464.6666666666667" y="755.0" type="line"/>
      <point x="449.0" y="741.3333333333334"/>
      <point x="418.6666666666667" y="727.0"/>
      <point x="329.0" y="727.0" type="curve"/>
      <point x="325.0" y="675.0" type="line"/>
      <point x="345.6666666666667" y="676.0"/>
      <point x="373.6666666666667" y="677.6666666666666"/>
      <point x="397.0" y="678.6666666666666" type="curve"/>
      <point x="390.3333333333333" y="650.3333333333334"/>
      <point x="382.6666666666667" y="585.3333333333334"/>
      <point x="374.3333333333333" y="507.6666666666667" type="curve"/>
      <point x="359.0" y="510.0"/>
      <point x="337.3333333333333" y="511.0"/>
      <point x="321.0" y="511.0" type="curve" smooth="yes"/>
      <point x="128.66666666666666" y="511.0"/>
      <point x="34.666666666666664" y="372.6666666666667"/>
      <point x="34.666666666666664" y="179.33333333333334" type="curve" smooth="yes"/>
      <point x="34.666666666666664" y="73.33333333333333"/>
      <point x="79.0" y="-11.0"/>
    </contour>
    <contour>
      <point x="200.33333333333334" y="50.666666666666664" type="curve" smooth="yes"/>
      <point x="156.0" y="50.666666666666664"/>
      <point x="137.33333333333334" y="107.66666666666667"/>
      <point x="137.33333333333334" y="191.0" type="curve" smooth="yes"/>
      <point x="137.33333333333334" y="298.6666666666667"/>
      <point x="173.66666666666666" y="465.0"/>
      <point x="305.3333333333333" y="465.0" type="curve" smooth="yes"/>
      <point x="325.0" y="465.0"/>
      <point x="350.6666666666667" y="462.3333333333333"/>
      <point x="368.3333333333333" y="455.6666666666667" type="curve"/>
      <point x="361.3333333333333" y="387.0"/>
      <point x="354.3333333333333" y="331.6666666666667"/>
      <point x="344.6666666666667" y="285.0" type="curve" smooth="yes"/>
      <point x="317.3333333333333" y="158.66666666666666"/>
      <point x="259.0" y="50.666666666666664"/>
    </contour>
  </outline>
</glyph>
<glyph name="e" format="2">
  <advance width="474.6666666666667"/>
  <unicode hex="0065"/>
  <anchor x="254.66666666666666" y="0.0" name="bottom"/>
  <anchor x="309.0" y="5.0" name="ogonek"/>
  <anchor x="272.3333333333333" y="508.0" name="top"/>
  <outline>
    <contour>
      <point x="281.3333333333333" y="511.0" type="curve" smooth="yes"/>
      <point x="113.33333333333333" y="511.0"/>
      <point x="35.0" y="352.0"/>
      <point x="35.0" y="205.66666666666666" type="curve" smooth="yes"/>
      <point x="35.0" y="69.66666666666667"/>
      <point x="99.33333333333333" y="-11.333333333333334"/>
      <point x="225.0" y="-11.0" type="curve" smooth="yes"/>
      <point x="311.6666666666667" y="-11.0"/>
      <point x="382.3333333333333" y="30.333333333333336"/>
      <point x="438.6666666666667" y="144.0" type="curve"/>
      <point x="398.0" y="165.66666666666666" type="line"/>
      <point x="356.6666666666667" y="82.0"/>
      <point x="295.0" y="53.0"/>
      <point x="245.33333333333334" y="53.0" type="curve" smooth="yes"/>
      <point x="179.0" y="53.0"/>
      <point x="139.33333333333334" y="104.66666666666667"/>
      <point x="139.33333333333334" y="225.33333333333334" type="curve"/>
      <point x="261.3333333333333" y="240.33333333333334"/>
      <point x="424.6666666666667" y="282.6666666666667"/>
      <point x="424.6666666666667" y="392.3333333333333" type="curve" smooth="yes"/>
      <point x="424.6666666666667" y="478.3333333333333"/>
      <point x="358.0" y="511.0"/>
    </contour>
    <contour>
      <point x="268.3333333333333" y="466.3333333333333" type="curve" smooth="yes"/>
      <point x="307.0" y="466.3333333333333"/>
      <point x="330.0" y="439.3333333333333"/>
      <point x="330.3333333333333" y="400.3333333333333" type="curve" smooth="yes"/>
      <point x="330.6666666666667" y="332.6666666666667"/>
      <point x="247.0" y="286.6666666666667"/>
      <point x="141.0" y="271.0" type="curve"/>
      <point x="148.33333333333334" y="367.6666666666667"/>
      <point x="184.33333333333334" y="466.3333333333333"/>
    </contour>
  </outline>
</glyph>
<glyph name="f" format="2">
  <advance width="334.3333333333333"/>
  <unicode hex="0066"/>
  <outline>
    <contour>
      <point x="320.3333333333333" y="760.0" type="curve" smooth="yes"/>
      <point x="186.0" y="758.0"/>
      <point x="135.33333333333334" y="648.0"/>
      <point x="115.66666666666667" y="500.0" type="curve"/>
      <point x="30.333333333333332" y="500.0" type="line"/>
      <point x="24.0" y="447.0" type="line"/>
      <point x="109.33333333333333" y="448.0" type="line"/>
      <point x="101.0" y="365.6666666666667"/>
      <point x="93.66666666666667" y="245.0"/>
      <point x="86.33333333333333" y="159.66666666666669" type="curve"/>
      <point x="68.0" y="-43.0"/>
      <point x="70.0" y="-221.33333333333334"/>
      <point x="-7.666666666666668" y="-221.33333333333334" type="curve" smooth="yes"/>
      <point x="-17.666666666666668" y="-221.33333333333334"/>
      <point x="-25.666666666666668" y="-219.0"/>
      <point x="-31.333333333333336" y="-215.33333333333334" type="curve"/>
      <point x="-29.666666666666668" y="-185.66666666666666"/>
      <point x="-47.66666666666667" y="-165.0"/>
      <point x="-73.66666666666667" y="-164.0" type="curve" smooth="yes"/>
      <point x="-108.66666666666667" y="-163.0"/>
      <point x="-121.66666666666667" y="-194.66666666666666"/>
      <point x="-121.66666666666667" y="-212.33333333333334" type="curve" smooth="yes"/>
      <point x="-121.66666666666667" y="-249.66666666666666"/>
      <point x="-92.33333333333333" y="-271.0"/>
      <point x="-38.0" y="-271.0" type="curve" smooth="yes"/>
      <point x="141.33333333333334" y="-271.0"/>
      <point x="162.33333333333334" y="-59.33333333333333"/>
      <point x="183.0" y="153.66666666666669" type="curve" smooth="yes"/>
      <point x="192.0" y="242.66666666666669"/>
      <point x="199.33333333333334" y="365.0"/>
      <point x="204.33333333333334" y="449.0" type="curve"/>
      <point x="341.0" y="451.0" type="line"/>
      <point x="345.3333333333333" y="500.0" type="line"/>
      <point x="207.66666666666666" y="500.0" type="line"/>
      <point x="216.66666666666666" y="609.3333333333334"/>
      <point x="232.0" y="707.0"/>
      <point x="289.0" y="711.0" type="curve" smooth="yes"/>
      <point x="298.3333333333333" y="711.6666666666666"/>
      <point x="309.3333333333333" y="710.0"/>
      <point x="312.6666666666667" y="707.6666666666666" type="curve"/>
      <point x="310.3333333333333" y="676.6666666666666"/>
      <point x="329.0" y="654.0"/>
      <point x="355.6666666666667" y="653.6666666666666" type="curve" smooth="yes"/>
      <point x="390.6666666666667" y="652.6666666666666"/>
      <point x="403.0" y="683.0"/>
      <point x="403.0" y="700.6666666666666" type="curve" smooth="yes"/>
      <point x="403.0" y="737.6666666666666"/>
      <point x="373.0" y="760.6666666666666"/>
    </contour>
  </outline>
</glyph>
<glyph name="g" format="2">
  <advance width="518.6666666666666"/>
  <unicode hex="0067"/>
  <anchor x="296.3333333333333" y="508.0" name="top"/>
  <outline>
    <contour>
      <point x="168.66666666666666" y="-271.0" type="curve" smooth="yes"/>
      <point x="324.0" y="-271.0"/>
      <point x="408.3333333333333" y="-169.0"/>
      <point x="424.6666666666667" y="22.666666666666664" type="curve" smooth="yes"/>
      <point x="436.3333333333333" y="160.0"/>
      <point x="453.0" y="353.6666666666667"/>
      <point x="461.3333333333333" y="492.6666666666667" type="curve"/>
      <point x="422.0" y="504.3333333333333"/>
      <point x="368.0" y="511.0"/>
      <point x="325.6666666666667" y="511.0" type="curve" smooth="yes"/>
      <point x="123.66666666666667" y="511.0"/>
      <point x="34.333333333333336" y="355.3333333333333"/>
      <point x="34.333333333333336" y="179.0" type="curve" smooth="yes"/>
      <point x="34.333333333333336" y="63.66666666666667"/>
      <point x="84.0" y="-11.0"/>
      <point x="170.33333333333334" y="-11.0" type="curve" smooth="yes"/>
      <point x="230.66666666666666" y="-11.0"/>
      <point x="296.3333333333333" y="20.333333333333332"/>
      <point x="350.3333333333333" y="188.0" type="curve"/>
      <point x="352.6666666666667" y="188.0" type="line"/>
      <point x="340.6666666666667" y="125.33333333333334"/>
      <point x="336.3333333333333" y="52.333333333333336"/>
      <point x="325.3333333333333" y="-23.666666666666664" type="curve" smooth="yes"/>
      <point x="310.0" y="-134.66666666666666"/>
      <point x="278.3333333333333" y="-225.66666666666666"/>
      <point x="176.33333333333334" y="-225.66666666666666" type="curve" smooth="yes"/>
      <point x="155.33333333333334" y="-225.66666666666666"/>
      <point x="125.0" y="-218.0"/>
      <point x="114.33333333333333" y="-201.33333333333334" type="curve"/>
      <point x="118.33333333333333" y="-192.33333333333334"/>
      <point x="120.33333333333333" y="-182.33333333333334"/>
      <point x="120.33333333333333" y="-174.0" type="curve" smooth="yes"/>
      <point x="120.33333333333333" y="-140.66666666666666"/>
      <point x="97.33333333333333" y="-122.33333333333333"/>
      <point x="69.33333333333333" y="-122.33333333333333" type="curve" smooth="yes"/>
      <point x="35.666666666666664" y="-122.33333333333333"/>
      <point x="15.666666666666666" y="-152.33333333333334"/>
      <point x="15.666666666666666" y="-180.66666666666666" type="curve" smooth="yes"/>
      <point x="17.0" y="-246.33333333333334"/>
      <point x="103.66666666666667" y="-271.0"/>
    </contour>
    <contour>
      <point x="198.0" y="50.0" type="curve" smooth="yes"/>
      <point x="154.0" y="50.0"/>
      <point x="135.66666666666666" y="109.0"/>
      <point x="135.66666666666666" y="188.66666666666666" type="curve" smooth="yes"/>
      <point x="135.66666666666666" y="322.6666666666667"/>
      <point x="178.33333333333334" y="464.6666666666667"/>
      <point x="307.0" y="465.0" type="curve" smooth="yes"/>
      <point x="328.6666666666667" y="465.0"/>
      <point x="351.6666666666667" y="461.3333333333333"/>
      <point x="366.3333333333333" y="454.3333333333333" type="curve"/>
      <point x="357.6666666666667" y="290.3333333333333"/>
      <point x="284.6666666666667" y="50.0"/>
    </contour>
  </outline>
</glyph>
<glyph name="h" format="2">
  <advance width="572.6666666666666"/>
  <unicode hex="0068"/>
  <anchor x="295.0" y="254.0" name="center"/>
  <anchor x="167.0" y="699.6666666666666" name="top"/>
  <outline>
    <contour>
      <point x="427.0" y="-11.0" type="curve" smooth="yes"/>
      <point x="510.3333333333333" y="-11.0"/>
      <point x="552.3333333333334" y="84.66666666666667"/>
      <point x="562.0" y="134.33333333333334" type="curve"/>
      <point x="527.3333333333334" y="144.33333333333334" type="line"/>
      <point x="508.3333333333333" y="76.33333333333333"/>
      <point x="482.3333333333333" y="53.33333333333333"/>
      <point x="462.6666666666667" y="53.33333333333333" type="curve" smooth="yes"/>
      <point x="444.0" y="53.33333333333333"/>
      <point x="439.6666666666667" y="69.33333333333333"/>
      <point x="439.6666666666667" y="92.66666666666667" type="curve" smooth="yes"/>
      <point x="439.6666666666667" y="155.66666666666666"/>
      <point x="466.6666666666667" y="275.3333333333333"/>
      <point x="466.6666666666667" y="373.0" type="curve" smooth="yes"/>
      <point x="466.6666666666667" y="451.0"/>
      <point x="434.3333333333333" y="511.0"/>
      <point x="352.6666666666667" y="511.0" type="curve" smooth="yes"/>
      <point x="290.3333333333333" y="511.0"/>
      <point x="225.0" y="473.3333333333333"/>
      <point x="164.33333333333334" y="312.0" type="curve"/>
      <point x="162.0" y="312.0" type="line"/>
      <point x="170.33333333333334" y="382.3333333333333"/>
      <point x="184.66666666666666" y="521.0"/>
      <point x="191.33333333333334" y="573.6666666666666" type="curve" smooth="yes"/>
      <point x="197.33333333333334" y="617.0"/>
      <point x="210.0" y="702.3333333333334"/>
      <point x="217.66666666666666" y="755.0" type="curve"/>
      <point x="180.33333333333334" y="755.0" type="line"/>
      <point x="165.0" y="741.3333333333334"/>
      <point x="134.66666666666666" y="727.0"/>
      <point x="45.0" y="727.0" type="curve"/>
      <point x="41.0" y="675.0" type="line"/>
      <point x="111.0" y="678.6666666666666" type="line"/>
      <point x="107.0" y="658.3333333333334"/>
      <point x="104.66666666666667" y="642.6666666666666"/>
      <point x="100.66666666666667" y="612.3333333333334" type="curve" smooth="yes"/>
      <point x="80.66666666666667" y="469.3333333333333"/>
      <point x="57.0" y="148.66666666666666"/>
      <point x="57.0" y="33.333333333333336" type="curve" smooth="yes"/>
      <point x="57.0" y="21.666666666666664"/>
      <point x="57.0" y="15.333333333333332"/>
      <point x="58.666666666666664" y="0.0" type="curve"/>
      <point x="156.0" y="0.0" type="line"/>
      <point x="155.0" y="16.666666666666668"/>
      <point x="153.66666666666666" y="40.0"/>
      <point x="153.66666666666666" y="59.333333333333336" type="curve" smooth="yes"/>
      <point x="153.66666666666666" y="229.33333333333334"/>
      <point x="248.0" y="449.0"/>
      <point x="327.6666666666667" y="449.0" type="curve" smooth="yes"/>
      <point x="360.3333333333333" y="449.0"/>
      <point x="369.0" y="419.6666666666667"/>
      <point x="369.0" y="394.3333333333333" type="curve" smooth="yes"/>
      <point x="369.0" y="303.6666666666667"/>
      <point x="341.3333333333333" y="167.0"/>
      <point x="341.3333333333333" y="90.66666666666667" type="curve" smooth="yes"/>
      <point x="341.3333333333333" y="25.666666666666668"/>
      <point x="360.3333333333333" y="-11.0"/>
    </contour>
  </outline>
</glyph>
<glyph name="i" format="2">
  <advance width="330.6666666666667"/>
  <unicode hex="0069"/>
  <anchor x="152.33333333333334" y="0.0" name="bottom"/>
  <outline>
    <contour>
      <point x="140.66666666666666" y="511.0" type="curve" smooth="yes"/>
      <point x="57.333333333333336" y="511.0"/>
      <point x="15.0" y="415.3333333333333"/>
      <point x="5.333333333333334" y="365.0" type="curve"/>
      <point x="42.0" y="355.6666666666667" type="line"/>
      <point x="61.0" y="423.0"/>
      <point x="87.0" y="446.6666666666667"/>
      <point x="106.66666666666667" y="446.6666666666667" type="curve" smooth="yes"/>
      <point x="124.66666666666667" y="446.6666666666667"/>
      <point x="130.66666666666666" y="426.6666666666667"/>
      <point x="130.66666666666666" y="408.0" type="curve" smooth="yes"/>
      <point x="130.66666666666666" y="311.0"/>
      <point x="93.66666666666667" y="192.66666666666666"/>
      <point x="93.66666666666667" y="89.33333333333333" type="curve" smooth="yes"/>
      <point x="93.66666666666667" y="24.333333333333332"/>
      <point x="120.33333333333333" y="-11.0"/>
      <point x="185.66666666666666" y="-11.0" type="curve" smooth="yes"/>
      <point x="265.6666666666667" y="-11.0"/>
      <point x="307.3333333333333" y="78.66666666666667"/>
      <point x="319.0" y="135.0" type="curve"/>
      <point x="282.3333333333333" y="144.33333333333334" type="line"/>
      <point x="263.3333333333333" y="77.0"/>
      <point x="237.33333333333334" y="53.33333333333333"/>
      <point x="217.33333333333334" y="53.33333333333333" type="curve" smooth="yes"/>
      <point x="200.33333333333334" y="53.33333333333333"/>
      <point x="191.66666666666666" y="64.66666666666667"/>
      <point x="191.66666666666666" y="90.0" type="curve" smooth="yes"/>
      <point x="191.66666666666666" y="179.33333333333334"/>
      <point x="227.66666666666666" y="328.0"/>
      <point x="227.66666666666666" y="403.0" type="curve" smooth="yes"/>
      <point x="227.66666666666666" y="468.0"/>
      <point x="201.0" y="511.0"/>
    </contour>
    <contour>
      <point x="190.33333333333334" y="739.0" type="curve" smooth="yes"/>
      <point x="157.66666666666666" y="739.0"/>
      <point x="128.33333333333334" y="711.3333333333334"/>
      <point x="127.66666666666667" y="673.3333333333334" type="curve" smooth="yes"/>
      <point x="127.0" y="635.6666666666666"/>
      <point x="153.0" y="609.0"/>
      <point x="187.66666666666666" y="609.0" type="curve" smooth="yes"/>
      <point x="221.66666666666666" y="609.0"/>
      <point x="249.0" y="635.6666666666666"/>
      <point x="249.66666666666666" y="673.3333333333334" type="curve" smooth="yes"/>
      <point x="250.33333333333334" y="711.3333333333334"/>
      <point x="225.66666666666666" y="739.0"/>
    </contour>
  </outline>
</glyph>
<glyph name="j" format="2">
  <advance width="302.3333333333333"/>
  <unicode hex="006A"/>
  <outline>
    <contour>
      <point x="148.33333333333334" y="511.0" type="curve" smooth="yes"/>
      <point x="62.666666666666664" y="511.0"/>
      <point x="23.666666666666668" y="412.6666666666667"/>
      <point x="15.0" y="362.3333333333333" type="curve"/>
      <point x="52.0" y="353.0" type="line"/>
      <point x="69.66666666666667" y="420.3333333333333"/>
      <point x="94.33333333333333" y="444.6666666666667"/>
      <point x="112.66666666666667" y="445.3333333333333" type="curve" smooth="yes"/>
      <point x="130.33333333333334" y="446.0"/>
      <point x="137.66666666666666" y="428.6666666666667"/>
      <point x="138.33333333333334" y="408.6666666666667" type="curve" smooth="yes"/>
      <point x="140.33333333333334" y="348.6666666666667"/>
      <point x="137.0" y="260.3333333333333"/>
      <point x="131.0" y="181.66666666666666" type="curve" smooth="yes"/>
      <point x="127.0" y="131.0"/>
      <point x="105.66666666666667" y="-221.33333333333334"/>
      <point x="7.0" y="-221.66666666666666" type="curve" smooth="yes"/>
      <point x="0.33333333333333304" y="-221.66666666666666"/>
      <point x="-7.333333333333334" y="-220.0"/>
      <point x="-11.333333333333334" y="-217.66666666666666" type="curve"/>
      <point x="-6.0" y="-180.66666666666666"/>
      <point x="-28.0" y="-158.33333333333334"/>
      <point x="-55.666666666666664" y="-158.0" type="curve" smooth="yes"/>
      <point x="-90.66666666666667" y="-157.33333333333334"/>
      <point x="-105.33333333333333" y="-187.33333333333334"/>
      <point x="-105.33333333333333" y="-210.33333333333334" type="curve" smooth="yes"/>
      <point x="-105.33333333333333" y="-251.66666666666666"/>
      <point x="-65.0" y="-271.0"/>
      <point x="-22.0" y="-271.0" type="curve" smooth="yes"/>
      <point x="172.33333333333334" y="-271.0"/>
      <point x="206.33333333333334" y="-22.0"/>
      <point x="225.66666666666666" y="172.66666666666666" type="curve" smooth="yes"/>
      <point x="233.66666666666666" y="258.0"/>
      <point x="236.33333333333334" y="345.0"/>
      <point x="236.0" y="404.3333333333333" type="curve" smooth="yes"/>
      <point x="235.66666666666666" y="473.3333333333333"/>
      <point x="206.66666666666666" y="511.0"/>
    </contour>
    <contour>
      <point x="190.0" y="739.6666666666666" type="curve" smooth="yes"/>
      <point x="157.33333333333334" y="739.6666666666666"/>
      <point x="128.66666666666666" y="711.3333333333334"/>
      <point x="128.0" y="673.3333333333334" type="curve" smooth="yes"/>
      <point x="127.33333333333333" y="635.6666666666666"/>
      <point x="153.33333333333334" y="609.6666666666666"/>
      <point x="187.66666666666666" y="609.6666666666666" type="curve" smooth="yes"/>
      <point x="222.0" y="609.6666666666666"/>
      <point x="249.33333333333334" y="636.3333333333334"/>
      <point x="250.0" y="674.0" type="curve" smooth="yes"/>
      <point x="250.66666666666666" y="712.0"/>
      <point x="225.33333333333334" y="739.6666666666666"/>
    </contour>
  </outline>
</glyph>
<glyph name="k" format="2">
  <advance width="519.3333333333334"/>
  <unicode hex="006B"/>
  <anchor x="265.3333333333333" y="0.0" name="bottom"/>
  <anchor x="201.66666666666666" y="706.3333333333334" name="top"/>
  <outline>
    <contour>
      <point x="379.3333333333333" y="-11.0" type="curve" smooth="yes"/>
      <point x="444.3333333333333" y="-11.0"/>
      <point x="482.0" y="52.666666666666664"/>
      <point x="495.0" y="114.66666666666667" type="curve"/>
      <point x="458.3333333333333" y="123.66666666666666" type="line"/>
      <point x="445.3333333333333" y="73.66666666666667"/>
      <point x="430.0" y="58.0"/>
      <point x="410.6666666666667" y="59.33333333333333" type="curve" smooth="yes"/>
      <point x="386.3333333333333" y="61.33333333333333"/>
      <point x="368.3333333333333" y="107.0"/>
      <point x="348.0" y="152.66666666666666" type="curve" smooth="yes"/>
      <point x="329.6666666666667" y="195.33333333333334"/>
      <point x="309.6666666666667" y="219.0"/>
      <point x="260.3333333333333" y="220.33333333333334" type="curve"/>
      <point x="260.3333333333333" y="221.33333333333334" type="line"/>
      <point x="395.3333333333333" y="247.33333333333334"/>
      <point x="452.3333333333333" y="336.0"/>
      <point x="452.3333333333333" y="403.6666666666667" type="curve" smooth="yes"/>
      <point x="452.3333333333333" y="461.3333333333333"/>
      <point x="422.3333333333333" y="511.0"/>
      <point x="351.6666666666667" y="511.0" type="curve" smooth="yes"/>
      <point x="287.0" y="511.0"/>
      <point x="222.33333333333334" y="469.6666666666667"/>
      <point x="167.66666666666666" y="322.3333333333333" type="curve"/>
      <point x="165.33333333333334" y="322.3333333333333" type="line"/>
      <point x="172.33333333333334" y="401.0"/>
      <point x="181.66666666666666" y="483.3333333333333"/>
      <point x="191.33333333333334" y="563.6666666666666" type="curve" smooth="yes"/>
      <point x="198.33333333333334" y="621.3333333333334"/>
      <point x="208.33333333333334" y="697.3333333333334"/>
      <point x="218.33333333333334" y="755.0" type="curve"/>
      <point x="181.0" y="755.0" type="line"/>
      <point x="165.33333333333334" y="741.3333333333334"/>
      <point x="136.33333333333334" y="727.0"/>
      <point x="46.666666666666664" y="727.0" type="curve"/>
      <point x="42.666666666666664" y="675.0" type="line"/>
      <point x="62.66666666666667" y="676.0"/>
      <point x="90.66666666666667" y="677.6666666666666"/>
      <point x="113.33333333333333" y="678.6666666666666" type="curve"/>
      <point x="109.33333333333333" y="657.6666666666666"/>
      <point x="106.66666666666667" y="643.6666666666666"/>
      <point x="102.33333333333333" y="612.3333333333334" type="curve" smooth="yes"/>
      <point x="76.66666666666667" y="432.6666666666667"/>
      <point x="55.333333333333336" y="107.66666666666667"/>
      <point x="55.333333333333336" y="33.666666666666664" type="curve" smooth="yes"/>
      <point x="55.333333333333336" y="22.0"/>
      <point x="55.333333333333336" y="15.333333333333332"/>
      <point x="57.0" y="0.0" type="curve"/>
      <point x="155.0" y="0.0" type="line"/>
      <point x="153.66666666666666" y="17.333333333333332"/>
      <point x="152.66666666666666" y="38.333333333333336"/>
      <point x="152.66666666666666" y="57.666666666666664" type="curve" smooth="yes"/>
      <point x="152.66666666666666" y="102.0"/>
      <point x="160.0" y="159.33333333333334"/>
      <point x="172.66666666666666" y="208.66666666666666" type="curve"/>
      <point x="181.0" y="209.33333333333334"/>
      <point x="188.33333333333334" y="209.33333333333334"/>
      <point x="196.0" y="208.0" type="curve"/>
      <point x="226.33333333333334" y="204.0"/>
      <point x="239.33333333333334" y="175.33333333333334"/>
      <point x="260.3333333333333" y="119.33333333333333" type="curve" smooth="yes"/>
      <point x="295.6666666666667" y="25.333333333333332"/>
      <point x="325.6666666666667" y="-11.0"/>
    </contour>
    <contour>
      <point x="180.33333333333334" y="249.33333333333334" type="curve"/>
      <point x="211.33333333333334" y="365.3333333333333"/>
      <point x="271.3333333333333" y="455.0"/>
      <point x="318.3333333333333" y="457.6666666666667" type="curve" smooth="yes"/>
      <point x="351.6666666666667" y="459.6666666666667"/>
      <point x="358.3333333333333" y="426.3333333333333"/>
      <point x="358.3333333333333" y="401.0" type="curve" smooth="yes"/>
      <point x="358.3333333333333" y="304.3333333333333"/>
      <point x="298.0" y="249.33333333333334"/>
    </contour>
  </outline>
</glyph>
<glyph name="l" format="2">
  <advance width="289.6666666666667"/>
  <unicode hex="006C"/>
  <anchor x="167.0" y="0.0" name="bottom"/>
  <anchor x="154.0" y="703.6666666666666" name="top"/>
  <anchor x="271.6666666666667" y="508.0" name="topright"/>
  <outline>
    <contour>
      <point x="223.66666666666666" y="755.0" type="curve"/>
      <point x="187.0" y="755.0" type="line"/>
      <point x="170.66666666666666" y="741.3333333333334"/>
      <point x="140.66666666666666" y="727.0"/>
      <point x="52.0" y="727.0" type="curve"/>
      <point x="47.333333333333336" y="675.0" type="line"/>
      <point x="68.0" y="676.0"/>
      <point x="95.0" y="677.6666666666666"/>
      <point x="118.0" y="678.6666666666666" type="curve"/>
      <point x="115.0" y="659.6666666666666"/>
      <point x="112.66666666666667" y="644.3333333333334"/>
      <point x="107.66666666666667" y="611.6666666666666" type="curve" smooth="yes"/>
      <point x="85.0" y="437.6666666666667"/>
      <point x="56.333333333333336" y="171.33333333333334"/>
      <point x="57.666666666666664" y="75.0" type="curve" smooth="yes"/>
      <point x="58.333333333333336" y="16.333333333333332"/>
      <point x="88.33333333333333" y="-11.0"/>
      <point x="141.0" y="-11.0" type="curve" smooth="yes"/>
      <point x="226.33333333333334" y="-11.0"/>
      <point x="266.6666666666667" y="81.33333333333333"/>
      <point x="278.3333333333333" y="134.33333333333334" type="curve"/>
      <point x="241.66666666666666" y="144.33333333333334" type="line"/>
      <point x="222.66666666666666" y="76.33333333333333"/>
      <point x="196.66666666666666" y="53.33333333333333"/>
      <point x="176.66666666666666" y="53.33333333333333" type="curve" smooth="yes"/>
      <point x="157.66666666666666" y="53.33333333333333"/>
      <point x="154.0" y="72.33333333333333"/>
      <point x="154.0" y="97.66666666666667" type="curve" smooth="yes"/>
      <point x="154.0" y="179.66666666666666"/>
      <point x="175.0" y="384.0"/>
      <point x="200.0" y="585.0" type="curve" smooth="yes"/>
      <point x="205.0" y="632.0"/>
      <point x="216.66666666666666" y="700.6666666666666"/>
    </contour>
  </outline>
</glyph>
<glyph name="m" format="2">
  <advance width="876.6666666666666"/>
  <unicode hex="006D"/>
  <outline>
    <contour>
      <point x="729.0" y="-11.0" type="curve" smooth="yes"/>
      <point x="812.6666666666666" y="-11.0"/>
      <point x="857.0" y="84.66666666666667"/>
      <point x="867.0" y="134.33333333333334" type="curve"/>
      <point x="830.0" y="144.33333333333334" type="line"/>
      <point x="811.0" y="76.33333333333333"/>
      <point x="784.3333333333334" y="53.33333333333333"/>
      <point x="764.6666666666666" y="53.33333333333333" type="curve" smooth="yes"/>
      <point x="746.3333333333334" y="53.33333333333333"/>
      <point x="741.6666666666666" y="69.33333333333333"/>
      <point x="741.6666666666666" y="92.66666666666667" type="curve" smooth="yes"/>
      <point x="741.6666666666666" y="155.66666666666666"/>
      <point x="772.0" y="275.3333333333333"/>
      <point x="772.0" y="373.0" type="curve" smooth="yes"/>
      <point x="772.0" y="451.0"/>
      <point x="743.3333333333334" y="511.0"/>
      <point x="661.6666666666666" y="511.0" type="curve" smooth="yes"/>
      <point x="606.0" y="511.0"/>
      <point x="541.0" y="475.3333333333333"/>
      <point x="481.3333333333333" y="314.0" type="curve"/>
      <point x="479.0" y="314.0" type="line"/>
      <point x="487.6666666666667" y="351.6666666666667"/>
      <point x="491.0" y="367.6666666666667"/>
      <point x="491.0" y="396.6666666666667" type="curve" smooth="yes"/>
      <point x="491.0" y="453.3333333333333"/>
      <point x="462.0" y="511.0"/>
      <point x="387.0" y="511.0" type="curve" smooth="yes"/>
      <point x="331.3333333333333" y="511.0"/>
      <point x="264.6666666666667" y="473.3333333333333"/>
      <point x="207.0" y="312.0" type="curve"/>
      <point x="204.66666666666666" y="312.0" type="line"/>
      <point x="209.0" y="338.3333333333333"/>
      <point x="215.33333333333334" y="368.6666666666667"/>
      <point x="216.66666666666666" y="402.6666666666667" type="curve" smooth="yes"/>
      <point x="218.66666666666666" y="467.0"/>
      <point x="197.0" y="511.0"/>
      <point x="139.33333333333334" y="511.0" type="curve" smooth="yes"/>
      <point x="57.0" y="511.0"/>
      <point x="18.0" y="415.3333333333333"/>
      <point x="8.0" y="365.0" type="curve"/>
      <point x="45.0" y="355.6666666666667" type="line"/>
      <point x="64.0" y="423.0"/>
      <point x="90.0" y="446.6666666666667"/>
      <point x="109.66666666666667" y="446.6666666666667" type="curve" smooth="yes"/>
      <point x="127.33333333333333" y="446.6666666666667"/>
      <point x="132.33333333333334" y="431.3333333333333"/>
      <point x="132.33333333333334" y="408.0" type="curve" smooth="yes"/>
      <point x="132.33333333333334" y="379.0"/>
      <point x="127.33333333333333" y="351.6666666666667"/>
      <point x="112.33333333333333" y="222.33333333333334" type="curve" smooth="yes"/>
      <point x="99.33333333333333" y="117.33333333333333"/>
      <point x="94.33333333333333" y="69.0"/>
      <point x="94.33333333333333" y="33.333333333333336" type="curve" smooth="yes"/>
      <point x="94.33333333333333" y="21.666666666666664"/>
      <point x="94.33333333333333" y="15.333333333333332"/>
      <point x="96.0" y="0.0" type="curve"/>
      <point x="194.66666666666666" y="0.0" type="line"/>
      <point x="193.66666666666666" y="16.666666666666668"/>
      <point x="192.33333333333334" y="40.0"/>
      <point x="192.33333333333334" y="59.333333333333336" type="curve" smooth="yes"/>
      <point x="192.33333333333334" y="218.66666666666666"/>
      <point x="279.0" y="449.0"/>
      <point x="360.6666666666667" y="449.0" type="curve" smooth="yes"/>
      <point x="393.3333333333333" y="449.0"/>
      <point x="401.3333333333333" y="422.3333333333333"/>
      <point x="402.0" y="397.0" type="curve" smooth="yes"/>
      <point x="403.3333333333333" y="320.3333333333333"/>
      <point x="370.3333333333333" y="145.0"/>
      <point x="370.3333333333333" y="39.666666666666664" type="curve" smooth="yes"/>
      <point x="370.3333333333333" y="28.333333333333332"/>
      <point x="370.3333333333333" y="15.333333333333332"/>
      <point x="372.0" y="0.0" type="curve"/>
      <point x="471.0" y="0.0" type="line"/>
      <point x="469.6666666666667" y="19.666666666666668"/>
      <point x="468.6666666666667" y="41.666666666666664"/>
      <point x="468.6666666666667" y="61.0" type="curve" smooth="yes"/>
      <point x="468.6666666666667" y="220.33333333333334"/>
      <point x="552.3333333333334" y="449.0"/>
      <point x="635.3333333333334" y="449.0" type="curve" smooth="yes"/>
      <point x="668.3333333333334" y="449.0"/>
      <point x="676.6666666666666" y="419.6666666666667"/>
      <point x="676.6666666666666" y="394.3333333333333" type="curve" smooth="yes"/>
      <point x="676.6666666666666" y="303.0"/>
      <point x="644.3333333333334" y="166.33333333333334"/>
      <point x="644.3333333333334" y="90.66666666666667" type="curve" smooth="yes"/>
      <point x="644.3333333333334" y="25.666666666666668"/>
      <point x="662.3333333333334" y="-11.0"/>
    </contour>
  </outline>
</glyph>
<glyph name="n" format="2">
  <advance width="613.3333333333334"/>
  <unicode hex="006E"/>
  <anchor x="317.6666666666667" y="0.0" name="bottom"/>
  <anchor x="339.6666666666667" y="508.0" name="top"/>
  <outline>
    <contour>
      <point x="466.3333333333333" y="-11.0" type="curve" smooth="yes"/>
      <point x="549.6666666666666" y="-11.0"/>
      <point x="593.6666666666666" y="84.66666666666667"/>
      <point x="603.3333333333334" y="134.33333333333334" type="curve"/>
      <point x="566.6666666666666" y="144.33333333333334" type="line"/>
      <point x="547.6666666666666" y="76.33333333333333"/>
      <point x="521.6666666666666" y="53.33333333333333"/>
      <point x="502.0" y="53.33333333333333" type="curve" smooth="yes"/>
      <point x="483.6666666666667" y="53.33333333333333"/>
      <point x="479.0" y="69.33333333333333"/>
      <point x="479.0" y="92.66666666666667" type="curve" smooth="yes"/>
      <point x="479.0" y="155.66666666666666"/>
      <point x="507.3333333333333" y="275.3333333333333"/>
      <point x="507.3333333333333" y="373.0" type="curve" smooth="yes"/>
      <point x="507.3333333333333" y="451.0"/>
      <point x="476.3333333333333" y="511.0"/>
      <point x="394.6666666666667" y="511.0" type="curve" smooth="yes"/>
      <point x="332.0" y="511.0"/>
      <point x="267.3333333333333" y="470.0"/>
      <point x="206.33333333333334" y="308.6666666666667" type="curve"/>
      <point x="204.0" y="308.6666666666667" type="line"/>
      <point x="208.33333333333334" y="333.6666666666667"/>
      <point x="214.0" y="362.0"/>
      <point x="216.0" y="395.3333333333333" type="curve" smooth="yes"/>
      <point x="218.66666666666666" y="462.3333333333333"/>
      <point x="198.33333333333334" y="511.0"/>
      <point x="138.66666666666666" y="511.0" type="curve" smooth="yes"/>
      <point x="56.333333333333336" y="511.0"/>
      <point x="17.333333333333332" y="415.3333333333333"/>
      <point x="7.333333333333333" y="365.0" type="curve"/>
      <point x="44.33333333333333" y="355.6666666666667" type="line"/>
      <point x="63.33333333333333" y="423.0"/>
      <point x="89.33333333333333" y="446.6666666666667"/>
      <point x="109.0" y="446.6666666666667" type="curve" smooth="yes"/>
      <point x="126.66666666666667" y="446.6666666666667"/>
      <point x="131.66666666666666" y="431.3333333333333"/>
      <point x="131.66666666666666" y="408.0" type="curve" smooth="yes"/>
      <point x="131.66666666666666" y="379.6666666666667"/>
      <point x="127.66666666666667" y="354.0"/>
      <point x="112.66666666666667" y="226.0" type="curve" smooth="yes"/>
      <point x="99.66666666666667" y="119.66666666666666"/>
      <point x="93.66666666666667" y="69.66666666666667"/>
      <point x="93.66666666666667" y="33.333333333333336" type="curve" smooth="yes"/>
      <point x="93.66666666666667" y="21.666666666666664"/>
      <point x="93.66666666666667" y="15.333333333333332"/>
      <point x="95.33333333333333" y="0.0" type="curve"/>
      <point x="194.33333333333334" y="0.0" type="line"/>
      <point x="193.33333333333334" y="16.666666666666668"/>
      <point x="192.0" y="40.0"/>
      <point x="192.0" y="59.333333333333336" type="curve" smooth="yes"/>
      <point x="192.0" y="218.66666666666666"/>
      <point x="287.6666666666667" y="449.0"/>
      <point x="369.3333333333333" y="449.0" type="curve" smooth="yes"/>
      <point x="402.0" y="449.0"/>
      <point x="410.0" y="419.6666666666667"/>
      <point x="410.0" y="394.3333333333333" type="curve" smooth="yes"/>
      <point x="410.0" y="302.3333333333333"/>
      <point x="381.0" y="167.0"/>
      <point x="381.0" y="90.66666666666667" type="curve" smooth="yes"/>
      <point x="381.0" y="25.666666666666668"/>
      <point x="399.6666666666667" y="-11.0"/>
    </contour>
  </outline>
</glyph>
<glyph name="o" format="2">
  <advance width="519.0"/>
  <unicode hex="006F"/>
  <anchor x="247.0" y="0.0" name="bottom"/>
  <anchor x="260.0" y="254.0" name="center"/>
  <anchor x="454.0" y="5.0" name="ogonek"/>
  <anchor x="286.3333333333333" y="508.0" name="top"/>
  <anchor x="428.3333333333333" y="504.0" name="topright"/>
  <outline>
    <contour>
      <point x="283.6666666666667" y="511.0" type="curve" smooth="yes"/>
      <point x="129.66666666666666" y="511.0"/>
      <point x="35.333333333333336" y="375.3333333333333"/>
      <point x="35.333333333333336" y="214.0" type="curve" smooth="yes"/>
      <point x="35.333333333333336" y="89.66666666666667"/>
      <point x="97.33333333333333" y="-11.0"/>
      <point x="230.33333333333334" y="-11.0" type="curve" smooth="yes"/>
      <point x="385.6666666666667" y="-11.0"/>
      <point x="477.3333333333333" y="130.33333333333334"/>
      <point x="477.3333333333333" y="290.6666666666667" type="curve" smooth="yes"/>
      <point x="477.3333333333333" y="431.3333333333333"/>
      <point x="393.0" y="511.0"/>
    </contour>
    <contour>
      <point x="268.6666666666667" y="464.3333333333333" type="curve" smooth="yes"/>
      <point x="356.3333333333333" y="462.6666666666667"/>
      <point x="374.6666666666667" y="347.3333333333333"/>
      <point x="372.6666666666667" y="260.3333333333333" type="curve" smooth="yes"/>
      <point x="370.6666666666667" y="168.33333333333334"/>
      <point x="335.3333333333333" y="35.0"/>
      <point x="241.66666666666666" y="36.33333333333333" type="curve" smooth="yes"/>
      <point x="159.0" y="37.666666666666664"/>
      <point x="138.0" y="157.33333333333334"/>
      <point x="139.33333333333334" y="245.33333333333334" type="curve" smooth="yes"/>
      <point x="140.66666666666666" y="367.3333333333333"/>
      <point x="189.0" y="465.3333333333333"/>
    </contour>
  </outline>
</glyph>
<glyph name="p" format="2">
  <advance width="572.3333333333334"/>
  <unicode hex="0070"/>
  <outline>
    <contour>
      <point x="37.333333333333336" y="-255.0" type="line"/>
      <point x="247.66666666666666" y="-255.0" type="line"/>
      <point x="247.66666666666666" y="-202.33333333333334" type="line"/>
      <point x="229.0" y="-203.0"/>
      <point x="204.66666666666666" y="-204.0"/>
      <point x="183.66666666666666" y="-205.33333333333334" type="curve"/>
      <point x="189.0" y="-181.0"/>
      <point x="190.0" y="-143.0"/>
      <point x="198.33333333333334" y="-8.666666666666666" type="curve"/>
      <point x="212.0" y="-10.333333333333334"/>
      <point x="226.66666666666666" y="-11.0"/>
      <point x="240.33333333333334" y="-11.0" type="curve" smooth="yes"/>
      <point x="432.6666666666667" y="-11.0"/>
      <point x="531.0" y="125.33333333333333"/>
      <point x="531.0" y="318.0" type="curve" smooth="yes"/>
      <point x="531.0" y="425.6666666666667"/>
      <point x="485.0" y="511.0"/>
      <point x="391.6666666666667" y="511.0" type="curve" smooth="yes"/>
      <point x="334.6666666666667" y="511.0"/>
      <point x="268.3333333333333" y="477.3333333333333"/>
      <point x="216.0" y="314.6666666666667" type="curve"/>
      <point x="213.66666666666666" y="314.6666666666667" type="line"/>
      <point x="218.66666666666666" y="342.3333333333333"/>
      <point x="224.33333333333334" y="375.3333333333333"/>
      <point x="224.33333333333334" y="410.6666666666667" type="curve" smooth="yes"/>
      <point x="224.33333333333334" y="471.6666666666667"/>
      <point x="200.66666666666666" y="511.0"/>
      <point x="146.33333333333334" y="511.0" type="curve" smooth="yes"/>
      <point x="63.666666666666664" y="511.0"/>
      <point x="24.666666666666668" y="415.3333333333333"/>
      <point x="15.0" y="365.0" type="curve"/>
      <point x="52.333333333333336" y="355.6666666666667" type="line"/>
      <point x="71.33333333333333" y="423.0"/>
      <point x="96.66666666666667" y="446.6666666666667"/>
      <point x="116.33333333333333" y="446.6666666666667" type="curve" smooth="yes"/>
      <point x="136.33333333333334" y="446.6666666666667"/>
      <point x="139.33333333333334" y="427.0"/>
      <point x="139.33333333333334" y="401.6666666666667" type="curve" smooth="yes"/>
      <point x="139.33333333333334" y="353.6666666666667"/>
      <point x="120.66666666666667" y="167.66666666666666"/>
      <point x="99.0" y="-90.0" type="curve" smooth="yes"/>
      <point x="93.33333333333333" y="-159.33333333333334"/>
      <point x="91.33333333333333" y="-213.33333333333334"/>
      <point x="37.333333333333336" y="-213.33333333333334" type="curve"/>
    </contour>
    <contour>
      <point x="255.66666666666666" y="33.666666666666664" type="curve" smooth="yes"/>
      <point x="238.33333333333334" y="33.666666666666664"/>
      <point x="220.33333333333334" y="37.666666666666664"/>
      <point x="201.66666666666666" y="43.666666666666664" type="curve"/>
      <point x="204.66666666666666" y="80.0"/>
      <point x="208.0" y="111.66666666666667"/>
      <point x="212.66666666666666" y="142.66666666666666" type="curve" smooth="yes"/>
      <point x="236.33333333333334" y="305.6666666666667"/>
      <point x="298.6666666666667" y="449.3333333333333"/>
      <point x="365.3333333333333" y="449.3333333333333" type="curve" smooth="yes"/>
      <point x="411.6666666666667" y="449.3333333333333"/>
      <point x="428.3333333333333" y="391.3333333333333"/>
      <point x="428.3333333333333" y="305.6666666666667" type="curve" smooth="yes"/>
      <point x="428.3333333333333" y="198.66666666666666"/>
      <point x="387.6666666666667" y="33.666666666666664"/>
    </contour>
  </outline>
</glyph>
<glyph name="q" format="2">
  <advance width="519.3333333333334"/>
  <unicode hex="0071"/>
  <outline>
    <contour>
      <point x="325.3333333333333" y="511.0" type="curve" smooth="yes"/>
      <point x="129.66666666666666" y="509.6666666666667"/>
      <point x="33.666666666666664" y="365.6666666666667"/>
      <point x="34.333333333333336" y="175.66666666666666" type="curve" smooth="yes"/>
      <point x="35.0" y="73.0"/>
      <point x="80.0" y="-12.333333333333334"/>
      <point x="173.0" y="-11.0" type="curve" smooth="yes"/>
      <point x="228.0" y="-10.333333333333334"/>
      <point x="292.6666666666667" y="18.0"/>
      <point x="345.3333333333333" y="174.0" type="curve"/>
      <point x="347.6666666666667" y="174.0" type="line"/>
      <point x="337.6666666666667" y="101.66666666666667"/>
      <point x="329.0" y="18.333333333333332"/>
      <point x="322.6666666666667" y="-60.0" type="curve" smooth="yes"/>
      <point x="315.0" y="-156.66666666666666"/>
      <point x="317.3333333333333" y="-213.33333333333334"/>
      <point x="258.3333333333333" y="-213.33333333333334" type="curve"/>
      <point x="258.3333333333333" y="-255.0" type="line"/>
      <point x="468.6666666666667" y="-255.0" type="line"/>
      <point x="468.6666666666667" y="-202.33333333333334" type="line"/>
      <point x="450.0" y="-203.0"/>
      <point x="425.3333333333333" y="-204.0"/>
      <point x="404.0" y="-205.33333333333334" type="curve"/>
      <point x="409.3333333333333" y="-180.0"/>
      <point x="411.6666666666667" y="-144.66666666666666"/>
      <point x="413.3333333333333" y="-120.33333333333333" type="curve" smooth="yes"/>
      <point x="426.0" y="63.0"/>
      <point x="452.3333333333333" y="321.3333333333333"/>
      <point x="465.6666666666667" y="498.6666666666667" type="curve"/>
      <point x="429.0" y="505.6666666666667"/>
      <point x="361.3333333333333" y="511.0"/>
    </contour>
    <contour>
      <point x="310.0" y="466.3333333333333" type="curve" smooth="yes"/>
      <point x="330.3333333333333" y="466.3333333333333"/>
      <point x="355.3333333333333" y="463.6666666666667"/>
      <point x="371.3333333333333" y="458.3333333333333" type="curve"/>
      <point x="363.6666666666667" y="284.0"/>
      <point x="286.3333333333333" y="51.33333333333333"/>
      <point x="202.33333333333334" y="50.666666666666664" type="curve" smooth="yes"/>
      <point x="158.66666666666666" y="50.666666666666664"/>
      <point x="138.0" y="102.33333333333333"/>
      <point x="137.33333333333334" y="190.33333333333334" type="curve" smooth="yes"/>
      <point x="136.66666666666666" y="313.0"/>
      <point x="179.66666666666666" y="465.0"/>
    </contour>
  </outline>
</glyph>
<glyph name="r" format="2">
  <advance width="456.3333333333333"/>
  <unicode hex="0072"/>
  <anchor x="183.0" y="0.0" name="bottom"/>
  <anchor x="252.66666666666666" y="508.0" name="top"/>
  <outline>
    <contour>
      <point x="98.0" y="0.0" type="curve"/>
      <point x="197.0" y="0.0" type="line"/>
      <point x="196.0" y="16.666666666666668"/>
      <point x="194.66666666666666" y="33.33333333333333"/>
      <point x="194.66666666666666" y="52.666666666666664" type="curve" smooth="yes"/>
      <point x="194.66666666666666" y="208.0"/>
      <point x="277.0" y="453.6666666666667"/>
      <point x="357.6666666666667" y="437.6666666666667" type="curve"/>
      <point x="359.3333333333333" y="409.0"/>
      <point x="381.0" y="392.3333333333333"/>
      <point x="406.6666666666667" y="392.3333333333333" type="curve" smooth="yes"/>
      <point x="438.6666666666667" y="392.3333333333333"/>
      <point x="459.6666666666667" y="419.3333333333333"/>
      <point x="459.6666666666667" y="447.0" type="curve" smooth="yes"/>
      <point x="459.6666666666667" y="486.3333333333333"/>
      <point x="428.3333333333333" y="511.0"/>
      <point x="385.0" y="511.0" type="curve" smooth="yes"/>
      <point x="325.3333333333333" y="511.0"/>
      <point x="261.0" y="471.6666666666667"/>
      <point x="204.33333333333334" y="305.6666666666667" type="curve"/>
      <point x="202.0" y="305.6666666666667" type="line"/>
      <point x="209.0" y="343.6666666666667"/>
      <point x="214.0" y="377.6666666666667"/>
      <point x="215.33333333333334" y="404.6666666666667" type="curve" smooth="yes"/>
      <point x="217.33333333333334" y="474.3333333333333"/>
      <point x="193.0" y="511.0"/>
      <point x="138.66666666666666" y="511.0" type="curve" smooth="yes"/>
      <point x="56.333333333333336" y="511.0"/>
      <point x="17.333333333333332" y="415.3333333333333"/>
      <point x="7.333333333333333" y="365.0" type="curve"/>
      <point x="44.33333333333333" y="355.6666666666667" type="line"/>
      <point x="63.33333333333333" y="423.0"/>
      <point x="89.33333333333333" y="446.6666666666667"/>
      <point x="109.0" y="446.6666666666667" type="curve" smooth="yes"/>
      <point x="130.0" y="446.6666666666667"/>
      <point x="132.33333333333334" y="424.6666666666667"/>
      <point x="131.66666666666666" y="399.3333333333333" type="curve" smooth="yes"/>
      <point x="131.0" y="377.0"/>
      <point x="125.33333333333333" y="340.6666666666667"/>
      <point x="112.66666666666667" y="230.33333333333334" type="curve" smooth="yes"/>
      <point x="100.66666666666667" y="124.0"/>
      <point x="96.33333333333333" y="70.0"/>
      <point x="96.33333333333333" y="33.333333333333336" type="curve" smooth="yes"/>
      <point x="96.33333333333333" y="21.666666666666664"/>
      <point x="96.33333333333333" y="15.333333333333332"/>
    </contour>
  </outline>
</glyph>
<glyph name="s" format="2">
  <advance width="434.0"/>
  <unicode hex="0073"/>
  <anchor x="218.66666666666666" y="0.0" name="bottom"/>
  <anchor x="231.0" y="508.0" name="top"/>
  <outline>
    <contour>
      <point x="193.33333333333334" y="-11.0" type="curve" smooth="yes"/>
      <point x="306.3333333333333" y="-11.0"/>
      <point x="386.6666666666667" y="51.666666666666664"/>
      <point x="386.6666666666667" y="137.66666666666666" type="curve" smooth="yes"/>
      <point x="386.6666666666667" y="222.0"/>
      <point x="298.3333333333333" y="265.6666666666667"/>
      <point x="228.33333333333334" y="306.3333333333333" type="curve" smooth="yes"/>
      <point x="171.33333333333334" y="340.6666666666667"/>
      <point x="142.0" y="362.3333333333333"/>
      <point x="142.0" y="397.0" type="curve" smooth="yes"/>
      <point x="142.0" y="439.3333333333333"/>
      <point x="187.0" y="467.0"/>
      <point x="225.66666666666666" y="467.0" type="curve" smooth="yes"/>
      <point x="261.6666666666667" y="467.0"/>
      <point x="287.6666666666667" y="453.0"/>
      <point x="296.0" y="433.6666666666667" type="curve"/>
      <point x="290.0" y="423.3333333333333"/>
      <point x="288.0" y="413.3333333333333"/>
      <point x="288.0" y="403.3333333333333" type="curve" smooth="yes"/>
      <point x="288.0" y="378.6666666666667"/>
      <point x="306.6666666666667" y="356.3333333333333"/>
      <point x="334.6666666666667" y="356.3333333333333" type="curve" smooth="yes"/>
      <point x="363.6666666666667" y="356.3333333333333"/>
      <point x="383.6666666666667" y="378.6666666666667"/>
      <point x="383.6666666666667" y="409.0" type="curve" smooth="yes"/>
      <point x="383.6666666666667" y="472.0"/>
      <point x="305.6666666666667" y="511.0"/>
      <point x="229.0" y="511.0" type="curve" smooth="yes"/>
      <point x="119.66666666666667" y="511.0"/>
      <point x="50.333333333333336" y="445.0"/>
      <point x="50.333333333333336" y="373.0" type="curve" smooth="yes"/>
      <point x="50.333333333333336" y="311.0"/>
      <point x="102.0" y="274.0"/>
      <point x="173.0" y="232.66666666666666" type="curve" smooth="yes"/>
      <point x="231.66666666666666" y="198.0"/>
      <point x="291.3333333333333" y="167.33333333333334"/>
      <point x="291.3333333333333" y="119.66666666666667" type="curve" smooth="yes"/>
      <point x="291.3333333333333" y="69.0"/>
      <point x="260.3333333333333" y="35.666666666666664"/>
      <point x="193.0" y="35.666666666666664" type="curve" smooth="yes"/>
      <point x="162.33333333333334" y="35.666666666666664"/>
      <point x="125.66666666666667" y="51.666666666666664"/>
      <point x="116.66666666666667" y="75.66666666666667" type="curve"/>
      <point x="122.66666666666667" y="86.33333333333333"/>
      <point x="124.66666666666667" y="96.33333333333333"/>
      <point x="124.66666666666667" y="106.33333333333333" type="curve" smooth="yes"/>
      <point x="124.66666666666667" y="131.66666666666666"/>
      <point x="107.0" y="155.0"/>
      <point x="77.0" y="155.0" type="curve" smooth="yes"/>
      <point x="49.0" y="155.0"/>
      <point x="27.0" y="132.0"/>
      <point x="27.0" y="99.0" type="curve" smooth="yes"/>
      <point x="27.0" y="29.333333333333332"/>
      <point x="107.33333333333333" y="-11.0"/>
    </contour>
  </outline>
</glyph>
<glyph name="t" format="2">
  <advance width="374.3333333333333"/>
  <unicode hex="0074"/>
  <anchor x="205.33333333333334" y="0.0" name="bottom"/>
  <anchor x="162.66666666666666" y="287.3333333333333" name="center"/>
  <outline>
    <contour>
      <point x="229.0" y="644.3333333333334" type="line"/>
      <point x="181.33333333333334" y="644.3333333333334" type="line"/>
      <point x="157.66666666666666" y="551.6666666666666"/>
      <point x="120.0" y="500.0"/>
      <point x="25.666666666666668" y="500.0" type="curve"/>
      <point x="20.666666666666668" y="447.6666666666667" type="line"/>
      <point x="106.66666666666667" y="448.6666666666667" type="line"/>
      <point x="91.66666666666667" y="321.0"/>
      <point x="82.66666666666667" y="194.33333333333334"/>
      <point x="81.66666666666667" y="121.66666666666667" type="curve" smooth="yes"/>
      <point x="81.0" y="52.0"/>
      <point x="104.66666666666667" y="-11.0"/>
      <point x="193.33333333333334" y="-11.0" type="curve" smooth="yes"/>
      <point x="261.0" y="-11.0"/>
      <point x="311.0" y="27.0"/>
      <point x="352.0" y="100.66666666666667" type="curve"/>
      <point x="317.6666666666667" y="122.66666666666667" type="line"/>
      <point x="282.3333333333333" y="61.666666666666664"/>
      <point x="242.66666666666666" y="55.0"/>
      <point x="225.0" y="55.0" type="curve" smooth="yes"/>
      <point x="181.0" y="55.0"/>
      <point x="177.66666666666666" y="100.33333333333333"/>
      <point x="177.66666666666666" y="135.0" type="curve" smooth="yes"/>
      <point x="177.66666666666666" y="209.33333333333334"/>
      <point x="193.66666666666666" y="343.0"/>
      <point x="205.66666666666666" y="449.6666666666667" type="curve"/>
      <point x="354.0" y="451.6666666666667" type="line"/>
      <point x="358.0" y="500.0" type="line"/>
      <point x="210.33333333333334" y="500.0" type="line"/>
    </contour>
  </outline>
</glyph>
<glyph name="u" format="2">
  <advance width="594.6666666666666"/>
  <unicode hex="0075"/>
  <anchor x="284.0" y="0.0" name="bottom"/>
  <anchor x="511.6666666666667" y="5.0" name="ogonek"/>
  <anchor x="311.6666666666667" y="508.0" name="top"/>
  <anchor x="535.0" y="503.3333333333333" name="topright"/>
  <outline>
    <contour>
      <point x="209.0" y="-11.0" type="curve" smooth="yes"/>
      <point x="271.6666666666667" y="-11.0"/>
      <point x="329.0" y="28.666666666666668"/>
      <point x="389.6666666666667" y="190.33333333333334" type="curve"/>
      <point x="392.0" y="190.33333333333334" type="line"/>
      <point x="384.6666666666667" y="149.33333333333334"/>
      <point x="378.3333333333333" y="113.33333333333333"/>
      <point x="378.3333333333333" y="79.33333333333333" type="curve" smooth="yes"/>
      <point x="378.3333333333333" y="19.666666666666668"/>
      <point x="407.3333333333333" y="-11.0"/>
      <point x="457.6666666666667" y="-11.0" type="curve" smooth="yes"/>
      <point x="540.0" y="-11.0"/>
      <point x="579.0" y="84.66666666666667"/>
      <point x="588.6666666666666" y="135.0" type="curve"/>
      <point x="552.0" y="144.33333333333334" type="line"/>
      <point x="533.0" y="77.0"/>
      <point x="507.0" y="54.0"/>
      <point x="487.3333333333333" y="54.0" type="curve" smooth="yes"/>
      <point x="471.0" y="54.0"/>
      <point x="464.6666666666667" y="68.66666666666667"/>
      <point x="464.6666666666667" y="92.0" type="curve" smooth="yes"/>
      <point x="464.6666666666667" y="120.33333333333333"/>
      <point x="468.6666666666667" y="142.33333333333334"/>
      <point x="483.6666666666667" y="270.0" type="curve" smooth="yes"/>
      <point x="496.6666666666667" y="376.6666666666667"/>
      <point x="503.0" y="430.0"/>
      <point x="503.0" y="466.6666666666667" type="curve" smooth="yes"/>
      <point x="503.0" y="478.3333333333333"/>
      <point x="503.0" y="484.6666666666667"/>
      <point x="501.3333333333333" y="500.0" type="curve"/>
      <point x="402.3333333333333" y="500.0" type="line"/>
      <point x="403.6666666666667" y="483.3333333333333"/>
      <point x="404.6666666666667" y="460.0"/>
      <point x="404.6666666666667" y="440.6666666666667" type="curve" smooth="yes"/>
      <point x="404.6666666666667" y="281.3333333333333"/>
      <point x="314.3333333333333" y="51.0"/>
      <point x="234.33333333333334" y="51.0" type="curve" smooth="yes"/>
      <point x="201.66666666666666" y="51.0"/>
      <point x="193.66666666666666" y="81.66666666666667"/>
      <point x="193.66666666666666" y="107.0" type="curve" smooth="yes"/>
      <point x="193.66666666666666" y="183.66666666666666"/>
      <point x="224.33333333333334" y="331.6666666666667"/>
      <point x="224.33333333333334" y="408.6666666666667" type="curve" smooth="yes"/>
      <point x="224.33333333333334" y="473.6666666666667"/>
      <point x="198.66666666666666" y="511.0"/>
      <point x="138.66666666666666" y="511.0" type="curve" smooth="yes"/>
      <point x="55.333333333333336" y="511.0"/>
      <point x="13.333333333333334" y="415.3333333333333"/>
      <point x="3.666666666666667" y="365.0" type="curve"/>
      <point x="40.333333333333336" y="355.6666666666667" type="line"/>
      <point x="59.333333333333336" y="423.0"/>
      <point x="83.33333333333333" y="446.6666666666667"/>
      <point x="103.0" y="446.6666666666667" type="curve" smooth="yes"/>
      <point x="121.33333333333333" y="446.6666666666667"/>
      <point x="126.33333333333333" y="430.6666666666667"/>
      <point x="126.33333333333333" y="406.6666666666667" type="curve" smooth="yes"/>
      <point x="126.33333333333333" y="344.3333333333333"/>
      <point x="96.33333333333333" y="225.33333333333334"/>
      <point x="96.33333333333333" y="127.0" type="curve" smooth="yes"/>
      <point x="96.33333333333333" y="49.666666666666664"/>
      <point x="127.33333333333333" y="-11.0"/>
    </contour>
  </outline>
</glyph>
<glyph name="v" format="2">
  <advance width="525.0"/>
  <unicode hex="0076"/>
  <outline>
    <contour>
      <point x="362.3333333333333" y="511.0" type="curve" smooth="yes"/>
      <point x="314.6666666666667" y="511.0"/>
      <point x="299.0" y="477.0"/>
      <point x="299.0" y="454.3333333333333" type="curve"/>
      <point x="299.6666666666667" y="419.6666666666667"/>
      <point x="326.6666666666667" y="405.6666666666667"/>
      <point x="347.6666666666667" y="405.6666666666667" type="curve" smooth="yes"/>
      <point x="365.3333333333333" y="405.6666666666667"/>
      <point x="380.3333333333333" y="413.3333333333333"/>
      <point x="389.6666666666667" y="428.3333333333333" type="curve"/>
      <point x="439.0" y="405.0"/>
      <point x="432.0" y="301.3333333333333"/>
      <point x="420.6666666666667" y="256.0" type="curve" smooth="yes"/>
      <point x="400.6666666666667" y="145.33333333333334"/>
      <point x="315.0" y="51.333333333333336"/>
      <point x="247.0" y="50.0" type="curve" smooth="yes"/>
      <point x="204.33333333333334" y="49.333333333333336"/>
      <point x="202.33333333333334" y="91.33333333333333"/>
      <point x="203.0" y="119.66666666666667" type="curve" smooth="yes"/>
      <point x="204.33333333333334" y="185.0"/>
      <point x="222.33333333333334" y="326.3333333333333"/>
      <point x="221.66666666666666" y="409.0" type="curve" smooth="yes"/>
      <point x="220.33333333333334" y="471.3333333333333"/>
      <point x="195.33333333333334" y="512.3333333333334"/>
      <point x="134.33333333333334" y="511.0" type="curve" smooth="yes"/>
      <point x="51.0" y="509.6666666666667"/>
      <point x="10.333333333333334" y="414.6666666666667"/>
      <point x="1.3333333333333335" y="364.3333333333333" type="curve"/>
      <point x="38.0" y="354.3333333333333" type="line"/>
      <point x="56.333333333333336" y="422.3333333333333"/>
      <point x="79.66666666666667" y="446.0"/>
      <point x="99.33333333333333" y="446.0" type="curve" smooth="yes"/>
      <point x="117.66666666666667" y="446.0"/>
      <point x="123.33333333333333" y="430.6666666666667"/>
      <point x="123.33333333333333" y="407.3333333333333" type="curve" smooth="yes"/>
      <point x="123.33333333333333" y="352.6666666666667"/>
      <point x="103.33333333333333" y="223.33333333333334"/>
      <point x="104.66666666666667" y="126.33333333333333" type="curve"/>
      <point x="106.0" y="48.0"/>
      <point x="137.33333333333334" y="-11.666666666666666"/>
      <point x="223.0" y="-11.0" type="curve" smooth="yes"/>
      <point x="347.3333333333333" y="-10.333333333333334"/>
      <point x="444.0" y="127.0"/>
      <point x="470.6666666666667" y="243.66666666666666" type="curve" smooth="yes"/>
      <point x="505.3333333333333" y="368.6666666666667"/>
      <point x="471.6666666666667" y="511.0"/>
    </contour>
  </outline>
</glyph>
<glyph name="w" format="2">
  <advance width="799.0"/>
  <unicode hex="0077"/>
  <anchor x="422.6666666666667" y="508.0" name="top"/>
  <outline>
    <contour>
      <point x="638.0" y="511.0" type="curve" smooth="yes"/>
      <point x="589.0" y="511.0"/>
      <point x="572.6666666666666" y="479.0"/>
      <point x="572.6666666666666" y="455.0" type="curve" smooth="yes"/>
      <point x="572.6666666666666" y="420.3333333333333"/>
      <point x="600.3333333333334" y="405.6666666666667"/>
      <point x="621.3333333333334" y="405.6666666666667" type="curve" smooth="yes"/>
      <point x="639.0" y="405.6666666666667"/>
      <point x="654.6666666666666" y="413.3333333333333"/>
      <point x="664.0" y="428.3333333333333" type="curve"/>
      <point x="712.6666666666666" y="405.0"/>
      <point x="705.6666666666666" y="301.3333333333333"/>
      <point x="694.3333333333334" y="256.0" type="curve" smooth="yes"/>
      <point x="671.6666666666666" y="140.33333333333334"/>
      <point x="584.6666666666666" y="48.0"/>
      <point x="511.0" y="48.666666666666664" type="curve"/>
      <point x="470.6666666666667" y="49.333333333333336"/>
      <point x="461.6666666666667" y="86.66666666666667"/>
      <point x="461.6666666666667" y="119.66666666666667" type="curve" smooth="yes"/>
      <point x="461.6666666666667" y="200.33333333333334"/>
      <point x="491.3333333333333" y="336.0"/>
      <point x="491.3333333333333" y="454.0" type="curve" smooth="yes"/>
      <point x="491.3333333333333" y="465.0"/>
      <point x="490.6666666666667" y="483.3333333333333"/>
      <point x="488.0" y="500.0" type="curve"/>
      <point x="387.6666666666667" y="500.0" type="line"/>
      <point x="391.3333333333333" y="468.0"/>
      <point x="393.3333333333333" y="430.6666666666667"/>
      <point x="393.3333333333333" y="401.3333333333333" type="curve" smooth="yes"/>
      <point x="393.3333333333333" y="215.33333333333331"/>
      <point x="325.0" y="49.333333333333336"/>
      <point x="236.0" y="49.333333333333336" type="curve" smooth="yes"/>
      <point x="204.33333333333334" y="49.333333333333336"/>
      <point x="198.0" y="82.0"/>
      <point x="198.0" y="108.33333333333333" type="curve" smooth="yes"/>
      <point x="198.0" y="166.33333333333334"/>
      <point x="224.0" y="321.0"/>
      <point x="224.0" y="407.6666666666667" type="curve" smooth="yes"/>
      <point x="224.0" y="470.0"/>
      <point x="198.66666666666666" y="511.0"/>
      <point x="137.66666666666666" y="511.0" type="curve" smooth="yes"/>
      <point x="54.333333333333336" y="511.0"/>
      <point x="12.333333333333334" y="415.3333333333333"/>
      <point x="2.666666666666667" y="365.0" type="curve"/>
      <point x="39.333333333333336" y="355.6666666666667" type="line"/>
      <point x="58.333333333333336" y="423.0"/>
      <point x="82.33333333333333" y="446.6666666666667"/>
      <point x="102.33333333333333" y="446.6666666666667" type="curve" smooth="yes"/>
      <point x="120.66666666666667" y="446.6666666666667"/>
      <point x="125.66666666666667" y="430.6666666666667"/>
      <point x="125.66666666666667" y="406.6666666666667" type="curve" smooth="yes"/>
      <point x="125.66666666666667" y="352.6666666666667"/>
      <point x="100.66666666666667" y="221.33333333333334"/>
      <point x="100.66666666666667" y="127.66666666666667" type="curve" smooth="yes"/>
      <point x="100.66666666666667" y="48.0"/>
      <point x="130.0" y="-11.0"/>
      <point x="210.66666666666666" y="-11.0" type="curve" smooth="yes"/>
      <point x="278.6666666666667" y="-11.0"/>
      <point x="352.0" y="46.333333333333336"/>
      <point x="382.3333333333333" y="138.33333333333334" type="curve"/>
      <point x="371.6666666666667" y="31.333333333333332"/>
      <point x="419.6666666666667" y="-11.0"/>
      <point x="483.3333333333333" y="-11.0" type="curve" smooth="yes"/>
      <point x="612.6666666666666" y="-11.0"/>
      <point x="715.6666666666666" y="117.0"/>
      <point x="745.0" y="243.66666666666666" type="curve" smooth="yes"/>
      <point x="779.0" y="368.0"/>
      <point x="746.0" y="511.0"/>
    </contour>
  </outline>
</glyph>
